<svg xmlns="http://www.w3.org/2000/svg" width="87.31" height="93.88" viewBox="0 0 87.31 93.88">
  <defs>
    <style>
      .cls-1 {
        fill: #d3c76c;
        fill-rule: evenodd;
      }
    </style>
  </defs>
  <path id="icon-map.svg" class="cls-1" d="M2520.2,1887.45a5.944,5.944,0,0,0,.49-0.99,0.739,0.739,0,0,0,0-.81,3.374,3.374,0,0,1-.65-0.49,2.107,2.107,0,0,1-.49-0.49,0.564,0.564,0,0,0-.49-0.33,0.843,0.843,0,0,1-.17-0.66,0.8,0.8,0,0,0,.33-0.49c0.05-.3,0-1.96,0-1.96a1.849,1.849,0,0,1,.49-0.16,4.516,4.516,0,0,1,.66,0l0.32-.49s0.35-.5.49-0.33a0.442,0.442,0,0,0,.33.16l0.49-.98a1.278,1.278,0,0,0,.49-0.32,2.568,2.568,0,0,0,0-.49,1.7,1.7,0,0,1-.49-0.66,5.333,5.333,0,0,0-.32-0.98,0.64,0.64,0,0,1,.32-0.33,2.055,2.055,0,0,0,.66,0l0.65,0.66a1.34,1.34,0,0,0,.49.49,2.307,2.307,0,0,0,1.15-.16,0.888,0.888,0,0,1,.65.16,0.632,0.632,0,0,0,.82,0,5.627,5.627,0,0,1,.82-1.15,3.117,3.117,0,0,0,.16-0.98,2.554,2.554,0,0,1-.32-0.81,4.354,4.354,0,0,0-.33-0.99,6.085,6.085,0,0,1,.49-0.65c0.12-.1.98-0.49,0.98-0.49a3.746,3.746,0,0,0,.33-0.98,6.231,6.231,0,0,1-.17-1.96,3.283,3.283,0,0,0,.5-0.66,10.614,10.614,0,0,0,.16-1.3v-1.48s-0.57-1.43-.82-1.96a2.937,2.937,0,0,1-.33-0.98,2.841,2.841,0,0,1,.49-0.98l0.17-.82,0.33,0.17h0.65l0.33-.66a7.1,7.1,0,0,0,.49.82c0.15,0.17.73,0.59,0.98,0.82s1.15,1.82,1.47,2.29,0.65,1.07.82,1.3a16.063,16.063,0,0,0,1.8,1.97,10.625,10.625,0,0,1,1.31,1.14,4.411,4.411,0,0,1,1.31.65c0.08,0.23.67,0.35,0.65,0.49a1.559,1.559,0,0,0,.17.5l0.82,0.16a0.255,0.255,0,0,0,.32,0,1.929,1.929,0,0,1,.49-0.33l0.5,0.33-0.17.49s0.45,0.52.49,0.33,0.33-.82.33-0.82,0.44,0.7.49,0.82a2.457,2.457,0,0,0,1.15.49,8.839,8.839,0,0,1,.98-0.17l1.14-1.14a2.7,2.7,0,0,0,.82-0.49,6.477,6.477,0,0,1,.98-0.98,0.306,0.306,0,0,1,.17.32c-0.09.18-.66,1.31-0.66,1.31l-0.32.98-0.66.98,0.16,0.49,0.5,0.66,0.32,0.33,0.49,0.32-0.65.17,0.16,0.65,0.17,0.49,0.32,0.49,0.33,0.16,0.98-.81h0.82l0.16,0.32-0.98.33-0.32.82s-0.72.12-1.15,0.16a4.152,4.152,0,0,0-.82.17l-0.33.49-0.98.49a0.8,0.8,0,0,1-.49-0.33s-0.47-.06-0.33.33,0.22,0.26,0,.32a2.811,2.811,0,0,1-1.63,0,1.282,1.282,0,0,1-.49-0.49,7.154,7.154,0,0,0-1.15.33c-0.18.12-1.17,0.93-1.47,1.14a27.288,27.288,0,0,0-2.29,2.62,10.03,10.03,0,0,0-.17,1.31v1.14l-0.49.33v0.49a18.175,18.175,0,0,1-1.47-1.45,14.9,14.9,0,0,1-2.17-.88,12.3,12.3,0,0,0-1.43-.94,7.284,7.284,0,0,0-1.15-.49l-0.65-.65s-1.17-.33-1.31-0.33a7.918,7.918,0,0,0-1.14.49,3.267,3.267,0,0,0-1.15.65,3.32,3.32,0,0,1-.65.66l-0.17.32a2.925,2.925,0,0,0-.49-0.65,3.574,3.574,0,0,1-.49-0.65c-0.12-.16-0.33-0.49-0.33-0.49a1.732,1.732,0,0,0-.82,0,0.6,0.6,0,0,1-.49-0.17l-0.81.98a1.841,1.841,0,0,0-.17.98,5.65,5.65,0,0,0,.49.66,1.86,1.86,0,0,0,.66.49,1.278,1.278,0,0,0,.65.16,3.033,3.033,0,0,1,.82.33,7.087,7.087,0,0,1,.49.65,1.853,1.853,0,0,0,.49.49l0.66,0.33s0.31,0.75,0,.82a2.088,2.088,0,0,1-.99.33c-0.2-.16-0.98-0.66-0.98-0.66l-0.32-.33-0.5.5a4.69,4.69,0,0,1-.81.65c-0.11-.01.23,0.67,0.16,0.82a6.633,6.633,0,0,1-1.15.65l-0.32.33-0.66-.33a1.953,1.953,0,0,1-.32-0.65,2.038,2.038,0,0,1,0-.82A2.41,2.41,0,0,0,2520.2,1887.45Zm-0.65,7.52a2.082,2.082,0,0,1,.65-0.82,1.916,1.916,0,0,0,.98-0.16l0.17-.66a2.04,2.04,0,0,0,.33-0.49c0.02-.12.16-0.65,0.16-0.65l-0.33-.66a4.931,4.931,0,0,0,.33-0.49,0.9,0.9,0,0,1,.49.33l0.65-.33,0.17,0.66s0.13,0.61.16,0.81,0,1.15,0,1.15h0.82l0.33-.98,0.65,0.16,0.66,0.49a0.266,0.266,0,0,0,.32-0.33,2.046,2.046,0,0,1,.17-0.81l0.32-.82-0.32-.49s-0.85.26-.98,0.33a6.832,6.832,0,0,0-.99.16,0.979,0.979,0,0,1-.32-0.49l0.16-.66,0.49-.98h0.49l0.49,0.17,0.49,0.81h0.33l0.82-.49-0.16,1.64s-0.2,1.65-.17,1.96a5.226,5.226,0,0,0,.33,1.31,2.806,2.806,0,0,1,.33.49,5.315,5.315,0,0,0,.65.82l0.33,0.32-0.33.33-0.82.16-0.61.13-0.97.6a1.574,1.574,0,0,0-.54.09,4.739,4.739,0,0,1-.79.24l0.17-.74,0.29-.64s-0.51.14-.49,0a1.157,1.157,0,0,0-.17-0.49l-0.71.66a1.193,1.193,0,0,0-.43-0.17,0.859,0.859,0,0,0-.49.16l-0.49-.49-0.82.33a3.006,3.006,0,0,0-.47-0.12,5.213,5.213,0,0,1-.68-0.21l-0.15.54-0.34-.54-0.16-.65-0.33-.17Zm8.51,10.95-0.49-.16-0.17.81a6.084,6.084,0,0,1-.39.54,2.518,2.518,0,0,1-.54-0.08,1.973,1.973,0,0,0-.54.2,1,1,0,0,0-.12-0.21,5.671,5.671,0,0,0-.3-0.63s-0.06,0-.23.02a1.819,1.819,0,0,1-.66,0,3.352,3.352,0,0,1-.33-0.33l-0.16-.16-0.12-.12-0.04-.53-0.17-.33a1.849,1.849,0,0,0,.09-0.6l-0.09-.38-0.32-.49a1.03,1.03,0,0,1-.05-0.47,4.958,4.958,0,0,1,.16-0.56,1.385,1.385,0,0,1,.05-0.44c0.05-.03.33-0.33,0.33-0.33l0.12-.43a0.7,0.7,0,0,1-.12-0.39,1.63,1.63,0,0,1,.16-0.65,1.606,1.606,0,0,0,.13-0.36,4.109,4.109,0,0,0,.03-0.41,2.221,2.221,0,0,0-.02-0.51,0.414,0.414,0,0,1,.06-0.31,1.072,1.072,0,0,0,.07-0.39,0.948,0.948,0,0,0,.06-0.31,0.243,0.243,0,0,1,.16-0.16l0.66-.17a1.681,1.681,0,0,0,.65-0.16,2.4,2.4,0,0,1,.7-0.43l0.46-.16,0.69-.14,0.44-.09,0.33-.33a3.674,3.674,0,0,1,.82.99c-0.09.13,0.08,0.57,0,.65a0.792,0.792,0,0,0,0,.65c0.08-.08,0,0.17,0,0.17s0.32,0.49.49,0.81a5.816,5.816,0,0,1,.16,1.64c0,0.3.19,0.52,0.16,0.65a1.006,1.006,0,0,0,.17.49c0-.05-0.06,0-0.17.17a0.752,0.752,0,0,0-.16.49c0.06,0.08-.03.19-0.16,0.32a0.674,0.674,0,0,0-.17.5,1.855,1.855,0,0,0,.17.32c0.03,0.06.05,0.17-.17,0.33a0.587,0.587,0,0,0-.16.49c-0.03.11,0.19,0.33,0,.33a0.445,0.445,0,0,0-.33.16c-0.05.05,0.03,0.38-.16,0.33a0.36,0.36,0,0,0-.49.16,0.626,0.626,0,0,1-.33.33Zm-9.33-6.54a0.671,0.671,0,0,0,.49,0,1.064,1.064,0,0,0,.66-0.65,1.291,1.291,0,0,1,.16-0.66,5.1,5.1,0,0,0,.16-0.65v-0.33l-0.16-.49,0.16-.49,0.49,0.16,0.66,0.17,0.59-.24,0.23-.09,0.49,0.49,0.49-.16a1.459,1.459,0,0,0,.49.16,2.028,2.028,0,0,1,.33-0.33,1.06,1.06,0,0,1,.32-0.32l0.17,0.49h0.49l-0.13.29c-0.06.11-.2,0.36-0.2,0.36l-0.13.73-0.03.25a3.75,3.75,0,0,0-.17.82v0.82a1.568,1.568,0,0,1-.16.49,0.968,0.968,0,0,0-.16.49,1.9,1.9,0,0,0,.11.58,5.046,5.046,0,0,0-.21.5,0.4,0.4,0,0,1-.23.23,1.138,1.138,0,0,1,0,.32,3.967,3.967,0,0,1-.16.49,1.339,1.339,0,0,0,0,.66,2.6,2.6,0,0,1,.32.49c0,0.08.11,0.67,0.11,0.67l-0.11.31,0.17,0.33,0.04,0.49-0.63.41a0.326,0.326,0,0,1-.15.21,1.452,1.452,0,0,1-.57.19c0.03-.05-0.49-0.24-0.49-0.32a5.053,5.053,0,0,0-.33-0.66l-0.66-.16-0.52-.04a1.05,1.05,0,0,1-.46-0.29,1.071,1.071,0,0,0-.49-0.04l-0.16-.12-0.17-.16v-0.49a1.367,1.367,0,0,1,.33-0.66,0.5,0.5,0,0,0,.33-0.33,3.324,3.324,0,0,1,.16-0.81v-0.98a2.046,2.046,0,0,0,.17-0.49,1.892,1.892,0,0,0-.17-0.49l-0.32-.5-0.33-.16a1.607,1.607,0,0,0-.49,0,1.785,1.785,0,0,1,0,.33h-0.49l-0.17-.17v-0.32Zm4.22,8.66a0.66,0.66,0,0,0-.29.66,1.257,1.257,0,0,0,.32.33l-0.13.41a0.486,0.486,0,0,1-.14.18,0.625,0.625,0,0,0-.27.42c-0.08.33-.08,0.81-0.11,0.95a0.784,0.784,0,0,1-.12.45,1.653,1.653,0,0,1-.45.32,0.52,0.52,0,0,0-.41.21,3.553,3.553,0,0,0,0,.49h0.77a1.338,1.338,0,0,1,.27.15,0.635,0.635,0,0,0,.34.16,1.683,1.683,0,0,1,.47.02c0.17,0.05.11-.08,0.16,0.15a2.043,2.043,0,0,0,.16.43l0.12,0.24,0.6-.53,0.38-.13v-0.82a8,8,0,0,0,.16-1.14,2.245,2.245,0,0,1,.33-0.82l0.49-.33,0.49-.32h0.49s0.06-.28.33,0a12.455,12.455,0,0,1,.82.98,0.289,0.289,0,0,0,.16-0.33c-0.08-.19-0.49-0.73-0.49-0.82a1.186,1.186,0,0,0,.17-0.32c0.02-.22,0-0.66,0-0.66l-0.17-.16a0.557,0.557,0,0,0,.17-0.33,2.255,2.255,0,0,1,.16-0.16c-0.03-.08-0.16-0.33-0.16-0.33a4.548,4.548,0,0,0,.32-0.49c-0.02,0,.33-0.3.33-0.33a1.093,1.093,0,0,1,0-.32,0.427,0.427,0,0,0-.14-0.28l-0.34-.15-0.18-.02-0.09.45a0.425,0.425,0,0,1-.07.32c-0.11.17-.28,0.45-0.32,0.5a0.458,0.458,0,0,1-.33,0,0.848,0.848,0,0,0-.49,0l-0.33.16-0.27-.48-0.15-.36-0.89.02a0.619,0.619,0,0,0-.27-0.26,4.48,4.48,0,0,0-.38-0.37,0.606,0.606,0,0,0-.23.18,3.617,3.617,0,0,0-.43.29,0.982,0.982,0,0,1-.61.33,0.357,0.357,0,0,0,.12.16,2.815,2.815,0,0,1,.33.65,1.176,1.176,0,0,0,0,.33Zm-5.2.66a0.748,0.748,0,0,1,.16-0.82,1.294,1.294,0,0,0,.66-0.32,3.044,3.044,0,0,0,.32-0.66,2.473,2.473,0,0,1,.17-0.65,3.755,3.755,0,0,1,.16-0.66c0.03-.05.16-0.81,0.16-0.81a0.687,0.687,0,0,0,.33.28,2.073,2.073,0,0,0,.42.01l0.41,0.3,0.77,0.09,0.53,0.13,0.33,0.66,0.49,0.32,0.32,0.5,0.17,0.32a1.55,1.55,0,0,1-.13.6,1.016,1.016,0,0,0-.36.38,1.057,1.057,0,0,0,0,.33,2.023,2.023,0,0,1,.32.33l-0.16.49-0.33.32s-0.19.71-.16,0.66a2.651,2.651,0,0,1,0,.49v0.33l-0.41.37-0.33.16a0.242,0.242,0,0,0-.24.12v1.47a1.711,1.711,0,0,0-.33.33,0.579,0.579,0,0,1-.49.16,3.847,3.847,0,0,0-.82-0.49h-0.98a2,2,0,0,1-.49-0.33c-0.03-.08-0.16-0.81-0.16-0.81l0.16-.66,0.22-.36a3.446,3.446,0,0,1,.3-0.24,3.283,3.283,0,0,0,.47-0.32,1.206,1.206,0,0,0,.15-0.38c-0.02-.06-0.16-0.5-0.16-0.5h-0.49a2.285,2.285,0,0,0-.16-0.49,1.824,1.824,0,0,1-.27-0.25l-0.23-.2A0.907,0.907,0,0,1,2517.75,1908.7Zm-1.64,7.03s0.41-.12.58-0.15c0.11-.02.8-0.28,0.75-0.25s0.39-.17.39-0.17a0.988,0.988,0,0,1,.01-0.73c0.05-.11.24-0.5,0.24-0.5a2.727,2.727,0,0,0,.2-0.28c0.07-.12.29-0.28,0.29-0.21a2.358,2.358,0,0,0,.65,0h0.49s0.62,0.29.66,0.33a0.346,0.346,0,0,0,.43.14,1.967,1.967,0,0,0,.45-0.38l0.1-.12v-0.95h0.82l0.49,0.33h0.65l0.17,0.49,0.16,0.33,0.28-.25,0.38-.3,0.32-.11s0.46,0.71.49,0.82,0,0.93,0,.98a7.967,7.967,0,0,1,.17,1.63c-0.09.36-.09,1.07-0.17,1.15s0.08,0.73,0,.82a3.349,3.349,0,0,1-.65.81,3.361,3.361,0,0,0-.49.33,4.691,4.691,0,0,0-.49-0.33h-0.5l-0.49.49-0.32.17a3.056,3.056,0,0,1-.33-0.33c-0.14-.16-0.49-0.65-0.49-0.65a3.151,3.151,0,0,1-.33-0.33c-0.11-.14-0.52-0.68-0.49-0.65h0a0.926,0.926,0,0,0-.49-0.33,4.55,4.55,0,0,0-.82.16,0.749,0.749,0,0,1-.49.49,2.593,2.593,0,0,0-.98.49,2.867,2.867,0,0,1-.66.33,1.57,1.57,0,0,1-.43.08,2.933,2.933,0,0,1-.55-0.41l-0.16-.65,0.02-.61-0.19-.53,0.33-.33,0.03-.27Zm0.98,7.03a0.65,0.65,0,0,1-.16-0.49c0.08-.19.11-0.79,0.16-0.82a0.579,0.579,0,0,0,0-.32l-0.44-.55v-0.32l0.12-.28v-0.9l0.65-.24a7.7,7.7,0,0,1,.82-0.49c0.11-.03.56-0.18,0.62-0.21a3.217,3.217,0,0,0,.25-0.23l0.11-.22,0.82-.16,0.22,0.08,1.09,1.23a0.738,0.738,0,0,0-.02.39,0.93,0.93,0,0,1-.15.75,1.416,1.416,0,0,1-.16.17v0.81a6.072,6.072,0,0,1,.12.8c-0.01.11-.12,0.51-0.12,0.51s-0.52.14-.65,0.16a2.541,2.541,0,0,0-.66.33c-0.08.05-.41,0.36-0.52,0.41a0.647,0.647,0,0,0-.13.08,3.09,3.09,0,0,0-.66.33,1.894,1.894,0,0,1-.28-0.23,1.386,1.386,0,0,0-.7-0.26A2.053,2.053,0,0,1,2517.09,1922.76Zm-2.54-3.47a2.866,2.866,0,0,0,.27-0.5,0.464,0.464,0,0,1,.41-0.38c0.22-.08.73-0.35,0.73-0.35l0.1,0.41,0.11,0.24,0.6,0.45a4.311,4.311,0,0,1,0,.82,1.388,1.388,0,0,0-.12.52,0.914,0.914,0,0,0,.2.32l0.25,0.37a4.3,4.3,0,0,1-.09.72,0.754,0.754,0,0,0-.02.69,2.195,2.195,0,0,1,.35.43,0.259,0.259,0,0,0,.24.06l0.68,0.35s-0.73.11-.84,0.14a0.6,0.6,0,0,1-.49,0,2.345,2.345,0,0,0-.65-0.33,2.586,2.586,0,0,1-.66-0.16,3.744,3.744,0,0,1-.23.47,1.349,1.349,0,0,1-.42.67,1.44,1.44,0,0,0-.49.17,3.083,3.083,0,0,0-.66.32,1.5,1.5,0,0,1-.49.17,0.746,0.746,0,0,1-.33-0.33c0.03-.11-0.05-0.52-0.02-0.58a0.953,0.953,0,0,0-.13-0.29c0-.03.1-0.6,0.15-0.77s-0.05-.4,0-0.49a0.728,0.728,0,0,0-.33-0.32l-0.19.33a0.822,0.822,0,0,1-.3-0.17,1.9,1.9,0,0,1-.49-0.49,7.855,7.855,0,0,1,.17-0.82,4.807,4.807,0,0,0,.65-0.49,2.769,2.769,0,0,1,.66-0.32,0.367,0.367,0,0,0,.27-0.02,0.954,0.954,0,0,1,.34-0.1l0.22-.29,0.27-.22Zm8.27,2.98s-0.03,1.23,0,1.31a3.085,3.085,0,0,0,.16.65,1.5,1.5,0,0,1,.17.49,3.39,3.39,0,0,0,.33.66,8.329,8.329,0,0,0,.49.81,5.436,5.436,0,0,1,.44.4l-0.77-.56-0.77-.6-0.38-.22a1.948,1.948,0,0,0-.59.45,1.757,1.757,0,0,1-1.04.04,10.32,10.32,0,0,1-1.15-.32,4.044,4.044,0,0,0-.33-0.49,2.761,2.761,0,0,0-.49-0.49,0.768,0.768,0,0,1-.49-0.17,0.544,0.544,0,0,0,0-.32v-0.33a4.79,4.79,0,0,1,.9-0.46s0.32-.28.26-0.24a1.272,1.272,0,0,0,.39-0.24,2.161,2.161,0,0,1,.59-0.2l0.48-.17,0.09-.34v-0.46a3.408,3.408,0,0,1-.09-0.67,1.6,1.6,0,0,1,0-.65,0.8,0.8,0,0,0,.33-0.5c0.02-.12,0-0.81,0-0.81s0.51,0.7.58,0.75a0.942,0.942,0,0,1,.24.23,1.174,1.174,0,0,0,.44-0.28,1.185,1.185,0,0,1,.46-0.38,1.121,1.121,0,0,1,.41,0,3.009,3.009,0,0,0,.49.33,1.782,1.782,0,0,1-.17.82,4.276,4.276,0,0,0-.49.82,1.8,1.8,0,0,1-.16.65A1.414,1.414,0,0,0,2522.82,1922.27Zm-5.73-11.77c0.03,0.05.09-.76,0.17-0.82a0.786,0.786,0,0,0,.07-0.4l0.42-.58a4.684,4.684,0,0,1,.49.33,1.415,1.415,0,0,1,.46.66c0.05,0.19.13,0.17,0.29,0.15h0.23l0.16,0.5a1.358,1.358,0,0,1-.49.65,2.333,2.333,0,0,0-.49.33c0-.03-0.21.54-0.23,0.61a0.842,0.842,0,0,0-.06.57,2.028,2.028,0,0,0,.13.61c0.09,0.09.49,0.32,0.41,0.29a1.171,1.171,0,0,0-.57.53,3.891,3.891,0,0,0-.33.82c0.05,0.19.16,0.46,0,.49s-0.98.33-.98,0.33a2.771,2.771,0,0,0-.66.16,2.505,2.505,0,0,1,0,.82,1.471,1.471,0,0,0-.33.33,1.136,1.136,0,0,0,.17.49,1.281,1.281,0,0,1,0,.65,0.441,0.441,0,0,1-.17.16,6.931,6.931,0,0,1-.81.33l-0.33.65a0.691,0.691,0,0,1-.33.33,1.157,1.157,0,0,0-.49.49,1.142,1.142,0,0,1-.65.17,4.245,4.245,0,0,0-.06-0.45,0.317,0.317,0,0,0-.05-0.14,1.145,1.145,0,0,1-.22-0.4,1.307,1.307,0,0,1-.17-0.49c0-.21-0.02-0.41-0.16-0.32a1.651,1.651,0,0,0-.65.32,1.9,1.9,0,0,1-.49.49,1.481,1.481,0,0,1-.5.49,1.917,1.917,0,0,0-.49-0.16,0.384,0.384,0,0,1-.32.16,1.855,1.855,0,0,0-.17-0.32l-0.33-.17-0.16-.16-0.37.46-0.45.69a1.452,1.452,0,0,1-.16-0.33,1.743,1.743,0,0,1-.09-0.75l-0.24-.23-0.16-.17s0.52-.27.65-0.32a4.155,4.155,0,0,0,.98-0.33,2.817,2.817,0,0,1,.5-0.49l0.49-.16a2.258,2.258,0,0,0,.82,0,4.364,4.364,0,0,1,.65-0.82,8.427,8.427,0,0,0,.82-0.49,1.029,1.029,0,0,1,.33-0.66c0.27-.27.35-0.57,0.49-0.65a0.57,0.57,0,0,0,.16-0.49,5.731,5.731,0,0,1,.16-0.98,6.754,6.754,0,0,1,.99-0.66,2.317,2.317,0,0,0,.98-0.32c0.24-.28.68-0.44,0.82-0.66a2.411,2.411,0,0,0,.32-0.49A1.833,1.833,0,0,1,2517.09,1910.5Zm-6.05.98a1.415,1.415,0,0,0,.49-0.49,2.8,2.8,0,0,1,.33-0.49,1.869,1.869,0,0,1,.32-0.49,2.2,2.2,0,0,1,0,.98,1.563,1.563,0,0,0-.16.65,0.3,0.3,0,0,1,.16.17,2.575,2.575,0,0,1,.49-0.17,2.634,2.634,0,0,1,0,.49,0.435,0.435,0,0,0-.32.17,1.53,1.53,0,0,1-.33.65,1.671,1.671,0,0,1-.65.49c-0.11-.05-0.5-0.16-0.5-0.16a1.752,1.752,0,0,0,.33-0.49,1.039,1.039,0,0,1,.17-0.33,1.4,1.4,0,0,0,0-.49,1.474,1.474,0,0,1-.33.33s-0.08.16-.17,0a1.033,1.033,0,0,1,.17-0.49A0.616,0.616,0,0,1,2511.04,1911.48Zm2.37,13.41a5.95,5.95,0,0,0,.74-0.33,3.593,3.593,0,0,1,.65-0.33c0.06,0.03.19,0.11,0.33-.16l0.33-.65c0.08-.17.05-0.36,0.16-0.33a5.4,5.4,0,0,1,.9.23,1.839,1.839,0,0,0,.52.31,2.5,2.5,0,0,0,.74-0.09,1.361,1.361,0,0,1,.38-0.08,2.6,2.6,0,0,1,.24.12v0.65s-0.03.12,0.21,0.12c0.33,0,.48.27,0.42,0.33a0.286,0.286,0,0,0,.03.37,1.694,1.694,0,0,1,.29.67c-0.06.09,0.09,0.42,0.03,0.47s-0.64-.07-0.77-0.02a4.287,4.287,0,0,0-.96.1,0.676,0.676,0,0,1-.72.09c-0.19-.08-0.6-0.41-0.82-0.49s-0.76-.33-0.82-0.33c-0.31,0-.54.27-0.49,0.16l-0.22.14a1.546,1.546,0,0,1-.76-0.14,1.949,1.949,0,0,1-.33-0.32A1.055,1.055,0,0,1,2513.41,1924.89Zm9.74,1.96s-0.63.68-.82,0.82a1.218,1.218,0,0,0-.33.49,0.735,0.735,0,0,0,0,.49,3.087,3.087,0,0,1,0,1.14,1.341,1.341,0,0,1-.32.33,5.813,5.813,0,0,1-1.15.33,1.692,1.692,0,0,0-.49.49c-0.19.27-.33,0.49-0.33,0.49l-0.33.32-0.49-.32a0.848,0.848,0,0,1-.16-0.33c0.07-.07.22-0.08,0.33-0.16a0.963,0.963,0,0,0,.16-0.82c-0.08-.38-0.11-0.3,0-0.49a0.3,0.3,0,0,0,0-.33,0.924,0.924,0,0,1-.33-0.16c0.06-.03.19-0.22,0.33-0.33s0.25-.44.33-0.49a2.939,2.939,0,0,0,.49-0.33,0.781,0.781,0,0,0,.49-0.49,1.382,1.382,0,0,0-.49-0.49h-0.33l-0.16.33-0.17-.82a1.923,1.923,0,0,0,.02-0.37,3.116,3.116,0,0,1-.09-0.7l0.03,0.13a0.731,0.731,0,0,0-.23-0.44l-0.15-.4,0.16-.14,0.59,0.78s0.76,0.24.96,0.27a0.921,0.921,0,0,0,.53.1,1.108,1.108,0,0,0,.64-0.05c0.19-.16.65-0.49,0.65-0.49l0.33,0.17a7.339,7.339,0,0,0,.82.65,5.265,5.265,0,0,1,.65.49v0.17h-0.16a3.285,3.285,0,0,1-.65.16A0.467,0.467,0,0,0,2523.15,1926.85Zm-8.46-1.08a1.381,1.381,0,0,1,.6-0.23,4.826,4.826,0,0,1,.82.33c0.11,0.07.49,0.29,0.55,0.33,0.17,0.11.32,0.18,0.41,0.23a0.459,0.459,0,0,0,.35-0.07,0.8,0.8,0,0,0,.33-0.17,3.155,3.155,0,0,0,.82,0,0.587,0.587,0,0,1,.49,0h0.32a2.239,2.239,0,0,0,.07.65c0.07,0.16-.39.34-0.39,0.34a0.907,0.907,0,0,1-.17.16,1.343,1.343,0,0,1-.16.62,2.189,2.189,0,0,0-.38-0.38,3.578,3.578,0,0,1-.44-0.24,2.825,2.825,0,0,1-.65,0,0.362,0.362,0,0,1-.06.24c-0.08.07-.01,0.2-0.27,0.09s-0.24-.04-0.65-0.17a0.869,0.869,0,0,1-.66-0.49,0.826,0.826,0,0,0-.33-0.16,0.707,0.707,0,0,1-.31-0.26,2,2,0,0,0-.34-0.4Zm0.77,2.06,0.16-.49-0.04-.39a1.152,1.152,0,0,0,.76.58c0.06,0.02.44,0.05,0.44,0.05l0.33,0.16,0.15-.4a2.838,2.838,0,0,1,.55.04,0.507,0.507,0,0,1,.43.12l0.33,0.26,0.16,0.23a1.429,1.429,0,0,0-.49.17c-0.07.08-.29,0.38-0.16,0.49a2.209,2.209,0,0,1,.16.65,1.663,1.663,0,0,0,.33.33,0.174,0.174,0,0,0-.17.16,0.629,0.629,0,0,1-.16.49,0.641,0.641,0,0,1-.33-0.32,5.109,5.109,0,0,1-.16-0.5,0.867,0.867,0,0,0-.33-0.32,1.773,1.773,0,0,1-.33,0,1.061,1.061,0,0,0-.65.16c-0.16.15-.58,0.21-0.66,0.33a2.648,2.648,0,0,0-.16.49l-0.33.16a0.365,0.365,0,0,1-.32-0.32,1.656,1.656,0,0,1-.03-0.79,0.342,0.342,0,0,0,.03-0.36,0.5,0.5,0,0,0-.21-0.27,0.708,0.708,0,0,1-.25-0.22l0.46-.33Zm-6.88-7.68a2.279,2.279,0,0,0,.33-0.5,3.806,3.806,0,0,1,.49-0.65,2.483,2.483,0,0,1,.61.53c0.06,0.26.3-.07,0.53,0.04a1.649,1.649,0,0,0,.37.08l0.52-.54a0.814,0.814,0,0,0,.36-0.34,0.977,0.977,0,0,1,.65-0.39s0.23-.13.22,0.06a1.567,1.567,0,0,0,.11.56,1.1,1.1,0,0,0,.23.49,1,1,0,0,1,.17.49c0.05,0.11.12,0.2,0,.17a1.462,1.462,0,0,0-.71.38c-0.3.25-.47,0.31-0.6,0.43a1.322,1.322,0,0,0-.13.55,0.364,0.364,0,0,0,.05.4,1.4,1.4,0,0,0,.46.41,0.564,0.564,0,0,0,.27.11,0.35,0.35,0,0,1,.16-0.32c0.14-.07.33,0.32,0.33,0.32v0.66s-0.09.32-.16,0.49a2.062,2.062,0,0,0,.14.4c0.03,0.42.03,0.62,0.03,0.62l0.35,0.29,0.05,0.2a0.216,0.216,0,0,1-.12.31c-0.29.1-.41,0.2-0.62-0.02s-0.14-.22-0.32-0.17a1.81,1.81,0,0,1-.33,0l-0.33.09s0-.07-0.37.18c-0.34.23-.28,0.22-0.28,0.22a1.389,1.389,0,0,1-.17.66c-0.2.3-.12,0.14-0.1,0.49a2.721,2.721,0,0,1-.1.91,5.12,5.12,0,0,0-.23.74c-0.06.26-.07,0.2-0.53,0.38a2.352,2.352,0,0,0-.45.51c-0.23.17-.48,0.28-0.62,0.39a1.461,1.461,0,0,1-.75-0.15c-0.07,0-.2.12-0.33,0.16a0.712,0.712,0,0,1-.32-0.4,1.542,1.542,0,0,1,.16-0.58c0.49-.49.49-0.3,0.25-0.75-0.08-.16-0.6-0.25-0.48-0.45a0.46,0.46,0,0,0,.07-0.6,0.555,0.555,0,0,1-.28-0.35,0.651,0.651,0,0,0-.38-0.47,0.387,0.387,0,0,1-.17-0.44,0.684,0.684,0,0,1,.04-0.22,0.659,0.659,0,0,1,.38-0.17,4.238,4.238,0,0,0,.52-0.4,0.834,0.834,0,0,0,.17-0.44,0.747,0.747,0,0,0-.21-0.2s-0.09.04-.11-0.22a2.127,2.127,0,0,1,.2-0.52,1.376,1.376,0,0,1,.16-0.49,0.339,0.339,0,0,0,.17-0.33c-0.05-.12-0.17-0.33-0.17-0.33l-0.1-.21,0.27-.51,0.49-.42a3.649,3.649,0,0,0,.12-0.47C2508.55,1920.7,2508.58,1920.15,2508.58,1920.15Zm3.09,8.94a1.554,1.554,0,0,0,.19.7,0.5,0.5,0,0,0,.49.17,2.977,2.977,0,0,0,.16-0.99c-0.01-.1.37-0.43,0.33-0.49a0.837,0.837,0,0,0,.16.33c0.07,0.03.52,0.11,0.52,0.11s0.09-.17.14-0.27a0.746,0.746,0,0,1,.49,0l0.76-.03a0.71,0.71,0,0,1-.39-0.33,1.482,1.482,0,0,1,.49-0.31c0.64-.18.42-0.22,0.55-0.45a4,4,0,0,0,.02-0.58,1.1,1.1,0,0,1-.55-0.28c-0.24-.32-0.39-0.48-0.39-0.48a0.7,0.7,0,0,0,.02-0.4,1.447,1.447,0,0,1-.84-0.09l-0.34-.36-0.59.2-0.22-.16a0.266,0.266,0,0,0-.32-0.17,1.006,1.006,0,0,1-.49,0l-0.66.33a0.167,0.167,0,0,0-.16.16,1.641,1.641,0,0,1-.17.66,0.783,0.783,0,0,0-.16.33,0.683,0.683,0,0,0,.07.32c0.06,0.06.27,0.31,0.27,0.31a0.946,0.946,0,0,0-.01.67c0.14,0.32.2,0.86,0.25,0.94A0.3,0.3,0,0,0,2511.67,1929.09Zm-7.67-9.44,0.02-.44a0.922,0.922,0,0,1,.31-0.37,0.724,0.724,0,0,1,.65-0.17l-0.16.66a0.985,0.985,0,0,0,0,.32,1.453,1.453,0,0,0,.49.5,0.9,0.9,0,0,0,.65.16,0.741,0.741,0,0,0,.49-0.33,0.936,0.936,0,0,0,.33-0.49c0.01-.24-0.04-0.41.17-0.49a2.391,2.391,0,0,0,.49-0.33h0.49a1.829,1.829,0,0,0,.32.33,0.638,0.638,0,0,1,.07.36,0.646,0.646,0,0,0,.1.46,0.747,0.747,0,0,1,.16.49,2.014,2.014,0,0,1-.23,1.04,1.858,1.858,0,0,0-.54.59c-0.07.21-.09,0.35-0.37,0.33a1.355,1.355,0,0,1-.71-0.12,1.311,1.311,0,0,0-.6-0.21,1.06,1.06,0,0,0-.61-0.02c-0.04.09-.15,0.1-0.17,0.18a2.292,2.292,0,0,1-.44.9c-0.16.18-.21,0.19-0.42-0.08a2.364,2.364,0,0,0-.33-0.32,3.773,3.773,0,0,1-.49.49c0-.06-0.03-0.64-0.04-0.71-0.05-.6-0.15-1.09-0.12-1.25s0.11-.46.11-0.46a1.976,1.976,0,0,0,.15-0.42l0.22-.18Zm3.78,8.33c0.18,0.28.32,0.38,0.15,0.5a0.882,0.882,0,0,0-.27.3,1.232,1.232,0,0,0-.21.53c-0.02.17-.04,0.1-0.27,0.2a0.55,0.55,0,0,1-.49.08,0.862,0.862,0,0,0-.4-0.13,4.808,4.808,0,0,1-.67.22,2.153,2.153,0,0,1-.31-0.38,2,2,0,0,0-.49-0.65,1.867,1.867,0,0,0-.88.16,0.709,0.709,0,0,0-.43.16,0.9,0.9,0,0,0-.38.47,0.6,0.6,0,0,1-.11.68,1.422,1.422,0,0,1-.33-0.16,1.5,1.5,0,0,1-.33-0.33s-0.25-.29-0.33-0.17a1.664,1.664,0,0,1-.32.33,1.013,1.013,0,0,1-.17-0.65,1.033,1.033,0,0,0,.33-0.49c-0.03-.16.04-0.3,0-0.41a0.38,0.38,0,0,1-.16-0.25,0.36,0.36,0,0,0-.07-0.23,0.755,0.755,0,0,1-.26-0.26c-0.05-.12-0.16-0.49-0.16-0.49a0.4,0.4,0,0,1,.06-0.39l0.26-.26a0.444,0.444,0,0,1,.53-0.22,0.9,0.9,0,0,0,.56.02,2.11,2.11,0,0,1,.55-0.13,0.556,0.556,0,0,0,.49-0.16c0.06-.11.24-0.15,0.17-0.33a3.847,3.847,0,0,0-.33-0.49,0.536,0.536,0,0,1-.26-0.19c0.07-.03-0.13-0.44-0.07-0.46l0.2-.07a0.991,0.991,0,0,0,.13-0.42,3.4,3.4,0,0,1,.16-0.82l0.49-.49a2.361,2.361,0,0,0,.33.32c0.12,0.1.12,0.38,0.33,0.17a0.959,0.959,0,0,0,.32-0.49,2.1,2.1,0,0,1,.33-0.66,1,1,0,0,1,.49,0,3.562,3.562,0,0,1,.66.17,2.246,2.246,0,0,0,.49.16,1.8,1.8,0,0,0,.55-0.05l0.31,0.6-0.12.2a0.2,0.2,0,0,0-.16.22,0.551,0.551,0,0,1-.13.43,0.659,0.659,0,0,0-.12.56,1.545,1.545,0,0,0,.28.29l-0.12.37a0.893,0.893,0,0,1-.33.32,1.87,1.87,0,0,1-.62.26l-0.03.23a0.465,0.465,0,0,0,.16.49,0.806,0.806,0,0,1,.33.33,0.677,0.677,0,0,0,.27.43,0.347,0.347,0,0,1,.08.5s-0.21.24-.02,0.32Zm-6.89-5.06s0.92-.71.98-0.81,0.44-.55.49-0.66a6.384,6.384,0,0,1,.49-0.98,2.121,2.121,0,0,0,.33-0.65,2.339,2.339,0,0,0,.33-0.49c-0.05-.11-0.17-0.82-0.17-0.82a0.782,0.782,0,0,0,0-.33,3.81,3.81,0,0,1-.32-0.65,3.253,3.253,0,0,0,.16-0.65c0.01-.12.2-0.54,0.16-0.5a0.035,0.035,0,0,1-.01.02,0.6,0.6,0,0,1,.34-0.18c0.36-.12.35-0.06,0.66-0.16s0.46-.25.65-0.33,0.6-.42.82-0.49a0.918,0.918,0,0,1,.49-0.16c0.08,0.06.33,0.32,0.33,0.32a0.411,0.411,0,0,1-.17.33c-0.17.1-.49,0.33-0.49,0.33a0.815,0.815,0,0,1,0,.32,0.846,0.846,0,0,1-.32.33,0.691,0.691,0,0,1-.33,0,0.291,0.291,0,0,1-.17.33,0.681,0.681,0,0,0-.32.33h-0.49l-0.17.16-0.16.33,0.16,0.16a0.89,0.89,0,0,0,.49,0,0.451,0.451,0,0,1,0-.33l0.33,0.17v0.32l0.16,0.33-0.16.16h-0.33a0.9,0.9,0,0,0-.49.33,0.869,0.869,0,0,0-.16.49,3.949,3.949,0,0,0-.01.58l-0.15.08a2.277,2.277,0,0,0-.33.98c0.04,0.13.16,1.79,0.16,1.79a1.116,1.116,0,0,1-.03.27,1.983,1.983,0,0,0-.14.64,1.322,1.322,0,0,1,0,.45l-0.32.12a0.377,0.377,0,0,1-.49-0.17,1.277,1.277,0,0,0-.16-0.32,3.646,3.646,0,0,0-.99,0c0.03,0.08-.2-0.01-0.32-0.17a3.635,3.635,0,0,1-.33-0.49v-0.33Zm7.53,7.85a6.793,6.793,0,0,1,.14-0.96,0.84,0.84,0,0,0,.51-0.18l0.49-.33a1.153,1.153,0,0,1,.5-0.49c0.22-.03.28-0.03,0.32-0.16a4.2,4.2,0,0,0,.17-0.49,4.042,4.042,0,0,1,.16-0.49,1.785,1.785,0,0,1,.12-0.61,0.458,0.458,0,0,1,.18.39,0.889,0.889,0,0,0,.09.71c0.05,0.21.12,0.54,0.14,0.61a0.461,0.461,0,0,0,.21.3c0.12,0.05.22-.06,0.24,0.07a1.436,1.436,0,0,0,.12.59,0.6,0.6,0,0,0,.23.21c0.17,0.04.2,0.1,0.34-.05a2.588,2.588,0,0,0,.13-0.92l0.33-.49a0.448,0.448,0,0,0,.16.33,0.923,0.923,0,0,0,.44.1c0.13,0.02.15-.19,0.22-0.26a1.345,1.345,0,0,1,.49,0,2.671,2.671,0,0,0,.49,0,0.577,0.577,0,0,1,.27-0.03,0.871,0.871,0,0,1,.06.52,0.383,0.383,0,0,0-.07.33c0,0.1.07,0.54,0.07,0.54l0.14,0.2a1.074,1.074,0,0,1,.35.73,2.973,2.973,0,0,0,.32.49,1.263,1.263,0,0,1-.16.49c-0.09.04-.23,0.28-0.33,0.32a4,4,0,0,1-.32.49,1.141,1.141,0,0,0-.33.33,1.033,1.033,0,0,1-.49.49,2.234,2.234,0,0,1-.49-0.49,3.258,3.258,0,0,1-.17-0.65,3.076,3.076,0,0,0,.17-0.82c0.01-.08.16-0.49,0.16-0.49l0.33-.16v-0.49s0.3-.14-0.17-0.17a9.356,9.356,0,0,0-.98,0,0.484,0.484,0,0,0-.33.17c0.01,0.1-.27.06-0.16,0.32a0.474,0.474,0,0,1-.16.49l-0.66.17-0.16.32a0.357,0.357,0,0,1-.16.33,1.018,1.018,0,0,0-.5.65,1.838,1.838,0,0,1,.17.66,0.677,0.677,0,0,1-.49-0.16c-0.09-.04-0.8-0.09-0.99-0.17s-0.43.23-.65,0.17-0.51-.12-0.66-0.17a2.161,2.161,0,0,1-.32-0.16,0.488,0.488,0,0,1-.17-0.33,1.057,1.057,0,0,0,0-.33s-0.43.01-.32,0.17-0.05.85-.17,0.65a2.708,2.708,0,0,1-.2-0.47l0.08-.72a2.5,2.5,0,0,0,.61-0.28,1.358,1.358,0,0,0,.66-0.49v-0.33Zm-4.91,0s-0.08.03-.17-0.16a5.291,5.291,0,0,1-.32-0.49,0.435,0.435,0,0,0,.16-0.33,0.956,0.956,0,0,1,.01-0.53c0.11-.08.14-0.16,0.32-0.29a0.873,0.873,0,0,1,.49-0.16,2.531,2.531,0,0,0,.33-0.16,0.561,0.561,0,0,1,.32,0,0.5,0.5,0,0,1,.31.1,4.6,4.6,0,0,0,.55.82c0.07-.04.09,0.2,0.29,0.06a1.284,1.284,0,0,1,.65-0.17,3.25,3.25,0,0,1,.33.17,2.612,2.612,0,0,0,.66-0.24c0.08-.06.25,0.46,0.32,0.4a0.848,0.848,0,0,1,.33-0.16,1.847,1.847,0,0,1,.47.18l-0.05.1c-0.03.42-.03,0.32-0.03,0.42-0.04.4-.03,0.43-0.06,0.8a2.5,2.5,0,0,1-.32.23c-0.22.18-.36,0.24-0.47,0.33a1.6,1.6,0,0,0-.52.23,0.844,0.844,0,0,1,0,.32,0.746,0.746,0,0,0,0,.49c0.08,0.13.2,0.36,0.2,0.36a2,2,0,0,0-.69-0.03c-0.18.08-.61,0.26-0.82,0.33a7.856,7.856,0,0,1-.82.16,0.709,0.709,0,0,1,.16-0.32c0.11-.08.77-0.27,0.82-0.33s0.33,0.03.33-.17,0.2-.2,0-0.32a1.273,1.273,0,0,1-.33-0.33,0.575,0.575,0,0,0-.32.16,0.269,0.269,0,0,1-.33.33,1,1,0,0,1-.66-0.16,0.735,0.735,0,0,0-.16-0.49,1.167,1.167,0,0,1-.16.16,0.366,0.366,0,0,0,0,.33c0.08,0.17.4,0.14,0.32,0.32a0.267,0.267,0,0,1-.32.17,0.945,0.945,0,0,1-.33-0.33,2.54,2.54,0,0,1-.16-0.49,0.76,0.76,0,0,0,.16-0.33,1.5,1.5,0,0,1-.33-0.49,0.217,0.217,0,0,0,.17-0.16,1.068,1.068,0,0,1,.16-0.33h-0.49Zm-0.82,1.15a1.808,1.808,0,0,0-.33.49,1.015,1.015,0,0,1,0,.49,0.284,0.284,0,0,0,0,.33,1.006,1.006,0,0,1,.33.32,2.21,2.21,0,0,0,.49.33,1.235,1.235,0,0,0,.49.33c0.12,0,.54.04,0.49,0.16a0.9,0.9,0,0,1,0,.33,1.077,1.077,0,0,0-.32.49,0.415,0.415,0,0,1,0,.32c-0.02-.01-0.21-0.09-0.33-0.16s-0.46-.28-0.49-0.16a2.03,2.03,0,0,1-.66.49c-0.24.13-.39,0.01-0.65,0.16a0.849,0.849,0,0,0-.49.33,3.593,3.593,0,0,1-.17.32,2.778,2.778,0,0,1,0,.5c0,0.06.02,0.5-.16,0.49a0.5,0.5,0,0,0-.49.16,4.657,4.657,0,0,1-.33.49c-0.1.21-.11,0.43-0.16,0.49a0.722,0.722,0,0,0,0,.33s-0.29.12-.33,0.13a1.111,1.111,0,0,0-.21-0.48,1.433,1.433,0,0,0-.45-0.31,0.692,0.692,0,0,1,0-.32,1.15,1.15,0,0,1,.33-0.49,0.781,0.781,0,0,0,.33-0.17,0.672,0.672,0,0,1,.33-0.32,0.316,0.316,0,0,0,.32-0.17,1.847,1.847,0,0,1-.16-0.82,0.628,0.628,0,0,0,.33-0.32,1.416,1.416,0,0,1-.17-0.33c-0.04-.13-0.14-0.37-0.16-0.49s-0.03-.39.06-0.35,0.65,0.01.6-.14a0.9,0.9,0,0,0,0-.33,3.887,3.887,0,0,0-.55-0.3c-0.09-.06-0.34-0.03-0.27-0.19,0.23-.56.07-0.51,0.16-0.49a0.546,0.546,0,0,1-.29-0.29c0.03-.07-0.06-0.21-0.04-0.36a0.768,0.768,0,0,1,.35-0.42,2.945,2.945,0,0,0,.42-0.14c0.04-.03-0.1-0.25.5-0.11a1.26,1.26,0,0,0,.64-0.57,0.727,0.727,0,0,0,.09-0.26,3.312,3.312,0,0,1,.07-0.45,3.21,3.21,0,0,1,.06-0.5,0.209,0.209,0,0,0-.12-0.15,1.239,1.239,0,0,1,.35-0.38l0.1,0.03,0.38,0.41a0.849,0.849,0,0,1,.29.19,1.088,1.088,0,0,1,.27.25s0.16,0.23.2,0.3a0.717,0.717,0,0,1,0,.33,0.737,0.737,0,0,1-.32.16c-0.07-.03-0.12.07-0.17,0.16S2502.69,1931.92,2502.69,1931.92Zm-2.62-8.18a0.518,0.518,0,0,1,.16-0.32c0.16-.15.66-0.5,0.66-0.5a1.094,1.094,0,0,0,0,.33,1.326,1.326,0,0,0,.33.49c0.21,0.24.22,0.15,0.49,0.17s0.65,0,.65,0a0.2,0.2,0,0,1,.24.12,1.552,1.552,0,0,0,.25.37h0.33l0.07,0.46,0.33,0.28a0.5,0.5,0,0,0,.17.25,0.239,0.239,0,0,1,.06.26,0.378,0.378,0,0,1-.29.33,7.044,7.044,0,0,1-.75.12,0.589,0.589,0,0,1-.41.09,1.022,1.022,0,0,0-.65,0,3.267,3.267,0,0,0-.33.33h0.01a0.171,0.171,0,0,0-.17.17,1.37,1.37,0,0,1,.02.44c-0.03-.08-0.46-0.32-0.48-0.41a0.5,0.5,0,0,0-.36.13,0.782,0.782,0,0,1,.16.33,1.142,1.142,0,0,1-.49.49,0.93,0.93,0,0,0-.49.16c0.03,0.1-.05.07-0.16,0.16a1.474,1.474,0,0,0-.33.33,1.716,1.716,0,0,1-.33.33,0.384,0.384,0,0,1-.23.18,1.17,1.17,0,0,1-.59.14c-0.07-.14-0.08-0.38-0.32-0.32a0.445,0.445,0,0,1-.33,0l-0.33-.33a0.6,0.6,0,0,1-.19-0.38c0.07-.13-0.11-0.16.03-0.27a1.344,1.344,0,0,1,.49.32,1.55,1.55,0,0,1,.33-0.32,1.634,1.634,0,0,0,.49.16s-0.13.07,0.16-.16a0.764,0.764,0,0,1,.49-0.17c0.14-.07-0.15-0.33.16-0.32s0.45,0.14.5,0a1.992,1.992,0,0,1,0-.66,0.823,0.823,0,0,1,.49.17c0.01,0.12.09,0.51,0.16,0.16s0.16-.53.16-0.66a1.8,1.8,0,0,0-.32-0.49c-0.05-.07-0.3.16-0.33-0.16a0.668,0.668,0,0,0-.16-0.49c-0.12-.14-0.23-0.24,0-0.33a0.686,0.686,0,0,0,.49-0.32A2.706,2.706,0,0,0,2500.07,1923.74Zm-1.47,7.03c0.02-.11.12-0.39,0.16-0.65a1.36,1.36,0,0,0,0-.49l-0.33-.17,0.17-.32a1.773,1.773,0,0,1,0-.33c0.02-.07.32-0.27,0.49-0.49a2.161,2.161,0,0,1,.49-0.43s-0.04-.1.32-0.17a0.974,0.974,0,0,0,.43-0.23,0.448,0.448,0,0,0,.11-0.65,0.433,0.433,0,0,1,.29-0.15s0.45,0.42.49,0.49a0.805,0.805,0,0,1,.16.32c0.01,0.15.01,0.09,0.16,0.17a0.746,0.746,0,0,1,.2.48s0.18,0.09.13,0.17a0.712,0.712,0,0,0,0,.33,0.446,0.446,0,0,1-.16.32c-0.17.14-.16,0.03-0.19,0.28a0.584,0.584,0,0,0,.19.54,0.234,0.234,0,0,1,.16.33c-0.05.26-.16,0.98-0.16,0.98l-0.3.38-0.36.27a0.686,0.686,0,0,0-.49,0,0.734,0.734,0,0,1-.4.22,0.667,0.667,0,0,0-.31.09,3.523,3.523,0,0,0-.45-0.04,0.3,0.3,0,0,1-.33-0.19,0.614,0.614,0,0,1-.31-0.08,1.512,1.512,0,0,0,.03-0.36,1.675,1.675,0,0,1-.03-0.45A0.211,0.211,0,0,1,2498.6,1930.77Zm-4.45-2.01s0.07-.07.23-0.25a0.8,0.8,0,0,0,.45-0.52c-0.04-.25-0.05-0.36-0.23-0.28a3.622,3.622,0,0,0-.48.3l-0.1-.34a3.638,3.638,0,0,0,.01-0.57c-0.03.01-.06-0.12,0.12-0.17a2.231,2.231,0,0,0,.68-0.24,1.9,1.9,0,0,1,.49-0.17,5.327,5.327,0,0,0,.5-0.33,0.385,0.385,0,0,0,.16.33c0.18,0.14.5,0.21,0.33,0.33s-0.5-.13-0.49.16a1.092,1.092,0,0,0,0,.66c0.12,0.1.24,0.25,0.32,0.16s0.27-.26.33-0.33a0.523,0.523,0,0,1,.33,0,0.4,0.4,0,0,0-.04.29,0.763,0.763,0,0,0,.24.57,0.676,0.676,0,0,0,.29.29,1.586,1.586,0,0,0,.49,0,0.69,0.69,0,0,1,.2.36l0.62-.2-0.01.29-0.16.36,0.33,0.17a1.658,1.658,0,0,1,.01.41,2.322,2.322,0,0,1-.2.69c-0.01.15,0.1,0.08,0.19,0.21,0.06,0.08-.07.18,0,0.32a0.964,0.964,0,0,1,0,.49,1.225,1.225,0,0,1,.35.15c0.35,0.21-.04.03,0.1,0.1l0.79,0.07a0.68,0.68,0,0,0-.26.34c-0.03.18,0.18,0.47-.16,0.32a1.475,1.475,0,0,0-.82.17,0.486,0.486,0,0,1-.33-0.17,0.735,0.735,0,0,1-.32-0.49,1.34,1.34,0,0,0-.33-0.65,0.393,0.393,0,0,0-.25-0.16,1.274,1.274,0,0,1-.4,0,7.573,7.573,0,0,1-.6-0.53,3.088,3.088,0,0,1-.06-0.45,0.587,0.587,0,0,0-.33-0.33,1.459,1.459,0,0,0-.49-0.16c-0.08-.01-0.04-0.06-0.23-0.13a2.619,2.619,0,0,1-.49-0.2,3.117,3.117,0,0,1-.77-0.69Zm3.96,5.12s0.01-.08.02-0.2a2.559,2.559,0,0,0-.02-0.62,1.612,1.612,0,0,1-.03-0.6l0.03-.22a1.032,1.032,0,0,0,.39.56c0.35,0.17.33,0.09,0.5,0.02a3.113,3.113,0,0,1,.36-0.12,0.756,0.756,0,0,1,.42.07,0.289,0.289,0,0,0,.08.13,0.372,0.372,0,0,0,.21.16l-0.15.59a0.292,0.292,0,0,0,.16.06,2.253,2.253,0,0,1,.68.38l-0.03.28a0.338,0.338,0,0,1-.33.16c-0.23.01-.34-0.12-0.33,0.17a2.823,2.823,0,0,0,.11.5,1.521,1.521,0,0,0,.17.41,0.158,0.158,0,0,1-.03.2,0.476,0.476,0,0,0-.28.31c0.01,0.15.19,0.6,0.19,0.7a4.133,4.133,0,0,1-.45.21,0.873,0.873,0,0,1-.53.45,1,1,0,0,0-.3.39l-0.84-.07a0.6,0.6,0,0,1-.33-0.16,2.093,2.093,0,0,1-.16-0.65,2.717,2.717,0,0,1-.17-0.82,1.446,1.446,0,0,1,.31-0.37c0.32-.08.51-0.12,0.51-0.12a2.239,2.239,0,0,1-.33-0.66c0.03-.13.07-0.28,0.07-0.28a0.822,0.822,0,0,0,.14-0.25A3.373,3.373,0,0,0,2498.11,1933.88Zm-2.79,1.14a0.727,0.727,0,0,0,.5-0.16,0.965,0.965,0,0,0,.49-0.49,1.413,1.413,0,0,0,.32-0.49c0-.26.01-0.49,0-0.65v-0.5a1.151,1.151,0,0,1-.05-0.51,1.072,1.072,0,0,0,.05-0.47c-0.01-.09.02-0.25,0-0.43a1.182,1.182,0,0,0-.14-0.44l0.14,0.06a1.669,1.669,0,0,0,.5.49,3.871,3.871,0,0,1,.49,0,2.223,2.223,0,0,1,.4.52,3.2,3.2,0,0,1,.05.59,1.511,1.511,0,0,0,.01.42,0.533,0.533,0,0,1,.06.35,4.561,4.561,0,0,0-.03.57c0,0.11.04,0.61,0.04,0.61l-0.21.37h-0.65a2.7,2.7,0,0,0-.29.04,1.264,1.264,0,0,1-.42.27,2.757,2.757,0,0,0-.38.03,2.28,2.28,0,0,1-.47,0,0.716,0.716,0,0,0-.48.14,0.444,0.444,0,0,1-.25-0.15Zm0.66,3.44a2.59,2.59,0,0,1,.49.32,3.633,3.633,0,0,1,0,.66,4.2,4.2,0,0,1,.49.33,0.57,0.57,0,0,0,.33.32,1.636,1.636,0,0,0,.33.17,3.347,3.347,0,0,1,.65.16,0.43,0.43,0,0,0,.33-0.16,2.782,2.782,0,0,0,.49-0.33,1.288,1.288,0,0,0,.33-0.33,4.7,4.7,0,0,0,.13-0.65l-0.18-.35-0.46-.34,0.01-.39a3.019,3.019,0,0,1-1.11-.19,0.46,0.46,0,0,1-.11-0.25l-0.09-.5-0.13-.46-0.06-.27a1.124,1.124,0,0,0,.2-0.28,1.132,1.132,0,0,1,.65-0.24s-0.08-.14-0.15-0.24a0.606,0.606,0,0,1-.18-0.58l-0.57-.02a0.881,0.881,0,0,0-.69.34,0.932,0.932,0,0,0-.37.01,5.544,5.544,0,0,1-.82,0l-0.49.32a0.638,0.638,0,0,0,.16.33c0.07-.02.04,0.06,0.16,0.16a0.908,0.908,0,0,1,.33.33,1.01,1.01,0,0,0-.33.16,0.314,0.314,0,0,0,0,.33,0.585,0.585,0,0,1,.17.33,1.665,1.665,0,0,1-.33.16c-0.12.04-.18-0.05-0.16,0.17a1.869,1.869,0,0,0,.32.49,1.422,1.422,0,0,1,.33.32A0.448,0.448,0,0,0,2495.98,1938.46Zm3.44-9a1.209,1.209,0,0,0,.49-0.49c-0.05-.14,0-0.16,0-0.16a0.706,0.706,0,0,1,0-.33c0.05-.08.29-0.08,0.32-0.16a0.553,0.553,0,0,1,.17-0.16,0.309,0.309,0,0,1,.33.16,0.429,0.429,0,0,0,.16.33,0.257,0.257,0,0,1,.16.32c-0.07.14,0.02,0.27-.16,0.33a1.3,1.3,0,0,0-.49.33,1.474,1.474,0,0,0-.33.33,1.55,1.55,0,0,1-.33.32h-0.32v0.33l-0.17.49-0.16-.16-0.04-.52,0.2-.63Zm-7.86-1.96a3,3,0,0,1,.33-0.49c0.07-.04.33,0.11,0.33,0a12.016,12.016,0,0,1,1.47,0,0.32,0.32,0,0,1,.33,0,4.84,4.84,0,0,1,0,.66c0,0.1.04,0.42,0.16,0.32s0.49-.32.49-0.32a0.385,0.385,0,0,1,.16.32,0.3,0.3,0,0,1-.16.33,1.2,1.2,0,0,0-.41.32c-0.01.09-.26,0.1-0.08,0.33a1.867,1.867,0,0,0,.49.49,2.3,2.3,0,0,0,.49.27c0.16,0.06.36,0.17,0.49,0.23a4.726,4.726,0,0,1,.49.16,1.474,1.474,0,0,1,.33.33,0.573,0.573,0,0,1,0,.32,1.97,1.97,0,0,0,.16.49,3.8,3.8,0,0,0,0,.49,1.936,1.936,0,0,1-.16.82,0.425,0.425,0,0,1-.33.33,0.928,0.928,0,0,0-.65.16,0.546,0.546,0,0,1-.49.33,3.129,3.129,0,0,1-.49-0.16,1.156,1.156,0,0,1-.49-0.33,2.234,2.234,0,0,0-.5-0.49h-0.65a8.547,8.547,0,0,0-1.15.16c-0.19.08-.34,0.37-0.49,0.16a4.41,4.41,0,0,1-.32-0.65,1.512,1.512,0,0,1-.18-0.73,0.937,0.937,0,0,1,.34-0.74,1.815,1.815,0,0,0,.49-0.65,2.015,2.015,0,0,1,.1-0.59,2.808,2.808,0,0,0,.26-0.3,0.425,0.425,0,0,0-.03-0.59,1.212,1.212,0,0,1-.42-0.53C2491.5,1927.86,2491.56,1927.5,2491.56,1927.5Zm1.31,7.69a4.341,4.341,0,0,1,.33-0.49,2.276,2.276,0,0,1,.49-0.49c0.2-.16.65-0.49,0.65-0.49l0.33-.17a3.63,3.63,0,0,0-.33.49,2.576,2.576,0,0,1-.32.49v0.33a0.322,0.322,0,0,0,.16.33,0.406,0.406,0,0,1,.16.32,1.051,1.051,0,0,0-.32.17,0.592,0.592,0,0,0-.33.16c0.05,0.08-.24.28-0.33,0.16s-0.33-.49-0.33-0.49h-0.16v-0.32Zm-7.04-7.03a2.058,2.058,0,0,0,.99,0,0.275,0.275,0,0,1,.16-0.17h0.98a0.338,0.338,0,0,0,.33.17,1.835,1.835,0,0,0,.82,0c0.08-.11-0.1-0.31.16-0.33s0.45,0.2.65,0.16a1.728,1.728,0,0,0,.66-0.16,6.085,6.085,0,0,1,.65-0.49,2.991,2.991,0,0,0,.55-0.2,3.78,3.78,0,0,0-.22.53,0.416,0.416,0,0,0,0,.49c0.18,0.17.49,0.49,0.49,0.49a3.389,3.389,0,0,1-.16.49,3.189,3.189,0,0,0-.33.32,2.649,2.649,0,0,1-.65.33,0.537,0.537,0,0,1-.66,0,0.653,0.653,0,0,0-.33-0.49,1.885,1.885,0,0,1-.49-0.33s-0.25.13-.32,0.17-0.25.27-.33,0.32a0.588,0.588,0,0,1-.49,0c0-.07-0.07-0.39-0.33-0.32a0.607,0.607,0,0,0-.49.16c-0.14.18-.25,0.1-0.49,0.33a1.712,1.712,0,0,1-.49.33,2.205,2.205,0,0,1-.19.25,2.788,2.788,0,0,1-.32.26,0.224,0.224,0,0,1-.15.14,5.183,5.183,0,0,1-.81,0c0.07,0.02-.01-0.12,0-0.33a0.606,0.606,0,0,1,.32-0.49c0.28-.27.49-0.21,0.49-0.49a1.308,1.308,0,0,1,0-.49A1.949,1.949,0,0,0,2485.83,1928.16Zm1.11,5.97-0.37-.76s-0.06-.12-0.25-0.47a1.18,1.18,0,0,1-.14-0.73,1.621,1.621,0,0,0-.18-0.42,2.1,2.1,0,0,1-.17-0.49,3.237,3.237,0,0,0,0-.65l0.66-.65a2.519,2.519,0,0,0,.33-0.17c0.25-.17.69-0.52,0.76-0.55a0.971,0.971,0,0,1,.38-0.1,0.434,0.434,0,0,1,.35.35h0.42l0.34-.33,0.36-.19,0.32,0.24a1.646,1.646,0,0,1,.34.21,1.339,1.339,0,0,1,.16.37,0.237,0.237,0,0,0,.29.11,3.1,3.1,0,0,0,.69-0.27c0.14-.08.37-0.22,0.37-0.22,0,0.21-.04.55-0.04,0.55a3.8,3.8,0,0,1-.33.49,2.011,2.011,0,0,0-.49.65,0.728,0.728,0,0,0,0,.43,1.852,1.852,0,0,0,.17.55c0.06,0.11-.03-0.02.08,0.2s0.24,0.45.24,0.45a0.507,0.507,0,0,0-.49,0c-0.15.17-.33,0.35-0.49,0.5a5.265,5.265,0,0,1-.49.32,1.19,1.19,0,0,0-.49.49c0.05,0.07-.1.34-0.49,0.33s-0.82,0-.82,0l-0.16-.33-0.17.33-0.36-.08Zm-8.97-.97a1.8,1.8,0,0,0,.66-0.43,11.757,11.757,0,0,1,.99-1.14c0.15-.12.47-0.48,0.65-0.65a2.157,2.157,0,0,1,.49-0.33l0.33-.16s0.57-.57.65-0.66a4.646,4.646,0,0,1,.49-0.33c0.12-.07.26-0.12,0.33-0.16a4.694,4.694,0,0,1,0-.65,1.128,1.128,0,0,0,.33-0.33,3.615,3.615,0,0,1,.65-0.33,0.856,0.856,0,0,1,.49-0.32c0.22,0.01.57,0.2,0.66,0a2.756,2.756,0,0,1,1.31,0l-0.17.49a3.084,3.084,0,0,1,.02.6,1.411,1.411,0,0,1-.08.73,2.923,2.923,0,0,1-.5.37,2.241,2.241,0,0,0-.25.33,0.817,0.817,0,0,1-.01.38c-0.23.04-.81,0.01-0.98,0.04a0.915,0.915,0,0,0-.49,0,2.083,2.083,0,0,1-.32.49,2.726,2.726,0,0,1-.3.15,0.266,0.266,0,0,0-.16.21,0.575,0.575,0,0,1,.36.37,5.236,5.236,0,0,1-.61.37,1.68,1.68,0,0,1-.53.2c-0.31.06-.8-0.14-0.98-0.09a0.6,0.6,0,0,0-.4.1,2.639,2.639,0,0,0-.35.29,0.311,0.311,0,0,0-.14.2,4.128,4.128,0,0,1-.11.56c-0.12.17-.28,0.27-0.43,0.5-0.12.2,0,.54-0.12,0.74a1.107,1.107,0,0,1-.33.49,5.867,5.867,0,0,1-.92-0.04s-0.31-.08-0.22-0.21a1.562,1.562,0,0,0,.16-0.29,0.519,0.519,0,0,1-.16-0.12,0.848,0.848,0,0,1-.24-0.33,0.509,0.509,0,0,1-.05-0.51A3.554,3.554,0,0,0,2477.97,1933.16Zm2.29,2.63a5.227,5.227,0,0,0,.5-0.44c0.07-.09.49-0.49,0.49-0.49h0.33l0.33,0.33a1.3,1.3,0,0,0,0,.65,1.487,1.487,0,0,0,.49.16,2.273,2.273,0,0,0,.65-0.32h-0.01a0.566,0.566,0,0,0,.18-0.17,0.824,0.824,0,0,1,.49-0.32,0.84,0.84,0,1,1,.16,0,1.259,1.259,0,0,0,.65,0,3.426,3.426,0,0,0,.33-0.33,1.467,1.467,0,0,0,.17-0.16s0.41-.15.49-0.17a0.4,0.4,0,0,1,.32.17c0.13,0.13.19,0.22,0.33,0.16s0.38-.28.49-0.33a1.3,1.3,0,0,0,.33-0.39l-0.28-.51a1.8,1.8,0,0,1-.21-0.4,3.412,3.412,0,0,1-.17-0.33c-0.03-.31-0.12-0.16-0.16-0.49a0.886,0.886,0,0,0,0-.33,3.131,3.131,0,0,0-.27-0.54,0.815,0.815,0,0,1-.06-0.44,3.847,3.847,0,0,0,0-.49h-0.75l-0.19-.04-1.08.04a0.21,0.21,0,0,0-.27,0,2.771,2.771,0,0,1-.32.49,1.024,1.024,0,0,0-.5.33c0.06,0.07.6,0.34,0.33,0.49a6.237,6.237,0,0,1-.65.32,1.252,1.252,0,0,1-.66.17,2.437,2.437,0,0,0-.47-0.11l-0.58.03s-0.13.12-.24,0.2a1.036,1.036,0,0,0-.34.37,2.508,2.508,0,0,1-.17.65,1.676,1.676,0,0,0-.32.33,1.006,1.006,0,0,0-.11.54,1.034,1.034,0,0,0-.02.3,5.336,5.336,0,0,0,.45.47,0.9,0.9,0,0,0,0,.49A0.208,0.208,0,0,0,2480.26,1935.79Zm-6.37.05a2,2,0,0,1-.33-0.65,0.415,0.415,0,0,0,.49-0.17,0.855,0.855,0,0,1,.33-0.49,6.688,6.688,0,0,0,.65.33s0.06,0.39.33,0.16a2.59,2.59,0,0,1,.49-0.32c0.18-.12.36-0.4,0.49-0.49a3.193,3.193,0,0,0,.33-0.33,0.431,0.431,0,0,0,.33-0.16,0.526,0.526,0,0,1,.16-0.49,1.5,1.5,0,0,1,.66-0.17c-0.04-.06.17,0.02,0.16,0.17a1.979,1.979,0,0,0-.33.65,1.379,1.379,0,0,0,.17.49,0.78,0.78,0,0,1,.32.33c-0.02.16-.24,0.15-0.16,0.32a0.989,0.989,0,0,0,.65.17l0.53-.02,0.29-.47a0.9,0.9,0,0,0,.17.16,1,1,0,0,1,.32.33,1.607,1.607,0,0,0,0,.49c0.05,0.03.07,0.18,0.17,0.16s0.14-.09.17,0.04a0.476,0.476,0,0,1-.01.45,1.176,1.176,0,0,0,.16.49c-0.04.19,0.17,0.43,0,.49a0.625,0.625,0,0,0-.32.17c-0.06.08-.27,0.22-0.17,0.32a1,1,0,0,1,.33.33,4.834,4.834,0,0,1-.65-0.33l-0.5-.16-0.32-.33a2.8,2.8,0,0,0-.82-0.49c-0.14-.09-0.27-0.12-0.33,0a1.235,1.235,0,0,1-.33.17,1.981,1.981,0,0,1-.81,0,0.394,0.394,0,0,1,0,.32,1.349,1.349,0,0,1-.5-0.32v0.32a0.292,0.292,0,0,1-.16.17,0.63,0.63,0,0,1-.65,0,1.032,1.032,0,0,0-.33-0.33c-0.2-.11-0.23-0.32-0.33-0.33a0.666,0.666,0,0,0-.16.17c-0.12.05-.35,0.02-0.33,0.16s0.1,0.27,0,.33a0.538,0.538,0,0,1-.33-0.33,1.151,1.151,0,0,0-.16-0.49c-0.14-.21-0.14-0.26,0-0.33A2.975,2.975,0,0,0,2473.89,1935.84Zm5.89,5.07,0.82-.65,0.65-.17a3.1,3.1,0,0,1,.33-0.32,0.875,0.875,0,0,1,.33-0.33,0.9,0.9,0,0,0,.49-0.17,0.709,0.709,0,0,0,.49-0.32,3.364,3.364,0,0,1,0-1.15c0.11-.02.35,0.04,0.33-0.16a1.15,1.15,0,0,1,.16-0.49,1,1,0,0,1,.33-0.16l0.32-.66a1.33,1.33,0,0,0,.17.16,5.768,5.768,0,0,1,.65.82,0.5,0.5,0,0,0,.49.33,2.774,2.774,0,0,0,.66-0.33,2.907,2.907,0,0,0,.82.17,4.712,4.712,0,0,0,.65-0.49l0.31,0.15a2.8,2.8,0,0,0,.23.74c0.05,0.16-.45.09-0.45,0.09a2.54,2.54,0,0,0-.92.11,4.543,4.543,0,0,1-1.16.21c-0.21.01-.16,0.11-0.3,0.33a3.545,3.545,0,0,0-.39.84,1.108,1.108,0,0,1-.21.42c-0.18.23-.3,0.25-0.38,0.38a0.366,0.366,0,0,1-.37.17,0.658,0.658,0,0,0-.29-0.01,3.438,3.438,0,0,0,.14.45,0.687,0.687,0,0,1,.03.53c-0.1.15-.32,0.07-0.38,0.2s-0.09.1-.2,0.29a1.137,1.137,0,0,1-.57.33,0.769,0.769,0,0,0-.08.57,1.284,1.284,0,0,0,.4.1,2.981,2.981,0,0,1-.16.64,1.632,1.632,0,0,1-.65,0,1.343,1.343,0,0,1-.49-0.49,0.15,0.15,0,0,1,0-.17,1.228,1.228,0,0,0-.16-0.49l0.16-.33,0.33-.32-0.17-.33s-0.26.4-.32,0.16-0.17-.49-0.17-0.49v-0.32l0.17-.33h-0.17a0.242,0.242,0,0,0-.33,0,1.307,1.307,0,0,1-.49.49,1.285,1.285,0,0,0-.49.16Zm3.11,3.6h-0.49l0.32-.49v-0.49s0.07-.16.11-0.29c0.02-.06.06-0.37,0.06-0.37s-0.45.03-.44-0.13a0.68,0.68,0,0,1,.11-0.52,1.267,1.267,0,0,0,.49-0.17,1.521,1.521,0,0,1,.33-0.49,2.558,2.558,0,0,0,.33-0.16,0.668,0.668,0,0,0,0-.49,2.8,2.8,0,0,1-.17-0.49h0.49l0.33-.33,0.33-.32,0.16-.5s0.27-.53.33-0.65a0.515,0.515,0,0,1,.33-0.33,3.243,3.243,0,0,0,.98-0.16,5.527,5.527,0,0,1,.98-0.16h0.49a0.767,0.767,0,0,1,.49.16,3.312,3.312,0,0,0,.66.49l0.32-.33h0.33a0.92,0.92,0,0,0,.16.66,1.23,1.23,0,0,1,.5.16,2.539,2.539,0,0,0-.05.54c-0.01.18-.1,0.24,0.25,0.24a6,6,0,0,1,.63.04s-0.25.33-.34,0.49-0.25.53-.33,0.65a0.94,0.94,0,0,0-.16.49,0.22,0.22,0,0,1-.17.17s-0.09.06-.33-0.33a2.307,2.307,0,0,0-.32-0.65,2.608,2.608,0,0,0-.49-0.33,0.533,0.533,0,0,0-.49-0.33,1.412,1.412,0,0,1-.66-0.16,2.01,2.01,0,0,1-.49.16,0.758,0.758,0,0,0-.49.17,0.513,0.513,0,0,0-.33.32c0.02,0.09-.1.08-0.16,0.17a2.5,2.5,0,0,1-.66.16s-0.11.24-.16,0.33c-0.03.05-.05,0-0.05,0a0.6,0.6,0,0,1,.05.16,0.645,0.645,0,0,1-.16.65c-0.17.24-.41,0.35-0.49,0.49s-0.16-.07-0.17.17,0.09,0.47-.16.49-0.37.16-.33,0.33a0.384,0.384,0,0,1,0,.32,0.651,0.651,0,0,1-.16.17,0.3,0.3,0,0,0,0,.32,1.041,1.041,0,0,1,.49.49,2.2,2.2,0,0,1-.82-0.16,0.589,0.589,0,0,0-.33.16,0.633,0.633,0,0,1-.49,0Zm4.58-8.83a1.9,1.9,0,0,0,.65-0.17,2.667,2.667,0,0,0,.66-0.49c0.16-.25.19,0.01,0.49,0a0.831,0.831,0,0,0,.65,0,0.475,0.475,0,0,1,.33-0.16s0.6,0.42.66,0.49a1.62,1.62,0,0,0,.49.33,4.007,4.007,0,0,1,.49.16l-0.17.49a1.8,1.8,0,0,0-.31-0.31,4.569,4.569,0,0,0-.79.14c-0.29.01-.34-0.02-0.47,0.2a1.6,1.6,0,0,1-.23.3l-0.42-.11-0.18-.1-0.64.07a1.351,1.351,0,0,1-.3.25c-0.14.08-.48,0.25-0.48,0.25l-0.1.13-0.33-.16a0.429,0.429,0,0,1,0-.5,0.866,0.866,0,0,0,.33-0.49A1.264,1.264,0,0,1,2487.47,1935.68Zm5.24,0.49a1.019,1.019,0,0,0-.33.65c0.14,0.19.23,0.19,0.33,0.33a1.474,1.474,0,0,1,.16.49,1.04,1.04,0,0,0,.16.49,0.3,0.3,0,0,1,.17.16,1.69,1.69,0,0,0-.82.33,0.828,0.828,0,0,1-.33.49,1.9,1.9,0,0,0-.49.33,4.105,4.105,0,0,1-.33.49c-0.08-.03-0.86-0.04-0.86-0.04v-0.43a1.771,1.771,0,0,1,.04-0.39,2.453,2.453,0,0,1-.49-0.12,3.267,3.267,0,0,1-.16-0.61,0.7,0.7,0,0,0-.33-0.05,1.106,1.106,0,0,1-.32.33,2.422,2.422,0,0,1-.58-0.4,1.466,1.466,0,0,0-.21-0.19l-0.31-.12-0.24-.76a2.833,2.833,0,0,1,.52-0.33,2.041,2.041,0,0,1,.49-0.33,1.273,1.273,0,0,1,.65,0,0.965,0.965,0,0,0,.49.17,1.76,1.76,0,0,0,.33-0.49s0.29,0.01.33,0c0.12-.05.82-0.17,0.82-0.17l0.32,0.33,0.17-.49,0.16-.16,0.66,0.32S2492.77,1935.98,2492.71,1936.17Zm-23.08,3.92a0.533,0.533,0,0,1,0-.32,1.626,1.626,0,0,1,.66-0.5s0.3,0.61.49,0.5a1.153,1.153,0,0,0,.33-0.5,0.444,0.444,0,0,0,0-.32l0.32-.49a0.14,0.14,0,0,1,0-.17c0.06-.1-0.06-0.2.33-0.32s0.52,0.12.65,0a3.4,3.4,0,0,0,.33-0.33,0.7,0.7,0,0,1,.66,0c0.11,0.11.42,0.31,0.49,0.16s0.11-.07.16,0a3.546,3.546,0,0,1,.16.66,2.093,2.093,0,0,0,.33.49c0.16,0.2.1,0.5,0.33,0.49a0.368,0.368,0,0,1,.33.16,1.854,1.854,0,0,1-.05.37c-0.03.09,0.06,0.15-.3,0.13a1.047,1.047,0,0,0-.57.01,2.083,2.083,0,0,1-.39.47,0.607,0.607,0,0,0-.38.36,1.421,1.421,0,0,1,.05.3,0.61,0.61,0,0,0-.17.36,0.572,0.572,0,0,0,.17.29,2.478,2.478,0,0,1,0,.82,0.792,0.792,0,0,1-.65-0.17c-0.14-.16-0.3-0.28-0.33-0.16a2.475,2.475,0,0,0-.66.33,3,3,0,0,0-.49.82,3.319,3.319,0,0,0-.16-0.49,1.176,1.176,0,0,1-.16-0.5c0.04-.1-0.17-0.16-0.17-0.16l-0.16-.16a3.012,3.012,0,0,1,.16-0.33,0.7,0.7,0,0,1,.33-0.33c0.13,0.01.09,0.01,0.33-.16s0.29-.11.32-0.33a0.817,0.817,0,0,0-.16-0.49,0.3,0.3,0,0,0-.33,0c-0.12.12-.32,0.33-0.32,0.33l-0.33-.33-0.17-.16a0.733,0.733,0,0,0-.32-0.16,0.29,0.29,0,0,1-.17.16l-0.32.16s-0.22-.07-0.17-0.16A0.592,0.592,0,0,0,2469.63,1940.09Zm6.55-.32a1.6,1.6,0,0,0,.65-0.33,0.636,0.636,0,0,1,.33-0.49,1.266,1.266,0,0,1,.49.32c0.03,0.1.14,0.36,0.17,0.5a2.006,2.006,0,0,0,0,.49c0.05,0.1.25,0.37,0,.49a3.025,3.025,0,0,1-.5.16,0.189,0.189,0,0,1-.16.16c-0.13.01-.46,0.42-0.33,0.49a2.867,2.867,0,0,0,.49.17l0.5-.17a1.565,1.565,0,0,0,.16.17,0.27,0.27,0,0,0,.33,0c0.06-.09.01-0.44,0.16-0.33a1,1,0,0,1,.33.33,1.638,1.638,0,0,0-.33.49c-0.01.19-.04,0.24,0.16,0.32s0.27-.13.33,0.17a1.325,1.325,0,0,0,0,.49,1.514,1.514,0,0,0,.33.49,0.277,0.277,0,0,1,.16.16,0.846,0.846,0,0,1-.33.49,2.289,2.289,0,0,1-.27.14,0.332,0.332,0,0,1-.38-0.08c-0.07-.09-0.13-0.24-0.21-0.2a4.958,4.958,0,0,0-.44.31,7.628,7.628,0,0,0-.82.16c-0.18.06-.17-0.01-0.28-0.16a1.726,1.726,0,0,0-.21-0.33,1.705,1.705,0,0,1-.33.33,0.781,0.781,0,0,1-.33-0.17,0.608,0.608,0,0,1-.16-0.32,2.4,2.4,0,0,1-.33-0.66,1.158,1.158,0,0,0-.16-0.82,0.554,0.554,0,0,0-.82-0.49s-0.18-.28-0.16-0.04a3.918,3.918,0,0,0,.16.7s0.27,0.03.18,0.09a1.114,1.114,0,0,1-.67.4,4.61,4.61,0,0,1-.33-0.49v-0.82a0.381,0.381,0,0,1-.16-0.33c0.05-.14.18-0.42,0.18-0.42a0.251,0.251,0,0,1,.08-0.41,1.42,1.42,0,0,0,.4-0.31,0.992,0.992,0,0,1,.36-0.35c0.1,0.02.61,0.02,0.61,0.02l0.11-.05,0.06-.44h0.65Zm-8.18,1.47c0.1-.01.3,0.08,0.32-0.17a3.367,3.367,0,0,0-.16-0.49c0.07-.03-0.22-0.09,0-0.32a1.923,1.923,0,0,1,.49-0.49,0.726,0.726,0,0,1,.33.16,0.815,0.815,0,0,0,.16.49c0.05,0.1.03,0.29,0.17,0.16a0.463,0.463,0,0,1,.3-0.13,0.424,0.424,0,0,0,.19.13,0.789,0.789,0,0,0,.4-0.21l0.12-.12a1.207,1.207,0,0,1,.46.33,0.621,0.621,0,0,0,.33.33,1.275,1.275,0,0,0,.37-0.36,0.548,0.548,0,0,1,.37.19,0.438,0.438,0,0,1,.07.33,0.822,0.822,0,0,1-.39.37,3.045,3.045,0,0,0-.48.29c-0.11.17-.19,0.31-0.19,0.31a0.258,0.258,0,0,1-.12.19c-0.1.04-.08-0.01-0.2-0.04a0.614,0.614,0,0,1-.25-0.14,0.515,0.515,0,0,1-.17.17c-0.18.16-.34-0.06-0.32,0.16s-0.11.25,0,.33a0.548,0.548,0,0,1,.32.33,0.391,0.391,0,0,1,0,.32,0.619,0.619,0,0,0-.45-0.18c-0.25.03-.17,0.06-0.36-0.14a1.69,1.69,0,0,1-.33-0.5c-0.06-.12-0.2-0.35-0.2-0.35a2.028,2.028,0,0,1-.37-0.09,1.425,1.425,0,0,1-.46-0.47A0.492,0.492,0,0,1,2468,1941.24Zm1.96,2.78a1.516,1.516,0,0,1,.82.16,3.267,3.267,0,0,1,.33.33,0.373,0.373,0,0,1,0,.49,5.727,5.727,0,0,1-.82.49s-0.6.04-.49-0.17,0.35-.13.32-0.32a2.692,2.692,0,0,0-.16-0.49s-0.09-.23-0.16-0.17a0.466,0.466,0,0,1-.33.33,0.743,0.743,0,0,0-.49.16,2.7,2.7,0,0,1-.49.66c-0.08,0-.48.65-0.49,0.32a3.066,3.066,0,0,1,.16-0.65,0.909,0.909,0,0,0,0-.65,3.22,3.22,0,0,0-.49-0.49,2.349,2.349,0,0,1-.49-0.49,2.337,2.337,0,0,0,.33-0.49v-0.33s0.24,0.26.32,0.33a2.94,2.94,0,0,1,.17.32,0.913,0.913,0,0,1,.32.49c-0.06.09,0.15,0.06,0.17,0.17s0.23,0.25.32,0.16,0.47-.01.33-0.33a2.091,2.091,0,0,1-.33-0.49,0.4,0.4,0,0,0-.16-0.32,0.411,0.411,0,0,0-.33-0.33,0.369,0.369,0,0,1-.32-0.17,1.408,1.408,0,0,0-.33-0.16,1.408,1.408,0,0,1-.33-0.16,0.105,0.105,0,0,1-.16,0,0.844,0.844,0,0,1-.33-0.33,1.759,1.759,0,0,0,.16-0.49,3.384,3.384,0,0,1,.17-0.49l0.33,0.16,0.49,0.17a0.554,0.554,0,0,0,0,.49,1.393,1.393,0,0,0,.32.32l0.33,0.12a0.18,0.18,0,0,1,.16.05,1.956,1.956,0,0,1,.21.47,1.864,1.864,0,0,0,.45.51,1.759,1.759,0,0,1,.33,0,2.321,2.321,0,0,1,.32.16,0.145,0.145,0,0,0,0,.17A4.673,4.673,0,0,1,2469.96,1944.02Zm1.8,3.1a0.651,0.651,0,0,1-.16.49,1.179,1.179,0,0,0-.49.33c-0.05.19-.17,0.49-0.17,0.49a1.324,1.324,0,0,0,.66,0,1.87,1.87,0,0,0,.49-0.16c0.15-.08.24,0.1,0.32,0.16,0.05,0.03-.08.05,0.33,0.16a1.06,1.06,0,0,0,.82.17,0.863,0.863,0,0,1,.49-0.38,0.939,0.939,0,0,0,.55-0.14,2.187,2.187,0,0,0,.27-0.45s-0.07-.34-0.08-0.46a4.442,4.442,0,0,0-.13-0.55,1.424,1.424,0,0,0-.27-0.49c-0.06-.09-0.18-0.31-0.18-0.31l0.41-.39s0.16-.17.36-0.36a1.378,1.378,0,0,0,.27-0.43c0.08-.15.27-0.46,0.27-0.46l0.17-.32-0.17-.33a0.844,0.844,0,0,1-.16-0.33,2.568,2.568,0,0,0,0-.49,0.518,0.518,0,0,0-.16-0.33,0.939,0.939,0,0,0-.33-0.49,0.957,0.957,0,0,1-.49,0,0.475,0.475,0,0,0-.17-0.16l0.17,0.82s0.3-.02.16,0.14a1.6,1.6,0,0,1-.38.27c-0.09.06-.17,0.16-0.23,0.11a3.13,3.13,0,0,1-.37-0.52,3.042,3.042,0,0,1-.43-0.04,0.343,0.343,0,0,1-.22-0.13c-0.11-.1-0.14-0.27-0.26-0.21a2.035,2.035,0,0,1-.38.17,0.545,0.545,0,0,0-.37.25c-0.06.14-.06,0.02-0.25,0.36a1.114,1.114,0,0,0-.22.42,1.411,1.411,0,0,0,.33.49,1.072,1.072,0,0,0,.33.32c0.15,0.09.23,0.16,0.16,0.33a1.346,1.346,0,0,1-.16.49c-0.13.11-.82,0.49-0.82,0.49a1.39,1.39,0,0,0,.82,0,1.014,1.014,0,0,1,.49-0.33,0.617,0.617,0,0,1-.17.33,0.768,0.768,0,0,0-.32.33,2.045,2.045,0,0,1-.17.49C2471.87,1946.61,2471.76,1947.12,2471.76,1947.12Zm-1.31-.49a0.446,0.446,0,0,1,.16-0.32,0.812,0.812,0,0,1,.33-0.17h0.49v0.33s-0.25.26-.32,0.33a2.759,2.759,0,0,1-.5.16Zm-1.31.17a0.537,0.537,0,0,1,.17-0.49,2.339,2.339,0,0,1,.49-0.33,0.164,0.164,0,0,0,.16,0c0.07-.05.1,0.04,0.16,0.16a0.809,0.809,0,0,1,.17.49,4.689,4.689,0,0,1-.17.49,0.565,0.565,0,0,1-.16.33,0.82,0.82,0,0,0-.33.33,1.714,1.714,0,0,1-.49.32,0.49,0.49,0,0,1-.16-0.32,2.7,2.7,0,0,0,.16-0.49v-0.49Zm7.37,3.92a1.2,1.2,0,0,1,0,.82,0.438,0.438,0,0,0-.33.32,0.872,0.872,0,0,1,0,.49c-0.05.23,0.06,0.39-.17,0.49a1.333,1.333,0,0,1-.78-0.2,1.727,1.727,0,0,1-.03-0.45c-0.01-.17,0-0.82,0-0.82l-0.79-.36a0.2,0.2,0,0,0-.04-0.18,1.325,1.325,0,0,0-.39-0.31l-0.42.04,0.16-.49-0.58-.68-0.15-.45-0.25-.35,0.33,0.17,0.42,0.03s0.27-.25.4-0.36a2.125,2.125,0,0,0,.65-0.16,0.834,0.834,0,0,0,.33-0.66,9.669,9.669,0,0,0-.33-1.14,2.11,2.11,0,0,1-.33-0.49s0.24-.26.33-0.33a2.063,2.063,0,0,0,.49-0.49,4.678,4.678,0,0,1,.33-0.49,3.45,3.45,0,0,0,.16-0.33l0.17-.32a1.417,1.417,0,0,0,.33.43,0.306,0.306,0,0,0,.23.03,3.75,3.75,0,0,0,.26-0.3l0.32,0.5a7.38,7.38,0,0,1,.99-0.17,2.928,2.928,0,0,0,.49-0.33,0.916,0.916,0,0,0,.32.33,0.527,0.527,0,0,1,.3-0.04,4.12,4.12,0,0,1-.46.69,0.87,0.87,0,0,0-.33.33,1.659,1.659,0,0,1-.32.49,1.759,1.759,0,0,1,0,.33,1.874,1.874,0,0,0-.5.81c-0.01.23-.12,0.3-0.16,0.66a8.065,8.065,0,0,0-.33.98,1.092,1.092,0,0,1-.16.49C2476.63,1949.47,2476.51,1950.72,2476.51,1950.72Zm-6.39,2.94c-0.05-.03-0.1-0.55-0.16-0.65-0.04-.06-0.33-0.33-0.33-0.33s-0.07-.22.17-0.16l0.65,0.16a0.678,0.678,0,0,1,0-.49,1.461,1.461,0,0,0,.33-0.33,2.6,2.6,0,0,0,0-.49,5.25,5.25,0,0,1-.33-0.49,0.6,0.6,0,0,0-.33-0.32,1.8,1.8,0,0,1-.32-0.33,1.114,1.114,0,0,0,.32-0.33,0.815,0.815,0,0,0,0-.49,2.191,2.191,0,0,0-.16-0.16v-0.33l-0.16-.33a0.513,0.513,0,0,0,.32,0,2.285,2.285,0,0,1,.49-0.16c0.11,0.01.33,0,.33,0l0.41,0.04,0.51-.11a0.532,0.532,0,0,1,.39-0.09,1.486,1.486,0,0,0,.49.32,3.6,3.6,0,0,1,.22.3,2.737,2.737,0,0,1,.11.36,1.363,1.363,0,0,0,.33.49,3.676,3.676,0,0,1,.32.33l-0.16.49a0.815,0.815,0,0,1,.49,0,3.341,3.341,0,0,1,.33.32,0.293,0.293,0,0,0,.24.23,1.179,1.179,0,0,0,.26.12l0.32,0.14v0.66a2.808,2.808,0,0,0,.03.61,2.231,2.231,0,0,1-.52-0.12,0.356,0.356,0,0,0-.33.16c0.01,0.08,0,.33,0,0.33a1.091,1.091,0,0,1,.33.16,3.591,3.591,0,0,1,0,.66h-0.17c-0.15-.01-0.12-0.04-0.33.16a3.777,3.777,0,0,1-.49.49,0.215,0.215,0,0,1-.32,0l-0.33.16-0.33.33a0.706,0.706,0,0,1-.33,0,2.311,2.311,0,0,1,.33-0.65h0a3.153,3.153,0,0,0,.17-0.33c0.01-.08.16-0.49,0.16-0.49v-0.66a0.745,0.745,0,0,1-.16-0.32,1.476,1.476,0,0,1,0-.49h-0.66v-0.49h0.49a0.308,0.308,0,0,0,.17.16c0.11,0.04.16-.16,0.16-0.16l0.16-.33a0.279,0.279,0,0,1-.32-0.16,0.725,0.725,0,0,0-.33-0.33l-0.33.16a4.764,4.764,0,0,0-.16.82,0.633,0.633,0,0,1-.17.33s-0.24-.07-0.16.16,0.13,0.41.16,0.49-0.19.14,0,.33a4.976,4.976,0,0,1,.17.49,0.4,0.4,0,0,1,.32.16,0.348,0.348,0,0,1,0,.33,0.97,0.97,0,0,1-.65.16,0.852,0.852,0,0,1-.16-0.32s-0.04-.4-0.17-0.33a5.027,5.027,0,0,1-.82.16A1.992,1.992,0,0,1,2470.12,1953.66Zm-7.44-2.57,0.66-.16,0.16-.33,0.33-.32-0.66-.5h0.49a1.018,1.018,0,0,0,.49.33c0.09-.07.49-0.33,0.49-0.33l0.33-.65,0.33-.49a0.81,0.81,0,0,1,.33.33,1.452,1.452,0,0,1-.17.65,0.663,0.663,0,0,1-.16.49,2.975,2.975,0,0,1-.49.33,0.657,0.657,0,0,0-.49.16l-0.49.49a0.579,0.579,0,0,1-.33.17c-0.25.06-.15,0.01-0.16,0.16a0.519,0.519,0,0,0,.16.33,0.76,0.76,0,0,0-.49.16,1.967,1.967,0,0,1-.17.65l0.33,0.17-0.33.32h-0.32l-0.33-.32,0.33-.49,0.16-.33-0.16-.49Z" transform="translate(-2462.19 -1861.12)"/>
</svg>
