<?xml version="1.0" encoding="UTF-8"?>
<svg id="_レイヤー_2" data-name="レイヤー 2" xmlns="http://www.w3.org/2000/svg" xmlns:xlink="http://www.w3.org/1999/xlink" viewBox="0 0 1164.53 261.96">
  <defs>
    <style>
      .cls-1 {
        fill: #c0ab03;
      }

      .cls-2 {
        fill: url(#_新規グラデーションスウォッチ_10-2);
      }

      .cls-3 {
        fill: url(#_新規グラデーションスウォッチ_10);
      }
    </style>
    <linearGradient id="_新規グラデーションスウォッチ_10" data-name="新規グラデーションスウォッチ 10" x1="1036.59" y1="139.8" x2="1110.92" y2="139.8" gradientUnits="userSpaceOnUse">
      <stop offset="0" stop-color="#c0ab03"/>
      <stop offset="1" stop-color="#e6e1bd"/>
    </linearGradient>
    <linearGradient id="_新規グラデーションスウォッチ_10-2" data-name="新規グラデーションスウォッチ 10" x1="467.45" y1="77.3" x2="399.74" y2="77.3" xlink:href="#_新規グラデーションスウォッチ_10"/>
  </defs>
  <g id="_14" data-name="14">
    <g>
      <path class="cls-1" d="M476.98,168.05c-36.93-18.66-75.62-34.01-115.78-43.98-20.03-5.12-40.37-9.02-60.84-11.86-20.46-2.92-41.08-4.8-61.74-5.44-41.29-1.3-82.77,2-123.14,10.7-20.2,4.24-40.14,9.82-59.52,16.99-9.69,3.58-19.23,7.55-28.58,11.97-9.35,4.37-18.57,9.13-27.24,14.75l-.14-.19c17.17-11.65,36.1-20.46,55.41-27.96,19.35-7.46,39.3-13.4,59.56-17.87,20.29-4.34,40.85-7.43,61.54-9.09,20.68-1.62,41.46-1.96,62.17-1.16,20.72,.77,41.39,2.77,61.88,5.82,20.51,2.97,40.87,6.98,60.92,12.23,40.17,10.28,78.81,25.94,115.6,44.88l-.11,.21Z"/>
      <path class="cls-1" d="M1062.51,181.6c-7.69,7.86-16.58,14.39-25.73,20.41-9.18,6-18.78,11.34-28.63,16.16-19.71,9.62-40.36,17.26-61.46,23.22-42.23,11.99-86,17.8-129.78,19.83-21.91,1.1-43.86,.84-65.77,.11l-16.43-.73-16.41-1.12c-10.94-.66-21.88-1.76-32.76-3.26-21.73-3.13-43.26-8.12-63.99-15.47-10.38-3.61-20.49-7.96-30.48-12.5-9.99-4.54-19.78-9.51-29.37-14.83l.11-.21c39.4,19.1,80.68,34.63,123.99,41.27,10.81,1.6,21.67,2.92,32.61,3.56l16.38,1.16,16.4,.77c21.88,.78,43.79,1.1,65.67,.06,43.72-1.87,87.44-7.52,129.64-19.33,21.09-5.87,41.74-13.43,61.45-22.96,9.85-4.77,19.45-10.07,28.64-16.03,9.15-5.98,18.06-12.48,25.74-20.27l.18,.16Z"/>
    </g>
  </g>
  <g id="_13-hane" data-name="13-hane">
    <path class="cls-3" d="M1095.78,90.73s0,.01,0,.02v.03c.2,.46,.4,1,.58,1.52,.18,.52,.35,1.05,.51,1.58,.32,1.06,.62,2.13,.88,3.21,.52,2.11,.92,4.24,1.23,6.38-1.1,.84-2.36,2.16-3.69,4.24,0,0,1.92-1.05,3.43-.57,0,0-3.94,1.47-5.39,3.99,0,0-5.61,9.38-5.79,11.91,0,0,3.4-2.48,5.82-1.33,0,0-4.19,.94-7.22,4.02,0,0-6.88,12.25-11.15,16.27,0,0,5.95-1.66,7.95-3.05,0,0-4.77,4.24-9.03,5.82,0,0-3.35,1.46-7.53,6.66,0,0-8.76,9.64-13.92,9.8,0,0,5.08,2.16,10.98-.98,0,0-3.73,3.94-9.79,3.77,0,0-3.18-.14-6.29,1.6-1.68,.94-3.35,2.44-4.47,4.8,0,0,4.52,2.4,8.49,1.23-.56,.17-5.23,1.51-10.11,.6,0,0-3.55,4.72-4.69,9.78,0,0,14.73,13.76,24.13,2.37,0,0-.55,3.16-4.5,6.08,0,0,5.07-1.78,8.23-1.36,0,0,16.04,2.82,17.62-9.3,0,0,.9,2.9-.28,6.39,0,0,9.11-10.92,13.34-14.01,0,0,10.78-6.22,5.87-20.7,.14,.19,3.84,5.27,3.43,9.76,0,0,13.2-16.18,.67-30.35,0,0,3.18,2.27,4.53,4.63,0,0,2.95-9.71-.09-15.94,0,0-1.03-2.36-4.15-5.62,0,0,3.08,1.24,4.64,4.07,0,0-2.02-15.18-6.95-15.94,.53,4.53,.62,9.1,.25,13.62-.37,4.54-1.21,9.04-2.51,13.38-1.31,4.34-3.07,8.54-5.25,12.49-1.1,1.97-2.28,3.9-3.56,5.75-1.29,1.84-2.65,3.64-4.1,5.36-1.46,1.71-2.97,3.38-4.57,4.96-.78,.81-1.62,1.56-2.43,2.33-.41,.38-.84,.75-1.26,1.12-.42,.37-.83,.75-1.27,1.1-6.87,5.8-14.55,10.57-22.6,14.53,7.96-4.14,15.51-9.08,22.2-14.99,.43-.36,.82-.75,1.24-1.13,.41-.38,.82-.75,1.22-1.14,.79-.79,1.6-1.55,2.36-2.37,1.56-1.59,3.01-3.28,4.41-5.01,1.4-1.73,2.69-3.53,3.93-5.38,1.22-1.85,2.34-3.77,3.37-5.73,2.05-3.93,3.68-8.08,4.87-12.34,1.18-4.27,1.89-8.67,2.16-13.1,.26-4.41,.07-8.85-.54-13.24,0,0,0,0-.01,0-.26-1.92-.59-3.83-1.01-5.73-.25-1.12-.53-2.24-.84-3.36-.16-.56-.32-1.11-.5-1.67-.18-.56-.36-1.09-.59-1.68-.24-.62-.94-.95-1.56-.72-.62,.23-.93,.92-.69,1.54Z"/>
  </g>
  <g id="_12" data-name="12">
    <g>
      <path d="M577.68,216.01c-4.26,0-8-12.8-8-20.54,0-4.97,.63-7.27,3.26-16.96,1.42-5.09,1.42-7.11,1.42-8.58,0-2.46-.44-4.67-.82-5.81-.21-.57-.43-1.13-.45-1.28,3.36,.2,6.48,7.12,6.48,9.71,0,.76,0,.8-1.44,3.37-.97,1.85-6.18,13.48-6.18,20.75,0,2.64,.9,5.32,2.63,5.32,1.84,0,2.65-1.8,4.34-6.56,.13-.36,.27-.76,.39-1.07-.06,.55-.35,2.24-.63,3.88-.55,3.21-1.18,6.85-1.18,8.04s.64,2.79,1.21,4.1c.67,1.38,1.01,2.63,1.01,3.52,0,1.32-1.07,2.13-2.05,2.13Zm29.52-3.17c-7.45,0-10.32-1.82-11.99-3.41-1.45-1.46-2.29-2.76-2.29-3.56-.01-.03,0-.05,.02-.05,.12,0,.58,.31,.82,.47,.28,.19,.52,.34,.64,.4,2.4,1.24,5.76,1.41,8.74,1.41,2.09,0,4.95,0,6.97-.24,.5-.04,2-.18,3.48-.32,1.63-.15,3.23-.31,3.44-.31,2.93,0,3.08,1.78,3.08,2.13,0,2.37-1.28,3.48-12.92,3.48Zm0-38.8c-8.71,0-13.17-4.57-13.32-5.33,.11,.21,.39,.3,.77,.4,.38,.11,.84,.23,1.32,.34,1.88,.41,4.04,.49,5.52,.49,3.89,0,7.73-.8,8.92-1.22,1.91-.7,2.38-.86,2.82-.86,1.47,.21,3.17,1.34,3.17,2.87,0,2.45-4.95,3.32-9.19,3.32Z"/>
      <path d="M655.65,217.84c-6.81,0-10.15-1.21-12.52-2.4-3.9-1.91-6.51-5.66-6.51-9.33,0-7.83,8.42-12.05,16.33-12.05,1.73,0,3.95,.11,8.41,1.41l.91,.27c4.11,1.19,4.64,1.34,5.76,1.34,1.24,0,3.34-.65,3.34-3.11,0-5.32-10.79-17.55-13.42-17.55-.28,0-1,.23-4.59,1.48-2.25,.79-4.79,1.67-5.62,1.87-2.15,.5-4.21,.54-4.79,.54-8.04,0-11.1-6-11.1-7.05,.03,0,.05-.02,.09-.02,.37,0,1.32,.48,2.17,.91l.81,.41c2.89,1.4,5.96,2.2,8.43,2.2,2.66,0,8.98-1.27,8.98-3.26,0-.63-.65-1.47-3.89-3.72-2.23-1.57-4.83-4.1-4.83-6.04,0-2.36,2.09-3.24,3.4-3.24,1.47,0,2.2,.41,5.53,2.37-1.18-.63-1.63-.73-2.2-.73-.86,0-2.07,.62-2.07,1.99,0,2.24,3.1,4.67,3.72,5.14,1.63,1.28,3.81,2.81,4.94,2.81,.72,0,3.5-.96,3.5-3.11,0-1.4-.58-1.8-3.05-3.27-1.55-.94-2.71-1.63-3.59-2.14,1.43,.7,3.52,1.38,6.79,1.38l4.17-.04c.74,0,1.37,0,1.65,.04,1.97,.17,2.18,1.66,2.18,2.29,0,1.63-3.19,4.29-4.55,5.06-2.26,1.43-2.67,1.68-2.67,2.55,0,.8,.63,1.5,1.16,1.94,3.91,3.46,14.32,12.66,14.32,20.51,0,4.41-3.57,4.75-4.67,4.75-1.26,0-1.74-.26-6.27-2.75-5.31-2.93-9.81-4.31-13.96-4.31-7.77,0-11.67,6.27-11.67,9.77,0,4.92,4.37,7.63,12.31,7.63,1.03,0,4.98-.39,7.1-.6,.65-.06,1.09-.11,1.17-.11l.4-.02c1.97,0,2.9,1.52,2.9,2.55,0,3.28-5.93,3.64-8.48,3.64Z"/>
      <path d="M703.97,220.53c-1.89,0-2.18-1.13-2.99-5.44-.04-.2-2.1-9.32-3.68-9.32-.75,0-.88,.44-1.5,2.55-.81,2.71-2.06,4.04-3.82,4.04-1.56,0-2.29-1.41-2.29-2.37,0-2.48,2.38-6.75,3.28-8.36l.34-.63c.38-.73,.91-1.72,.91-2.52,0-.66-.54-2.45-1.8-5.99-1.78-4.54-1.85-5.05-1.85-6.31,0-3.16,2.08-5.2,3.56-5.64l1.32-.4c4.89-1.48,7.35-2.23,8.3-2.94,.73-.48,.78-1.36,.78-2.75,0-3.73-.26-7.75-2.11-11.82-.13-.25-.46-.76-.85-1.34-.49-.73-1.41-2.1-1.48-2.43,.05-.02,.45-.19,1.26-.19,2.43,0,6.97,3.79,6.97,4.75,0,.33-.28,1.88-.47,2.91-.15,.83-.29,1.58-.32,1.87-.08,.47-.4,3.66-.4,5.78,0,1.88,.35,2.46,1.98,3.28,.67,.38,.88,.62,.88,1.08,0,0,0,.9-.61,1.73l-.24,.33c-1.67,2.31-1.77,2.45-1.77,2.86v.57l.8,.24c.39,0,.58-.13,2.38-1.82,3.31-3.18,13.37-12.85,20.71-12.85,5.96,0,7.21,4.82,7.21,8.87,0,2.61-.33,6.09-.95,10.07-1.17,7.84-1.28,9.19-1.28,11.99,0,2.17,0,7.95,6.44,7.95,1.35,0,4.93,0,8.75-4.15,.94-1.07,1.28-1.17,1.28-1.17-.18,1.2-4.37,9.82-12.33,9.82-5.75,0-8.8-3.81-8.8-11.02,0-1.89,.08-2.73,.94-7.36,1.31-7.04,2.15-14.59,2.15-16.69,0-4.01-1.85-6.04-5.49-6.04-5.86,0-12.7,5.72-18,10.7-5.42,5.1-6.29,8.47-6.29,16.68,0,3.34,.22,7.97,.64,10.34l.4,2.55c.45,2.89,.55,3.49,.55,4.72,0,3.22-1.01,3.88-2.53,3.88Zm-2.46-24.52c-1.44,0-3.66,6.07-3.66,6.68,0,1.7,2.44,6.28,3.34,6.28q1.12,0,1.12-8.9c0-.24,.06-1.14,.1-1.85,.03-.48,.05-.86,.05-.93,0-1.11-.6-1.28-.96-1.28Zm.24-14.91c-.73,0-9.45,1.66-9.45,6.2,0,2.2,1.73,9.29,3.18,9.29,.65,0,1.19-.72,1.38-1.11,.15-.34,2.27-4.5,3.54-6.98l1.3-2.54c1.3-2.6,1.67-3.49,1.45-4.04-.12-.3-.47-.83-1.4-.83Z"/>
      <path d="M792.69,218.23c-10.42,0-15.7-5.52-15.7-16.41,0-7.46,1.48-21.3,11.39-30.13,2.09-1.56,2.09-1.9,2.09-2.09,0-.27-.13-.73-1.04-.73-4.73,0-21.56,7.27-23.84,8.56-1.14,.65-1.81,.96-2.5,.96-2.26,0-4.68-2.05-5.81-3.99-.51-.88-.56-1.4-.5-1.51,.45,.09,1.2,.25,1.75,.37,.49,.11,.73,.16,.91,.16,3.46,0,4.58-.29,15.63-3.43l.95-.27c7.29-2.05,24.35-6.85,29.36-6.85,2.32,0,5.78,.86,5.78,3.24,0,1.66-1.73,2.37-2.61,2.37-.51,0-1.91-.23-3.28-.45-1.39-.22-2.75-.43-3.23-.43-10.55,0-21.91,9.49-21.91,30.32,0,13.63,5.29,14.77,10.25,14.77,.69,0,2.91-.16,4.79-.29,1.33-.1,2.49-.18,2.75-.18,1.27,0,3.4,.31,3.4,2.37,0,3.6-8.29,3.64-8.64,3.64Z"/>
      <path d="M830.65,211.96c-4.92,0-14.51-8.09-14.51-22.92,0-1.11,.29-4.2,.57-7.19,.28-2.99,.54-5.82,.54-6.86,0-1.7-.34-3.89-.57-4.75l-.14-.5c-.43-1.52-.47-1.7-.47-2.05,3.11,.25,6.56,6.19,6.56,8.17,0,.37-.06,.55-.44,1.6l-.49,1.39c-1.16,3.24-1.94,6.26-1.94,10.42,0,8.34,4.27,14.37,7.15,14.37,1.7,0,2.14-.66,4.53-4.64,.66-1.1,1.68-2.33,2.02-2.43-.21,.33-.36,1.3-.42,1.48-.89,3.73-1.06,4.47-1.06,6.21,0,1.5,.28,2.62,.5,3.34l.13,.46c.17,.61,.48,1.74,.48,1.99,0,1.23-1.42,1.89-2.45,1.89Zm34.36-14.44c-2.21,0-3.32-1.6-3.32-4.75,0-6.55,0-10.15-4.37-14.52-.21-.21-.67-.6-1.21-1.06-.8-.67-2.28-1.92-2.46-2.26,.21,.32,4.65,.55,7.91,3.21,4.23,3.4,6.85,9.04,6.85,14.71,0,3.14-1.11,4.67-3.4,4.67Z"/>
      <path d="M923.8,219.03c-10.49,0-23-2.2-23-12.68,0-1.23,.22-2.15,.42-2.62,.09,.25,.21,.64,.38,1.23,2,8.24,12.47,9.1,16.89,9.1,.69,0,2.6-.14,4.48-.29,1.79-.13,3.55-.27,4.17-.27,2.42,0,5.78,1.18,5.78,3.4,0,1.63-2.13,2.13-9.11,2.13Zm-45.07-2.06c-1.53,0-1.57-2.63-1.57-2.93,0-.8,.39-1.59,2.79-6.08,8.26-15.64,10.54-29.37,10.54-29.47,0-1.36-.79-1.36-3.42-1.36-1.24,0-4.15,0-6.8-1.37-2.11-1.06-3.41-2.73-3.74-3.49,.14,.14,.41,.27,.58,.34,.33,.15,.63,.28,.77,.32,1.25,.41,4.53,.89,7.2,.89,.05,0,5.04,0,6.01-.86,.95-.83,1.07-6.87,1.07-6.93,0-2.88-.56-4.43-1.03-5.21l-.45-.52c-.4-.45-1.6-1.79-1.7-2.17,0-.26,1.07-1.21,3.01-1.21,3.27,0,5.75,3.04,5.78,3.64-.02,.12-.24,.63-.39,.96-.31,.7-.48,1.11-.48,1.41,0,2.23,7.31,3.43,7.71,3.43,.16,0,.64-.04,1.16-.07,.54-.04,1.1-.09,1.3-.09,1.01,0,2.05,.23,2.05,1.89,0,4.01-6.6,6.27-11.56,7.62-2.71,.72-3.35,.89-3.74,2.65-3.91,16.69-4.1,17.29-5.62,21.98l-.16,.5c-5.35,16.11-8.12,16.11-9.3,16.11Zm18.73-51.81c-1.01,0-1.29,.71-1.43,1.41l-.29,1.56c-.1,.55-.2,1.09-.42,2.16-.08,.55-.15,1.05,.16,1.41l.17,.2,.54,.11c.36,0,6.99-2.07,6.99-3.74,0-1.42-4.91-3.11-5.72-3.11Zm21.3,20.38c1.81-1.63,2.6-2.41,2.6-3.07,0-.45,0-1.84-7.39-1.84-1.24,0-3.65,.04-5.79,.32-.42,.07-1.81,.25-2.36,.3,1.45-1.05,6.85-3.22,13.94-3.22s12.68,2.16,12.68,5.15c0,1.11-.66,1.34-1.73,1.34-.36,0-1.35-.06-2.3-.13-.93-.06-1.83-.11-2.14-.11-1.46,0-2.73,0-6.08,1.31l-.68,.25c-.78,.28-1.34,.48-1.75,.61,.3-.27,.69-.62,1-.9Z"/>
    </g>
    <path d="M995.74,232.73c-1.19,0-1.84,0-1.84-4.73,0-.93,.07-3.69,.14-6.55,.08-3.08,.15-6.27,.15-7.42,0-2.6,.03-5.22,.05-7.85,.02-2.63,.05-5.26,.05-7.86,0-3.17-2.53-3.17-3.36-3.17h-9.06c-2.43,0-8.89,0-12.29,.29,0,0-.49,.04-.9,.09-.42,.05-.88,.11-1.07,.11-.07-.02-.29-.23-.46-.4l-1.73-2.1c.41,.03,.94,.07,1.47,.11,.91,.07,1.82,.14,2.16,.14,2.58,.18,7.64,.39,13.3,.39h8.48c.78,0,2.84,0,3.35-2.27,.1-.59,.11-14.04,.11-19.79,0-2.59-1.92-2.97-3.07-2.97h-9.64c-1.22,0-2.75,0-4.36,3l-.61,1.06c-1.68,2.93-6.77,11.84-7.95,12.34,.33-.26,1.31-2.61,1.9-4.01,.42-1.01,.8-1.9,.94-2.28l.14-.39c4.09-10.92,6.29-19.35,6.35-24.37,0-1.09,.09-1.43,.17-1.54,1.06,.54,7.34,3.67,7.46,4.71-.07,.12-.51,.36-1.31,.73-1.78,.89-3.99,6.7-3.99,7.46,0,1.14,.97,1.82,2.59,1.82h8.19c2.17,0,3.27-1.13,3.27-3.36,0-2.91-.09-5.17-.14-6.67-.03-.73-.05-1.27-.05-1.62,0-.66-.09-2.58-.18-4.56-.1-2.11-.2-4.28-.2-5.07,0-.23,0-.49,.02-.57,1.17,.39,8.09,2.38,8.39,3.39-.06,.12-.65,.86-1,1.3-.6,.76-.98,1.24-1.09,1.58-.31,1.25-.51,2.04-.51,11.94,0,1.28,0,3.65,3.27,3.65h4.05c4.5,0,5.31,0,6.63-1.88,2.48-3.21,2.72-3.42,3.3-3.42,1.09,.13,6.91,5.02,7.14,6.02,0,.71-1.64,.75-4.54,.75h-16.58c-2.29,0-3.27,.98-3.27,3.27,.04,1.25,.1,5.45,.1,18.5,0,3.27,2.49,3.27,3.55,3.27h7.71c4.5,0,5.19,0,6.62-1.86,2.48-3.34,2.67-3.54,3.31-3.54,1.09,.18,6.92,5.16,7.15,6.12,0,.65-2.26,.65-4.64,.65h-20.14c-3.46,0-3.46,2.18-3.46,3.94,0,1.97,.07,7.67,.14,13.53,.07,6.2,.15,12.57,.15,14.9,0,2.52-.34,5.21-4.35,5.21Zm-39.8-.19c-.92,0-1.65,0-1.65-2.9,0-.22,.06-1.52,.13-2.93,.08-1.7,.16-3.54,.16-3.91,.69-13.7,1.06-36.83,1.06-39.9,0-1.93,0-5.53-.29-7.6-.33-1.99-1.11-3.09-2.2-3.09-.6,0-1.56,.89-5.07,4.4-2.43,2.43-6.95,6.95-7.96,6.98,.17-.05,2.05-2.64,4.04-5.39,3.57-4.93,8.01-11.06,9.17-12.93,1.99-3.02,7.34-12.34,8.18-19.02,.08-.75,.37-.75,.5-.75,.62,0,3.15,1.55,4.23,2.22,.55,.34,.99,.6,1.2,.71l.4,.2c1.48,.73,2.75,1.36,2.75,2.09-.12,.22-1.22,1.03-1.63,1.34-.3,.21-.53,.39-.61,.48-1.63,1.63-3.71,4.27-9.11,11.34-1.2,1.63-1.75,2.39-1.75,3.14,0,1.42,1.06,2.04,2.09,2.45,.96,.43,2.44,1.08,2.44,1.4-.02,.05-.17,.43-1.09,1.8-.55,.95-.55,1.73-.55,2.64v46.55c0,.42,.02,1.32,.05,2.37,.05,2.03,.11,4.8,.05,5.48-.25,2.36-2.61,2.86-4.54,2.86Z"/>
  </g>
  <g id="_11-genn" data-name="11-genn">
    <path d="M548.86,232.16c-.72,0-1.27-.72-2.21-2.32-.58-.96-1.23-2.05-2.91-3-.21-.12-.73-.31-1.37-.53-.66-.23-2.03-.71-2.71-1.1,.89-.17,2.61-.3,3.61-.3,6.14-.28,7.73-.71,8.08-3.98,.11-1.07,.29-25.86,.29-39,0-3.55-1.91-3.55-4.33-3.55h-12.53c-2.45,0-3.01,.65-3.35,2.48-.25,1.82-2.42,2.63-3.88,2.63-.55,0-1.39,0-1.76-1.41-.05-.52-.08-10.86-.08-20.86,0-.7-.11-2.75-.23-4.86-.12-2.22-.25-4.51-.25-5.35,0-.27,.12-1.07,.49-1.07,1.1,0,2.8,.79,4.17,1.43,1.38,.68,1.75,.68,2.86,.68h16.48c1.11,0,1.53-.04,2.42-.93,1.15-1.25,1.41-1.38,1.72-1.38,.88,.11,5.7,3.02,5.7,4.35,0,.34-.41,.73-.86,1.1-1.74,1.53-1.74,2.07-1.74,5.55,0,4.31,.04,16.86,.09,29.75,.05,13.64,.1,27.69,.1,32.79,0,3.86-.51,5.84-3.55,7.4-1.91,.95-3.94,1.48-4.27,1.48Zm-14.46-66.69c-1.88,0-3.36,0-3.36,2.49v6.36c0,2.68,1.34,2.68,3.36,2.68h13.97c1.82,0,3.27,0,3.27-2.59v-6.36c0-2.59-1.37-2.59-3.27-2.59h-13.97Zm-.19-12.05c-1.61,0-3.26,0-3.26,2.78,0,4.54,.04,5.65,.11,5.92,.25,1.88,1.79,1.88,3.15,1.88h14.17c1.68,0,3.27,0,3.27-2.69v-5.88c-.39-2.01-1.72-2.01-3.27-2.01h-14.17Zm-50.69,78.73c-1.3,0-1.94-.92-1.94-2.8l.02-.8c.03-.87,.07-2.21,.07-3.06,.96-28.62,.96-35,.96-45.59,0-6.09,0-20.36-.1-21.63-.09-.71-.56-8.43-.58-8.84,0-.11,0-.41,.04-.5,.83,.13,3.04,1.28,3.77,1.66,2.76,1.48,3.17,1.65,4.68,1.65h14.26c1.09,0,1.87,0,3.1-1.23,.87-.95,1.56-1.66,2.2-1.66,.93,.05,5.31,3.4,5.31,4.35-.08,.2-.85,1.02-1.18,1.38-.24,.26-.45,.48-.54,.6-.79,1.01-.79,1.91-.79,4.58,0,1.22,.11,4.75,.23,8.37,.13,3.81,.25,7.73,.25,9.16,0,5.43-2.9,5.7-3.48,5.7-1.74,0-2.02-1.19-2.23-2.88-.36-2.52-1.93-2.52-3.74-2.52h-11.95c-1.63,0-3.47,0-4.1,1.62-.23,.54-.33,2.58-.33,7.05,0,13.75,.03,21.96,.1,24.4,.1,2.21,.39,12.33,.39,14.63,0,2.73-.46,6.37-4.45,6.37Zm7.42-66.3c-1.86,0-3.46,0-3.46,2.49v5.59c0,2.68,1.38,2.68,3.46,2.68h13.59c1.86,0,3.46,0,3.46-2.49v-5.49c0-2.65-1.31-2.78-3.46-2.78h-13.59Zm0-12.14c-2.39,0-3.36,.11-3.36,2.98v5.2c0,2.59,1.48,2.59,3.36,2.59h13.78c2.39,0,3.36-.12,3.36-3.07v-5.21c0-2.49-1.48-2.49-3.36-2.49h-13.78Zm14.26,70.54c-.73,0-1.65,0-1.65-2.9,0-.66,.09-3.23,.19-4.08,.29-5.09,.39-8,.39-12.01,0-1,0-9.86-.29-13.25,0-.14-.06-.74-.13-1.37-.07-.64-.15-1.33-.15-1.57l.3-.3c.41,0,2.04,.63,3.23,1.08,2,.77,3.26,1.23,3.91,1.23h15.03c1.36,0,1.93-.23,2.65-1.07,1.27-1.43,1.93-1.73,2.27-1.73,.84,.05,5.12,3.04,5.12,4.35,0,.28-.17,.5-.34,.74l-.3,.4c-.84,1.08-1.18,1.53-1.29,2.97-.22,1.93-.11,11.19-.04,16.72,.02,1.6,.04,2.83,.04,3.36,0,2.51,0,3.65-.74,4.56-1.14,1.31-2.8,1.91-3.61,1.91-1.32,0-1.55-.94-1.55-2.9,0-2.88-1.9-2.88-3.75-2.88h-11.95c-2.49,0-3.23,.59-3.46,2.73-.35,2.59-1.72,4.02-3.87,4.02Zm7.04-19.85c-1.82,0-3.27,0-3.27,2.59v6.65c0,2.4,1.59,2.4,3.27,2.4h13.2c2.27,0,3.27-.13,3.27-3.07,0-4.13-.04-6.41-.11-6.77-.39-1.8-1.2-1.8-3.16-1.8h-13.2Zm-.19-11.86c-2.81,0-3.07,.64-3.07,3.65v4.82c.4,1.92,1.64,1.92,3.07,1.92h13.59c1.44,0,2.68,0,3.06-1.8v-5.61c.01-2.84-1.04-2.98-3.06-2.98h-13.59Z"/>
  </g>
  <g id="_10-ninn" data-name="10-ninn">
    <path d="M388.67,230.89c.15-.09,.4-.28,.87-.57,4.66-3.13,16.2-11.82,23.04-24.99,10.74-20.44,11.05-46.85,11.05-49.79s0-3.91-.39-5.98c-.11-.34-.37-1.6-.38-1.82,.07-.03,.17-.04,.28-.04,.75,0,2.33,.48,3.33,.77,.91,.27,1.73,.52,2.06,.59,4.61,1.25,6.11,1.75,6.11,3.01,0,.56-.27,.79-1.2,.99-.78,.1-1.44,.22-1.87,.79-.29,.45-.4,.86-.4,1.5,.01,.26,1.31,23.54,14.06,44.43,3.93,6.25,14.31,20.87,27.71,24.34,.14,.05,.46,.15,.56,.24-.03-.03-.1-.04-.19-.04-.32,0-.98,.14-1.81,.32l-.95,.2c-3.35,.77-5.73,2.2-6.85,2.98l-1.12,.84c-.52,.39-.89,.67-1,.71-1.23-.55-12.72-8.7-21.42-27.72-2.06-4.56-7.89-17.48-9.2-37.1-.1-1.08-.15-1.68-1.05-1.68-1.05,0-1.11,.56-1.46,3.69l-.07,.67c-.24,2.53-2.59,25.09-12.26,41.02-9.66,16.07-25.31,22.21-27.46,22.64Z"/>
  </g>
  <g id="_09-me" data-name="09-me">
    <path d="M364.71,231.48c-1.32,0-1.46-.55-1.46-2.91s-1.07-3.55-3.46-3.55h-34.02c-3.19,0-3.47,1.96-3.74,3.86-.3,1.9-4.38,2.5-5.51,2.5-1.54,0-1.65-.73-1.65-1.94,0-1.62,.29-8.17,.46-12.22l.12-2.79c.19-10.91,.19-19.6,.19-48.4,0-4.76,0-7.63-.19-11.59-.04-.35-.13-1.05-.24-1.89-.22-1.63-.53-3.86-.53-4.54,0-.25,.05-.4,.08-.43,.62,.04,2.12,.88,4.83,2.41l1.48,.83c2.53,1.52,5.02,1.52,6.83,1.52h29.59c3.38,0,4.36-.53,5.74-2.23l1.1-1.25c1.04-1.2,1.26-1.43,1.45-1.43,.87,.22,7.32,4.92,7.53,6.01,0,.29-.09,.61-1.26,1.68-2.05,2.05-2.11,2.45-2.11,14.2,0,.37,.19,41.57,.29,44.16,0,.87,.09,3.43,.19,6.04,.1,2.73,.2,5.53,.2,6.56,0,2.64,0,3.05-1.36,3.85-1.94,1.24-3.81,1.56-4.53,1.56Zm-38.94-31.13c-3.07,0-3.65,1.42-3.65,4.04,0,10.9,.04,16.64,.1,17.05,.55,2.21,2.57,2.21,3.55,2.21h34.12c3.65,0,3.65-2,3.65-4.32,0-.83,.02-2.66,.05-4.8,.05-4.42,.12-9.92,.05-11.23-.25-2.6-1.98-2.95-3.65-2.95h-34.21Zm0-24.29c-3.38,0-3.65,1.7-3.65,3.75,0,16.25,.08,16.65,.11,16.79,.24,2.38,2.47,2.38,3.54,2.38h34.31c1.77,0,3.65-.26,3.65-3.36,0-1.29,.05-4.81,.1-8.21,.05-3.21,.09-6.32,.09-7.4,0-1.94,0-3.94-3.65-3.94h-34.5Zm-.1-22.26c-2.49,0-3.55,.98-3.55,3.26v13.88c0,1.49,0,3.75,3.55,3.75h34.5c.75,0,3.02,0,3.45-2.29,.07-.35,.11-5.35,.11-14.85,0-1.58,0-3.75-3.55-3.75h-34.5Z"/>
  </g>
  <g id="_08-da" data-name="08-da">
    <path d="M240.67,231.48c-.34,0-.66-.26-.95-.78-1.11-1.91-1.45-2.34-4.17-4.68-.15-.15-.79-.6-1.45-1.05-.12-.09-.26-.18-.4-.27,.05,0,.1,0,.13,0,1.69,.26,2.42,.3,3.37,.3h1.74c2.83-.01,6.04-.01,6.91-3.82,.76-3.11,2.13-15.82,2.13-18.82,0-1.85-1.03-2.79-3.07-2.79h-18.99c-1.26,0-2.66,.13-3.32,1.7-1.13,2.45-1.68,3.5-3.43,3.5-1.98,0-2.13-1.44-2.13-3.48,0-.76,.19-4.51,.29-5.33,0-.88,.03-2.3,.06-4.14,.06-3.36,.14-8.1,.14-13.08,0-10.96-.29-16.64-.58-21.52,0-.38-.11-1.62-.22-2.92-.13-1.39-.26-2.86-.26-3.41l.4-.3c1.22,0,2.42,.66,3.76,1.46,2.55,1.43,3.83,1.43,5.3,1.43h12.34c3.2,0,4.17,0,5.68-2.38,1.89-3.07,2.31-3.3,2.7-3.3,1.14,0,7.05,4.63,7.05,6.28,0,.8-1.27,.88-4.64,.88h-8.87c-3.94,0-3.94,1.31-3.94,7.6,0,3.66,0,5.67,2.78,5.67,1.13,0,1.96-.15,3.1-2.22,.46-.72,1.21-1.93,1.72-1.93,1,.03,5.7,3.74,5.7,4.83,0,.75-1.64,.78-4.54,.78h-5.01c-3.75,0-3.75,1.24-3.75,7.21,0,4.17,0,5.58,2.88,5.58,1.43,0,2.44-.3,3.38-1.81,1.51-2.36,1.59-2.43,2.02-2.43,.93,0,4.93,3.75,4.93,4.93,0,.75-1.68,.78-4.64,.78h-5.3c-1.01,0-2.9,0-3.17,2.14-.07,.7-.05,3.69-.02,6.96l.02,1.98c0,2.64,1.36,3.17,3.55,3.17h5.78c1.16,0,2.36-.08,3.22-1.06,.58-.64,.99-.96,1.21-.96,2.99,1.12,5.89,2.79,5.89,3.48,0,.63-.39,.95-1.29,1.55-1.54,1.03-1.96,1.63-2.08,2.93l-.03,.4c-.57,7.63-1.16,15.51-3.68,21.2-1.3,2.95-5.31,5.74-8.25,5.74Zm-14.84-47.52c-3.55,0-3.55,1.14-3.55,6.64,0,6.29,0,7.6,3.55,7.6h2.31c3.55,0,3.55-1.29,3.55-6.73,0-6.21,0-7.51-3.55-7.51h-2.31Zm-.77-14.26c-2.97,0-2.97,1.32-2.97,5.68,0,6.03,0,7.12,2.97,7.12h3.66c3.07,0,3.07-1.41,3.07-5.58,0-5.97,0-7.21-3.07-7.21h-3.66Zm.1-14.74c-.79,0-2.43,0-2.95,1.54-.06,.18-.22,.66-.22,8.18,0,1.88,0,3.65,3.07,3.65h3.57c3.07,0,3.07-1.57,3.07-4.42,0-7.46-.4-7.87-.65-8.11-.72-.84-1.63-.84-2.43-.84h-3.47Zm49.83,75.75c-1.96,0-2.12-2.1-2.23-5.52-.18-4.81-2.24-12.21-4.61-12.21-.9,0-1.46,.93-1.64,1.23-2.69,4.99-6.11,9.02-10.16,11.98-.87,.63-2.15,1.45-3.15,2.04l.22-.21c1.98-1.97,8.51-9.11,11.62-20.11,1.83-6.64,3.88-18.92,3.88-25.4,0-2.04-1.07-3.07-3.17-3.07-.86,0-3.81,.17-6.21,.31-1.61,.09-2.97,.17-3.24,.17l-.47-.51-1.73-2.1c1.13,.04,3.17,.18,5.26,.31,2.71,.18,5.49,.35,6.48,.35,.82,0,2.36,0,3.1-1.36,.14-.28,.55-1.1,.55-13.86,0-7.57-.2-9.17-.79-11.78l-.11-.4c-.14-.51-.56-2.06-.56-2.37,0-.4,.08-.79,.98-.79,.71,0,6.26,1.57,7.31,1.98,.5,.17,1.28,.52,1.28,1.11,0,.32-.67,.83-1.41,1.37-1.45,1.12-1.87,1.79-1.87,4.12,0,1.31-.12,5.12-.23,9.02-.12,4.12-.25,8.34-.25,9.87,0,1.4,.6,3.07,3.46,3.07h5.59c4.34,0,5.12,0,6.45-1.98,1.8-2.75,1.89-2.83,2.32-2.83,.94,.02,5.31,4.18,5.31,5.41,0,.8-1.18,.88-4.54,.88h-14.94c-1.04,0-3.46,0-3.46,3.07,0,3.48,7.88,29.36,21.12,40.05l.57,.42c.64,.47,2.17,1.61,3.16,2.38-.08-.01-.16-.03-.24-.04-.59-.1-1.19-.2-1.39-.2-2.48,0-5.76,1.47-6.38,2.1-.37,.37-.66,.66-.74,.69h0c-2.42,0-10.69-15.16-15.45-39.05,0-1.05-.59-1.23-.94-1.23-.68,0-.86,.7-.94,1-.02,.17-.76,7.68-2.6,15.04-.1,.39-.35,1.26-.64,2.27-.92,3.2-1.31,4.6-1.31,5,0,1.11,.4,1.43,3,3.48,2.92,2.29,7.32,6.4,7.32,11.07,0,2.35-1.65,5.21-3.58,5.21Zm-64.28-4.63c-1.88,0-3.19-1.63-3.19-3.1,0-1.14,.28-1.59,2.01-3.9,2.33-3.25,3.78-7.62,3.78-11.42,0-.1,0-.18,0-.26,.98,1.02,3.2,4.23,3.2,9.13,0,.09-.07,9.55-5.79,9.55Zm12.24-2.6c-1.23,0-1.75-1.32-1.75-2.04,0-.35,.14-.99,.24-1.46,.1-.46,.15-.68,.15-.85,.42-1.51,.67-3.73,.67-5.79,0-.49-.15-1.87-.28-3.11-.06-.55-.12-1.06-.15-1.45,.77,.68,2.13,2.06,2.66,2.93,.03,.05,2.13,3.24,2.13,6.45s-2.18,5.31-3.67,5.31Zm9.64-4.82q-1.47,0-1.74-3.94c-.16-1.88-.75-4.53-1.07-5.95-.1-.45-.18-.78-.2-.91-.05-.21-.23-.62-.43-1.06-.07-.14-.15-.33-.24-.52,.8,.47,2.09,1.32,2.77,2.06,2.14,2.25,3.22,4.62,3.22,7.04,0,1.81-1.04,3.29-2.32,3.29Zm8.58-4.72c-1.12,0-1.24-.14-1.92-4.99-.23-1.65-.85-3.47-1.32-4.59h0c.52,.27,1.33,.77,2.01,1.33,3.18,2.54,3.27,5.16,3.27,5.45,0,.98-.6,2.8-2.04,2.8Z"/>
  </g>
  <g id="_07" data-name="07">
    <g>
      <path d="M718.91,91.39c-4.26,0-8-12.8-8-20.54,0-4.98,.63-7.28,3.27-16.99,1.41-5.07,1.41-7.09,1.41-8.56,0-2.46-.44-4.67-.82-5.81-.21-.57-.43-1.13-.45-1.27,3.36,.2,6.48,7.12,6.48,9.71,0,.75,0,.8-1.44,3.37-.97,1.85-6.18,13.48-6.18,20.75,0,2.65,.9,5.33,2.63,5.33,1.84,0,2.65-1.8,4.34-6.56,.12-.34,.26-.75,.39-1.07-.06,.55-.35,2.24-.63,3.88-.55,3.21-1.18,6.84-1.18,8.03s.65,2.8,1.21,4.11c.66,1.37,1.01,2.61,1.01,3.5,0,1.32-1.07,2.13-2.05,2.13Zm29.52-3.18c-7.45,0-10.32-1.82-11.99-3.41-1.43-1.42-2.29-2.75-2.29-3.56,0-.03,0-.05,.02-.05,.12,0,.59,.32,.83,.48,.27,.18,.51,.34,.63,.39,2.4,1.24,5.77,1.41,8.74,1.41,2.09,0,4.95,0,6.97-.24,.51-.04,2.12-.19,3.65-.33,1.57-.15,3.07-.29,3.27-.3,2.93,0,3.08,1.77,3.08,2.13,0,2.37-1.28,3.48-12.92,3.48Zm0-38.8c-8.71,0-13.17-4.57-13.32-5.33,.11,.21,.39,.29,.77,.39,.38,.11,.84,.23,1.32,.34,1.86,.41,4.03,.49,5.52,.49,4.1,0,7.84-.84,8.92-1.22,1.87-.69,2.38-.87,2.83-.87,1.47,.21,3.16,1.34,3.16,2.87,0,2.45-4.95,3.32-9.19,3.32Z"/>
      <path d="M792.19,87.34c-4.92,0-14.51-8.09-14.51-22.92,0-1.11,.29-4.2,.57-7.19,.28-2.99,.54-5.82,.54-6.86,0-1.7-.34-3.89-.57-4.75l-.14-.5c-.43-1.53-.48-1.71-.48-2.05,3.11,.25,6.56,6.19,6.56,8.17,0,.37-.06,.55-.44,1.6l-.49,1.39c-1.16,3.24-1.94,6.26-1.94,10.42,0,8.34,4.27,14.38,7.15,14.38,1.7,0,2.14-.66,4.53-4.64,.66-1.1,1.68-2.32,2.02-2.43-.21,.32-.36,1.3-.42,1.48-.89,3.73-1.06,4.48-1.06,6.21,0,1.5,.28,2.63,.5,3.34l.12,.44c.17,.61,.49,1.75,.49,2.01,0,1.23-1.42,1.89-2.45,1.89Zm34.36-14.44c-2.21,0-3.32-1.6-3.32-4.75,0-6.55,0-10.16-4.37-14.53-.21-.21-.67-.6-1.21-1.06-.8-.67-2.28-1.92-2.46-2.26,.21,.32,4.64,.55,7.91,3.21,4.23,3.4,6.85,9.04,6.85,14.71,0,3.14-1.11,4.67-3.4,4.67Z"/>
      <path d="M864.49,87.18c-1.13,0-1.34-.16-1.34-.46,.12-.11,1.01-.23,2.23-.4l.53-.07c19.62-2.78,24.85-16.63,24.85-24.37,0-9.53-7.85-13.82-13.42-13.82-7.62,0-18.83,5.87-26.11,10.89-3.95,2.76-5.03,3.15-6.98,3.15-4.46,0-8.64-4.3-8.64-6.26,0-.58,.25-.7,.62-.7,.34,0,1.48,.27,2.4,.48,1.26,.29,2.05,.47,2.44,.47,1.96,0,3.01-.43,11.18-3.75l2.29-.93c4.31-1.71,14.39-5.71,21.52-5.71,11.03,0,19.67,8.36,19.67,19.03,.03,5.17-1.86,9.7-5.6,13.47-5.67,5.7-15.02,8.98-25.65,8.98Z"/>
      <path d="M932.98,93.84c.31-.04,.96-.3,1.63-.57,8.38-3.3,25.82-10.18,25.82-30.36,0-5.29-1.63-22.55-22.54-22.55-1.5,0-2.23,.55-2.23,1.68l.16,.94,.21,1.59c.28,2.06,.58,4.18,.58,6.91,0,4.61-.84,11.99-8.08,22.94-6.58,10.04-10.46,11.33-13.1,11.33-4.98,0-9.35-8.08-9.35-17.29,0-7.37,2.91-14.04,8.64-19.84,9.91-10.15,20.42-10.15,24.91-10.15,6.64,0,9.94,1.19,12.52,2.48,8.45,4.15,13.49,12.59,13.49,22.58s-6.07,22.65-19.62,27.4c-6.83,2.41-11.98,2.9-12.98,2.9-.03,0-.05,0-.07,0Zm.47-53.24c-8.28,0-23.58,10.64-23.58,25.8,0,4.94,2.03,12.79,7.47,12.79,2.68,0,4.79-1.36,10.15-9.46,4.93-7.54,7.87-16.28,7.87-23.4,0-4.33-.15-5.73-1.92-5.73Z"/>
      <path d="M975.87,99.88c-.64,0-1.5-.23-1.5-2.21l.02-.65c.03-.71,.06-1.82,.06-2.52,.79-23.56,.79-28.82,.79-37.54,0-7.8,0-16.88-.08-17.82-.07-.59-.46-6.91-.47-7.27,.06-.02,.13-.03,.21-.03,.73,0,2.26,.79,2.79,1.07,2.28,1.23,2.62,1.37,3.89,1.37h11.74c.92,0,1.58,0,2.62-1.04,.68-.74,1.26-1.34,1.74-1.34,.77,.08,4.19,2.71,4.27,3.48-.07,.13-.69,.79-.95,1.07-.2,.21-.37,.39-.44,.49-.67,.86-.67,1.61-.67,3.83,0,1,.09,3.91,.19,6.89,.1,3.14,.21,6.37,.21,7.55,0,4.37-2.3,4.59-2.77,4.59-1.24,0-1.54-.7-1.74-2.28-.31-2.16-1.71-2.16-3.18-2.16h-9.84c-1.37,0-2.93,0-3.46,1.39-.2,.46-.28,2.1-.28,5.84s0,17.07,.08,20.09c.08,1.83,.32,10.16,.32,12.05,0,2.21-.37,5.14-3.56,5.14Zm6.11-54.59c-1.52,0-2.95,0-2.95,2.15v4.6c0,2.31,1.23,2.31,2.95,2.31h11.19c1.52,0,2.95,0,2.95-2.15v-4.52c0-2.39-1.37-2.39-2.95-2.39h-11.19Zm0-10c-1.94,0-2.87,.11-2.87,2.55v4.29c0,2.23,1.33,2.23,2.87,2.23h11.35c1.99,0,2.87-.11,2.87-2.63v-4.28c0-2.16-1.33-2.16-2.87-2.16h-11.35Zm47.69,64.59c-.54,0-.99-.6-1.73-1.86-.49-.81-1.04-1.72-2.43-2.51-.17-.1-.61-.26-1.15-.45-.46-.16-1.35-.47-1.94-.75,.77-.11,1.95-.2,2.65-.2,5.14-.23,6.46-.66,6.75-3.36,.09-.89,.24-21.3,.24-32.12,0-3.03-1.7-3.03-3.66-3.03h-10.31c-2.12,0-2.57,.63-2.86,2.13-.2,1.44-1.93,2.08-3.09,2.08-.45,0-1.07,0-1.36-1.09-.04-.44-.06-8.95-.06-17.15,0-.58-.09-2.27-.19-4.01-.1-1.82-.21-3.71-.21-4.4,0-.28,.12-.79,.31-.79,.88,0,2.34,.68,3.4,1.18,1.1,.55,1.43,.57,2.39,.57h13.57c.9,0,1.3-.03,2.07-.8,.92-1,1.12-1.11,1.35-1.11,.7,.11,4.59,2.47,4.59,3.48,0,.24-.34,.56-.67,.84-1.47,1.29-1.47,1.73-1.47,4.64,0,3.55,.04,13.88,.08,24.5,.04,11.23,.08,22.8,.08,27,0,3.13-.41,4.74-2.87,6-1.56,.78-3.19,1.2-3.47,1.21Zm-11.9-54.91c-1.54,0-2.87,0-2.87,2.16v5.23c0,2.31,1.2,2.31,2.87,2.31h11.51c1.5,0,2.79,0,2.79-2.23v-5.24c0-2.23-1.23-2.23-2.79-2.23h-11.51Zm-.16-9.92c-1.31,0-2.79,0-2.79,2.39,0,3.75,.04,4.66,.09,4.89,.21,1.62,1.59,1.62,2.69,1.62h11.66c1.37,0,2.79,0,2.79-2.31v-4.84c-.34-1.76-1.53-1.76-2.79-1.76h-11.66Zm-23.88,58.32c-.59,0-1.26,0-1.26-2.29,0-.54,.08-2.64,.15-3.35,.24-4.19,.32-6.59,.32-9.9,0-.82,0-8.12-.24-10.92,0-.11-.05-.61-.11-1.13-.06-.53-.13-1.08-.13-1.28,.06-.02,.13-.03,.21-.03,.58,0,1.71,.43,2.56,.76,1.65,.63,2.7,1.02,3.25,1.02h12.38c1.16,0,1.65-.2,2.26-.91,1.02-1.14,1.54-1.39,1.79-1.39,.74,.08,4.11,2.48,4.11,3.48,0,.2-.13,.37-.26,.55l-.24,.33c-.7,.91-.99,1.29-1.08,2.5-.18,1.59-.09,9.22-.03,13.77l.03,2.77c0,2.04,0,2.97-.59,3.68-.9,1.05-2.26,1.54-2.89,1.54-1.01,0-1.18-.71-1.18-2.29,0-2.47-1.62-2.47-3.19-2.47h-9.84c-2.09,0-2.75,.52-2.94,2.33-.28,2.07-1.37,3.22-3.09,3.22Zm5.79-16.34c-1.5,0-2.79,0-2.79,2.23v5.47c0,2.07,1.42,2.07,2.79,2.07h10.87c1.88,0,2.79-.11,2.79-2.63,0-5.13-.07-5.48-.09-5.59-.34-1.56-1.13-1.56-2.7-1.56h-10.87Zm-.16-9.76c-2.39,0-2.63,.59-2.63,3.11v3.96c.35,1.68,1.46,1.68,2.63,1.68h11.19c1.17,0,2.28,0,2.62-1.56v-4.64c.01-2.43-.94-2.55-2.62-2.55h-11.19Z"/>
      <path d="M1053.64,91.39c-4.26,0-8-12.8-8-20.54,0-4.98,.63-7.28,3.27-16.99,1.41-5.07,1.41-7.09,1.41-8.56,0-2.46-.44-4.67-.82-5.81-.21-.57-.43-1.13-.45-1.27,3.36,.2,6.48,7.12,6.48,9.71,0,.75,0,.8-1.44,3.37-.97,1.85-6.18,13.48-6.18,20.75,0,2.65,.9,5.33,2.63,5.33,1.84,0,2.65-1.8,4.34-6.56,.12-.34,.26-.75,.39-1.07-.06,.55-.35,2.24-.63,3.88-.55,3.21-1.18,6.84-1.18,8.03s.65,2.8,1.21,4.11c.66,1.37,1.01,2.61,1.01,3.5,0,1.32-1.07,2.13-2.05,2.13Zm29.52-3.18c-7.45,0-10.32-1.82-11.99-3.41-1.43-1.42-2.29-2.75-2.29-3.56,0-.03,0-.05,.02-.05,.12,0,.59,.32,.83,.48,.27,.18,.51,.34,.63,.39,2.4,1.24,5.77,1.41,8.74,1.41,2.09,0,4.95,0,6.97-.24,.51-.04,2.12-.19,3.65-.33,1.57-.15,3.07-.29,3.27-.3,2.93,0,3.08,1.77,3.08,2.13,0,2.37-1.28,3.48-12.92,3.48Zm0-38.8c-8.71,0-13.17-4.57-13.32-5.33,.11,.21,.39,.29,.77,.39,.38,.11,.84,.23,1.32,.34,1.86,.41,4.03,.49,5.52,.49,4.1,0,7.84-.84,8.92-1.22,1.87-.69,2.38-.87,2.83-.87,1.47,.21,3.16,1.34,3.16,2.87,0,2.45-4.95,3.32-9.19,3.32Z"/>
      <path d="M1130.42,91.54c-2.42,0-3.18-2.24-3.98-4.61l-.16-.48-.22-.55c-.22-.53-.54-1.31-.7-1.73,.19,.11,.65,.24,1.53,.54,.95,.2,3.06,.59,4.25,.59,2.5,0,5.68-1.15,8.09-10.1,.75-2.71,2.48-9.49,2.48-13.96,0-6.52-4.39-6.52-6.04-6.52-2.47,0-7.31,1.16-8.06,2.12-.36,.46-.45,.76-1.15,3.14l-.13,.46c-3.4,11.56-10.96,29.91-16.76,29.91-1.72,0-1.97-1.23-1.97-1.97,0-1.43,.44-1.95,5.17-7.16,2.25-2.5,5.58-6.2,9.87-18.13,.23-.57,1.14-3.18,1.14-3.92s-.45-1.2-1.12-1.2c-.99,0-3.31,.81-5.76,1.67-2,.7-4.27,1.5-4.95,1.5-2.75,0-6.18-4.75-6.18-6.18,.04,0,.09-.01,.14-.01,.27,0,.69,.1,1.21,.23,1.86,.45,3.45,.82,4.04,.82,2.25,0,13.23-2.27,13.58-2.44,1.7-1.19,1.74-8.98,1.74-9.87,0-2.15-.16-4.64-2.11-7.09l-.36-.44c-.5-.6-.83-.99-.88-1.1,.02,.03,.05,.04,.12,.04,.13,0,.35-.04,.6-.04,5.15,0,7.84,2.94,7.84,4.51-.02,.02-.19,.62-.44,1.48-1.25,4.38-2.58,9.14-2.58,10.26,0,.78,.56,1.28,1.44,1.28,.18,0,1.01-.08,1.94-.17,1.12-.11,2.39-.23,2.74-.23,3.73,0,9.99,1.25,9.99,9.59,0,6.11-2.24,19.73-6.7,25.11-2.38,2.82-5.39,4.64-7.65,4.64Zm30.15-20.63c-.36-.02-1.89-.79-2.81-1.25-1.06-.53-1.97-.99-2.44-1.11-.13-.06-.49-.11-1.1-.2-.16-.02-.35-.05-.54-.09,.42-.25,1.03-.62,1.38-.83,.47-.29,.88-.53,1.04-.67,2.93-2.22,3.46-2.62,3.46-5.04,0-.68-.19-6.71-6.76-9.64-.66-.32-1.48-.71-1.63-.89,10.09,.31,13.37,10.34,13.37,13.79,0,.85-1.14,5.94-3.96,5.94Z"/>
    </g>
  </g>
  <g id="_06-sama" data-name="06-sama">
    <path class="cls-1" d="M594.83,111.68c-2.3,0-2.49-1.29-2.49-2.62,0-1.91,.16-4.66,.3-7.19,.08-1.39,.15-2.71,.2-3.81,.23-4.02,1.11-38.28,1.11-39.8,0-1.01-.5-1.72-1.23-1.72-.36,0-1.22,.25-1.85,1.2-10.63,16.54-14.51,20.22-15.91,20.36,.31-.16,1.28-1.61,2.29-3.13,1.2-1.79,2.47-3.7,2.83-4.31,8.56-14.48,12.25-33.21,12.25-35.19,0-2.21-1.37-3.33-4.07-3.33-.74,0-3.13,.18-5.32,.35-1.83,.14-3.52,.27-3.97,.27-.09,0-.22-.16-.47-.49l-2.48-2.87c1.47,.05,4.05,.21,6.61,.36,3,.19,5.95,.37,7,.37,4.82,0,4.82-4.31,4.82-5.93,0-5.9-.02-13.13-.13-14.08-.12-1.24-.41-3.04-.7-4.8-.33-1.98-.66-4.02-.66-4.91,.63,.01,5.41,.76,9.17,2.17,.7,.28,1.01,.5,1.01,1.05-.03,.37-.77,1.88-1.22,2.78-.6,1.2-.93,1.9-1,2.3-.87,3.36-1.25,14.66-1.25,18.58,0,2.73,1.51,2.96,3.2,2.96,.91,0,3.04,0,4.45-2.19,1.83-2.81,1.93-2.89,2.49-2.89,1.07,.11,6.51,5.06,6.98,6.14-.03,.83-2.66,.83-5.99,.83h-6.81c-4.69,0-4.69,1.96-4.69,7.79,0,2.23,1.02,2.82,3.5,4.23,9.91,5.57,11.24,9.65,11.24,13.24,0,3.32-1.56,5.47-3.98,5.47-3.01,0-3.47-2.11-4.48-8.8-.63-3.79-3.21-7.93-4.93-7.93-.5,0-1.35,.29-1.35,2.21,0,2.83,.03,8.83,.06,15.87,.07,14.58,.15,32.72,.07,37.77,0,5.86-.32,9.69-4.6,9.69Zm47.7-.37c-.33,0-.42-.12-.66-.62-2.38-5.02-8.64-7.77-10.2-8.4,.61,.03,1.32,.08,2.02,.13,1.44,.1,2.88,.19,3.39,.19,7.67,0,7.91-1.35,7.91-8.53,0-7.8,0-28.51-.12-31.5,0-2.72-1.44-4.29-3.95-4.29-5.18,0-14.76,.11-17.81,.5l-.92,.12c-.11,0-.17,0-.51-.45l-2.39-2.75c.45,.04,.97,.09,1.49,.14,.99,.1,1.98,.19,2.3,.19,4.38,.24,12.09,.49,16.85,.49,2.2,0,4.94,0,4.94-4.19,0-8.09,0-9.77-4.2-9.77-3.79,0-10.62,.12-13.93,.37h-.01c-.23,0-.91,.07-1.54,.14-.49,.05-.95,.11-1.11,.11-.04-.02-.14-.1-.41-.45l-2.4-2.77c.66,.04,1.5,.11,2.29,.17,1.11,.09,2.14,.17,2.5,.17,6,.33,10.93,.5,14.62,.5,4.2,0,4.2-3.05,4.2-5.06,0-6.75,0-9.03-4.2-9.03h-3.1c-3.48,0-9.94,.12-12.43,.25-.49,.13-2.24,.37-2.56,.37-.09,0-.22-.16-.47-.5l-2.34-2.84c1.41,.1,3.97,.35,4.55,.44,.45,.01,1.48,.05,2.92,.09,3.35,.11,8.9,.29,13.06,.29h8.18c3.46,0,4.86-.66,11.07-14.42,1.36-3.11,2.43-6.84,2.88-8.43,.11-.4,.19-.67,.22-.76,.14-.59,.25-.68,.25-.69,1.29,.31,9.79,4.06,10.25,5.3,0,.4-.43,.89-2.75,2.28-2.08,1.25-14.97,14.02-14.97,15.24,0,1.01,1.18,1.47,2.34,1.47,7.54,0,8.7,0,10.28-2.44,2.63-4.13,2.7-4.13,3.6-4.13,1.25,.31,10.47,6.14,10.93,7.52,0,.89-2.16,.94-5.97,.94h-20.19c-4.04,0-5.06,.98-5.06,10.02,0,2.7,1.54,4.07,4.57,4.07h3.22c5.07,0,5.72,0,6.92-1.05,.32-.32,.88-1.07,1.52-1.97,.87-1.21,2.67-3.72,3.28-3.93,.99,.45,9.83,6.46,10.23,7.77,0,.9-2.01,.94-5.84,.94h-19.7c-4.57,0-4.57,2.04-4.57,9.65,0,4.32,3.17,4.32,4.69,4.32h8.8c5.29,0,6.1,0,7.55-1.3,.36-.31,.87-1.02,1.68-2.16,.75-1.06,2.15-3.03,2.64-3.24,.77,.44,9.28,6.29,9.71,7.54-.01,.88-2.16,.93-5.97,.93h-3.96c-2.29,0-2.46,1.32-2.46,1.72,0,.71,.73,1.43,2.82,3.29,1.1,.99,3.16,2.82,3.25,3.41,0,.41,0,.45-2.85,1.4-5.03,1.81-6.04,2.71-13.88,9.69-.99,.86-1.48,1.3-1.48,2.4,0,3.4,15.04,14.9,27.04,15.57-.74,.41-1.64,.88-2.4,1.29-1.58,.84-3.13,1.66-3.63,1.99-.29,.21-.82,.67-1.46,1.23-.97,.85-2.99,2.62-3.53,2.75,0-.02-12.56-4.73-23.06-29.18l-.5-1.13c-.69-1.56-.89-2.03-1.78-2.03-1.35,0-1.35,1.39-1.35,1.84,0,.32-.13,3.6-.13,3.84,0,2.01,.3,7.38,.59,12.58,.27,4.82,.53,9.48,.53,11.09,0,5.21-.88,7.61-3.37,9.17-2.56,1.59-5.14,2.12-5.93,2.12Zm12.76-53.02c-1.25,0-4.57,0-4.57,3.83,0,2.48,5.66,14.97,8.41,14.97,3.45,0,12.12-14.77,12.12-16.58,0-.83-.3-2.21-2.34-2.21h-13.63Zm-35.53,44.85c-1.34-.43-6.46-8.69-7.02-10.04,.47,.12,.97,.17,1.5,.17,1,0,2.1-.19,3.3-.47,3.6-1.03,9.05-3.01,13.69-5.52,1.13-.63,4.44-2.42,6.15-3.29-1.17,1.34-3.81,3.83-6.02,5.92-4.52,4.27-9.19,8.68-10.06,10.7-.29,.76-.95,2.48-1.53,2.54Zm11.5-23.17c-2.23,0-3.05-1.55-4.54-4.78-1.07-2.44-4.06-8.72-8.54-13.92,.02,0,.03,0,.05,0,1.02,0,8.64,3.94,12.3,7.1,.94,.77,3.96,3.57,3.96,7.75,0,1.16-.32,3.86-3.24,3.86Zm5.82-58.85c-1.6,0-2.13-1.74-2.76-4.39-1.22-5.3-3.3-10.21-6.17-14.6-.57-.91-.63-1.06-.63-1.22,1.35,.23,6.87,2.81,11.5,7.8,2.27,2.63,2.53,4.73,2.53,6.07,0,4.32-2.67,6.33-4.48,6.33Z"/>
  </g>
  <g id="_05-shi" data-name="05-shi">
    <path class="cls-1" d="M474.25,111.8c-1.98,0-2.37-1.46-2.37-3.98,0-3.57,.12-13.98,.24-24.63,.13-11.19,.26-22.66,.26-26.78,0-2.49,0-3.85-.25-9.82,0-.67-.11-4.17-2.21-4.17-1,0-1.7,.76-3.42,2.59l-.45,.49c-6.8,6.84-10.71,10.06-11.51,10.18,0-.2,.51-.81,.71-1.03,4.15-5.61,8.92-13.22,13.07-19.91,9.55-15.66,13.59-29.41,13.73-31.17,.21-2.09,.33-3.34,.51-3.57,1.82,.02,11.64,5.81,11.91,7.36,0,.4-.1,.51-1.72,1.42l-.5,.28c-1.84,.93-14.3,19.36-13.86,21.83,.2,.99,1.23,1.75,1.75,2.01,2.08,1.27,2.08,1.3,2.08,1.58-.08,.19-.82,1.07-1.26,1.6-.65,.78-1.03,1.25-1.17,1.6-.21,.41-.92,1.83-.92,19.22,0,5.11,.13,31.87,.49,40.17,0,.54,.12,2.14,.25,3.74,.12,1.56,.25,3.11,.25,3.66,0,5.48-3.84,7.33-5.59,7.33Zm14.62-.99c-.13,0-.29-.09-.33-.14,.28-.1,2.15-.64,3.51-1.03,21.97-6.33,27.41-19.49,27.41-21.14,0-.97-.92-1.95-2.95-4.09l-.47-.5c-7.47-7.47-9.47-15.97-9.47-16.84,0-.19,.04-.51,.26-.51,.28,0,.66,.76,1.2,1.93,3.38,7.73,11.24,14.67,12.68,14.67,2.82,0,3.21-17.27,3.21-17.45,0-1.42,0-5.19-4.69-5.19h-12.14c-2.74,0-3.15,1.08-4.15,3.69-.57,1.61-2.3,2.38-5.27,2.38-.87,0-2.49,0-2.49-2.86,0-1.14,.1-4.25,.19-7.27,.09-2.86,.18-5.64,.18-6.61,0-1.28-.1-4.81-.19-8.24-.09-3.25-.18-6.41-.18-7.49,0-.89,.11-1.06,.13-1.08h.04c.98,0,3.47,1.28,4.55,1.83,.6,.31,1.09,.56,1.34,.66,2.1,1.05,3.35,1.3,6.61,1.3h11.52c2.71,0,4.32-1.39,4.32-3.71,0-11.01,0-12.99-4.57-12.99h-5.45c-2.8,0-11.31,0-15.67,.37h-.01c-.23,0-.87,.07-1.47,.14-.46,.05-.9,.11-1.06,.11-.13,0-.19,0-.53-.45l-2.4-2.76c1.43,.09,4.08,.35,4.68,.45,5.85,.27,11.25,.38,17.09,.38h4.58c2.82,0,4.2-1.29,4.2-3.95,0-2.04-.21-4.5-.34-6.06l-.26-2.01c-.24-1.6-.64-4.28-.64-4.95,0-.91,.21-1,1.13-1,2.27,0,10.42,1.67,10.42,3.36-.06,.2-.64,.97-.95,1.39-.52,.7-.8,1.07-.88,1.41-.5,1.63-.64,3.38-.64,8.11,0,3.7,3.23,3.7,4.44,3.7h9.54c5.67,0,6.54,0,8.49-2.37l.38-.45c3.1-3.65,3.33-3.87,4.13-3.87,1.31,.1,8.48,6.21,8.82,7.51,0,.95-2.64,.95-5.97,.95h-25.4c-4.01,0-4.44,2.76-4.44,3.95,0,11.79,0,12.75,4.32,12.75h12.51c3.33,0,4.16-.48,5.65-2.39,1.18-1.53,1.86-1.71,2.28-1.71,1.62,0,7.66,4.13,7.95,5.15,0,.34,0,.37-1.58,1.61-2.51,1.95-2.51,3.16-2.51,10.98l.04,2.92c.06,3.53,.15,9.43-.03,10.46-.1,1.4-2.11,3.85-4.73,3.85-2.15,0-2.46-1.11-2.74-4.05-.13-1.07-.39-3.13-3.82-3.13h-12.89c-4.12,0-4.21,1.61-4.57,8.37-.25,4.99-1.63,12.29-2.83,17.47,.79,3,19.35,11.42,38.13,11.42,1.62,0,2.91,0,3.61,.07-.21,.18-.45,.36-.6,.48-.29,.23-.54,.43-.68,.56-3.36,3.48-5.02,5.26-6.21,7.63-.55,1.17-.98,2.08-1.16,2.21-1.4-.02-12.25-2.07-27.8-11.19-.32-.19-.89-.59-1.58-1.07-3.28-2.28-5.01-3.37-5.98-3.37-.8,0-1.64,.85-3.51,2.95-.68,.76-1.37,1.54-1.95,2.07-4.63,4.39-12.01,9.75-28.24,12.33-.62,.13-2.51,.36-3.11,.36Zm46.46-72.23c-1.07,0-4.32,0-4.32,4.2,0,12.48,.11,12.9,.14,13.06,.36,1.97,1.69,2.91,4.18,2.91h12.76c2.82,0,4.2-1.42,4.2-4.32,0-12.23-.11-12.65-.15-12.82-.21-1.97-1.58-3.03-4.05-3.03h-12.76Zm-27.75,0c-4.69,0-4.69,1.73-4.69,10.02s0,10.15,4.69,10.15h11.77c4.69,0,4.69-1.53,4.69-10.02s0-10.14-4.69-10.14h-11.77Z"/>
  </g>
  <g id="_04-2-tenn" data-name="04-2-tenn">
    <path class="cls-2" d="M451.96,90.67c-1.78-1.08-4.66-1.4-7.81-2.12-1.25,1.19-3.9,2.9-7.26,2.86,2.87-.69,4.54-2.13,5.75-3.2-3.61-.82-7.67-1.79-11.71-3.19-6.41,3.73-10.29,.45-10.29,.45,3.53,1.95,7.18,.67,9.59-.7-4.5-1.62-8.94-3.82-12.64-6.99-3.19-1.04-4.52-2.95-4.52-2.95,.93,.95,2.13,1.52,3.32,1.87-2.28-2.19-4.23-4.8-5.67-7.94,0,0,1.67-.78,3.17,1.98,0,0-.39-2.73-4.54-3.48,0,0,.22-1.98,2.38-.38,2.15,1.6,2.52,3.13,4.05,2.54,0,0-1.61-.49-3.38-3.1-1.77-2.6-4.59-2.45-4.59-2.45,0,0-2.29-4.85-3.16-7.21,4.31,28.21,17.85,35.87,28.29,38.49-1.85,.35-24.2-.41-29.01-40.69l-.44-11.16-2.02-.36,.75,9.57s1.01,10.59-1.05,15.01c-2.28,4.89-1.65,8.45,.77,12.92,.27-3.25,1.06-5.14,1.06-5.14-.51,1.59-.47,4.26-.31,6.5,.81,1.44,1.56,2.69,2,3.62,.81,1.69,7,10.43,15.41,17.37-4.04-7.27-3.25-11.19-3.25-11.19,.15,4.43,2.76,9.27,4.86,12.47,3.79,2.91,7.95,5.37,12.24,6.65-1.76-1.83-3.59-4.21-4.55-6.86-2.18-6.04-4.66-10.68,.12-1,2.02,4.11,4.04,6.64,5.68,8.2,4.77,1.15,9.66,.76,14.31-2.17-7.79-3.89-8.78-8.63-8.78-8.63,2.46,4.73,6.74,7.09,9.49,8.17,2.45-1.69,10.58-3.72,17.23-11.08,0,0-7.36-1.75-15.49-6.67Z"/>
  </g>
  <g id="_04-tenn" data-name="04-tenn">
    <path class="cls-1" d="M344.58,112.89c.56-.33,1.14-.65,1.47-.81,13.99-8.22,25.89-19.26,32.71-30.31,8.11-13.1,10.37-29.03,10.37-30.42,0-2.15-1.62-3.48-4.24-3.48h-16.77c-10.86,0-14.59,.24-15.85,.38h-.02c-.22,0-.89,.11-1.5,.21-.45,.08-.86,.15-1.03,.16-.09,0-.22-.16-.48-.51l-2.48-2.87c1.41,.09,4.02,.36,4.73,.46,6.58,.27,11.71,.38,17.25,.38h16.64c1.19,0,3.17,0,4.14-1.61,.82-1.36,.85-9.25,.85-25.53,0-3.49,0-6.24-4.49-6.24h-22.65c-10.85,0-14.59,.24-15.85,.38-.5,.11-2.3,.24-2.67,.24-.04-.02-.14-.09-.41-.46l-2.42-2.78c.56,.04,1.26,.09,1.96,.14,1.21,.1,2.42,.19,2.87,.19l1.8,.08c5.27,.22,10.06,.42,15.35,.42h63.19c5.4,0,7.04,0,8.63-2.46,4.15-6.54,4.45-6.92,5.26-6.92,1.58,.31,10.02,8.51,10.02,10.28,0,.89-2.86,.89-5.89,.89h-41.05c-4.08,0-4.23,2.56-4.35,4.62l-.17,4.89c-.23,6.68-.59,17.36-.59,19.75,0,4.11,2.26,4.11,3.61,4.11h18.15c5.4,0,7.03,0,8.63-2.46l.29-.44c3.18-4.83,3.56-5.36,4.35-5.36,1.6,.13,10.68,7.69,11.03,9.2,0,.85-2.74,.85-5.9,.85h-31.03c-.77,0-5.24,.62-7.51,.62-2.38,0-2.76,2.83-2.99,4.52-1.87,10.88-4.41,25.6-20.18,41.12-12.84,12.53-27.8,17.56-32.78,18.76Z"/>
  </g>
  <g id="_03-no" data-name="03-no">
    <path class="cls-1" d="M293.78,96.31c-.17,0-.28-.03-.34-.05,0,0,.02,0,.03,0,.31,0,1.39-.43,2.44-.85,11.53-4.55,35.54-14.03,35.54-41.77,0-7.27-2.23-31-31-31-2.03,0-3.02,.74-3.02,2.26,0,.25,.06,.48,.12,.7l.1,.59,.3,2.21c.39,2.82,.79,5.74,.79,9.5,0,6.35-1.15,16.53-11.14,31.62-9.09,13.85-14.44,15.63-18.08,15.63-6.89,0-12.93-11.15-12.93-23.86,0-10.16,4.01-19.37,11.92-27.36,13.67-14,28.16-14,34.35-14,9.17,0,13.72,1.65,17.27,3.42,11.66,5.72,18.62,17.36,18.62,31.15s-8.37,31.24-27.06,37.78c-9.42,3.32-16.52,4.01-17.9,4.01Zm.55-73.34c-11.39,0-32.43,14.63-32.43,35.49,0,6.79,2.78,17.56,10.24,17.56,3.67,0,6.56-1.88,13.94-13,6.78-10.37,10.83-22.41,10.83-32.21,0-6.26-.3-7.83-2.59-7.83Z"/>
  </g>
  <g id="_02-tonari" data-name="02-tonari">
    <path class="cls-1" d="M143.19,112.17c-2.02,0-2.74-1.21-2.74-2.24,0-.42,.48-6.24,.62-7.61,.62-11.45,.62-25.44,.62-44.8,0-25.39,0-42.16-.5-47.4-.18-1.27-.62-4.62-.62-5.26,1.21,.11,4.19,1.35,5.51,2.02,2.25,1.19,3.64,1.19,5.41,1.19h7.93c1.85,0,3.64-.17,5.28-2.26,.02-.02,.18-.21,.37-.46,.24-.31,.82-1.04,1.03-1.18,.71,.34,7.25,4.42,7.73,5.42-.03,.17-1.52,1.01-2.72,1.68-.48,.36-1.69,2.15-5.66,8.18-2.48,3.75-5.04,7.63-5.99,8.88-.18,.26-.58,.78-1.07,1.43-3.14,4.13-3.29,4.45-3.29,4.84,0,.75,1,2.01,2.97,3.77,9.32,8.54,11.28,15.87,11.28,20.51,0,12.67-8.76,22.32-13.15,22.32-.5-.33-1.89-3.66-2.42-4.92-.27-.66-.5-1.2-.65-1.5-.02-.03-1.5-2.88-3.38-2.88-.48,0-1.59,.22-1.59,2.21,0,2.49,.1,9.28,.19,15.9,.09,6.26,.18,12.35,.18,14.46,0,3.83,0,4.42-1.42,5.95-1.04,1.04-2.62,1.75-3.92,1.75Zm9.17-102.21c-2.15,0-4.21,.39-4.68,3.21-.12,.72-.13,24.67-.13,34.94,0,13.37,.24,19.95,.8,21.33,.92,2.31,6.32,2.57,8.6,2.57,1.34,0,2.99-.21,3.97-1.84,2.15-3.22,2.95-9.85,2.95-13.26,0-6.45-1.97-11.88-6.58-18.15l-.96-1.34c-1.26-1.74-1.37-1.92-1.37-2.69,.06-.12,.67-1.58,1.52-3.64,3.43-8.28,6.78-16.51,6.78-18.29,0-2.83-2.42-2.83-3.58-2.83h-7.31Zm72.11,101.71c-2,0-2-1.11-2-2,0-.75,.13-2.75,.25-4.71,.12-1.91,.24-3.79,.24-4.46,0-7.52-.1-7.93-.14-8.1-.64-2.53-2.69-2.53-4.05-2.53h-5.95c-2.79,0-11.29,0-15.65,.25h0c-.17,0-.77,.1-1.38,.2-.5,.08-1,.17-1.19,.18-.09,0-.22-.16-.47-.5l-2.35-2.86c1.26,.05,3.34,.18,5.37,.31,2.4,.15,4.73,.29,5.51,.29,3.95,0,3.95-2.06,3.95-6.18,0-11.7-.12-13.08-.89-16.4-.06-.23-.22-.66-.39-1.12-.07-.19-.16-.44-.25-.67,1.19,.37,3.43,1.26,4.64,1.75,.9,.36,1.65,.66,1.99,.77,1.37,.37,2.76,.53,4.57,.53h2.35c4.07,0,4.07-2.52,4.07-5.19,0-6.53-.12-7.51-.38-8.93-.55-1.16-.61-1.4-.61-1.43,.21,.47,3.45,1.29,5.59,1.82,1.54,.39,2.9,.72,3.32,.82,.75,.26,.79,.37,.79,.65-.09,.09-.83,.78-1.18,1.11-.44,.42-.68,.64-.81,.83-.74,1.33-.74,1.95-.74,5.98,0,1.4,0,4.32,3.33,4.32,1.02,0,2.17-.08,2.92-1.01,.18-.13,.7-.77,1.29-1.52,.65-.81,2-2.51,2.45-2.69,.85,.42,6.99,5.6,7.23,6.75-.16,.23-1.11,.23-2.12,.23h-11.02c-4.07,0-4.07,3-4.07,5.19,0,11.34,.1,11.87,.14,12.04,.55,2.57,2.92,2.57,4.06,2.57,2.62,0,3.18-.52,5.37-2.97l1.11-1.24c.64-.72,1.06-1.2,1.19-1.28,.9,.39,7.54,5.18,7.7,6.38,0,.62-.69,.87-2.37,.87-.39,0-4.17,.13-4.46,.13h-8.54c-3.95,0-3.95,2.73-3.95,4.2,0,1.36,.42,5.95,.77,9.65,.19,2.06,.35,3.71,.35,3.98,0,2.6-4.68,3.98-5.59,3.98Zm-8.55-43.49c-3.45,0-3.45,1.58-3.45,9.15s.21,8.14,.28,8.38c.65,2.26,2.29,2.26,5.9,2.26,4.32,0,4.32-1.56,4.32-9.03s-.2-8.16-.29-8.41c-.63-2.36-2.17-2.36-6.76-2.36Zm-52.87,38.23c2.36-1.6,5.5-3.84,7.49-5.47,6.76-5.47,12.29-13.15,12.29-14.19,0-.89-1.05-1.23-1.72-1.23-1.11-.11-1.77-.18-2.14-1.68-1.09-4.65-2.05-8.73-4.92-8.73-.96,0-2.42,1.22-5.54,4.12-.9,.83-1.67,1.55-2.07,1.83-1.59,1.23-3.27,2.28-4.58,3.03,8.35-8.54,15.01-19.06,19.8-31.27,.25-.57,.6-1.39,.74-1.57,.74,.18,7.92,2.22,8.54,3.19-.04,.11-.04,.15-1.71,.83l-.48,.2c-.28,.2-3.92,4.38-3.92,6.13,0,.57,.23,1.88,2.31,1.88,.24,0,.48-.02,.72-.05h3.27c1.13,0,1.6,0,2.83-.4,.29-.16,.53-.36,.82-.6,.41-.34,1.36-1.13,1.65-1.23,4.78,1.89,6.36,3.14,6.48,3.53,0,.33-.13,.88-1.21,1.42-1.29,.57-1.76,.85-2.79,2.79-6.62,12.87-13.86,22.52-22.13,29.52-3.66,3.14-10.04,6.75-13.74,7.96Zm22.51-41.08c-2.45,0-3.79,0-6.36,2.84-.28,.37-.8,.97-1.39,1.67-2.66,3.12-3.01,3.66-3.01,4.14,0,.96,1.21,1.65,4.12,2.91,.44,.2,.8,.35,.94,.43,1.95,1.15,2.61,2.12,3.46,3.59,.73,1.55,.93,1.97,1.5,1.97,1.72,0,8.29-13.47,8.29-14.97,0-2.59-2.42-2.59-3.33-2.59h-4.21Zm16.73-9.79c-1.39,0-1.88-.13-1.88-1.5,0-.5,.2-1.89,.39-3.24,.19-1.34,.36-2.64,.36-3.07,.25-3.44,.37-6.43,.37-9.17,0-.56-.13-6.75-.13-7.31,0-1.93-.92-2.21-1.47-2.21-.85,0-3.24,3.23-3.26,3.26-6.55,7.69-11.64,12.35-22.58,17.63-.02,.02-.04,.03-.06,.04,12.07-10.34,18.58-21.12,18.58-23.29s-1.9-2.22-2.71-2.22c-4.87,0-10.93,0-15.91,.37h0c-.26,0-1.41,.09-2.36,.16-.63,.05-1.17,.09-1.29,.09-.09-.03-.36-.3-.58-.52l-2.23-2.7c.54,.04,1.25,.1,1.95,.15,1.2,.1,2.4,.19,2.84,.19,5.15,.23,11.02,.5,16.98,.5h7.93c4.2,0,4.2-3.07,4.2-5.31,0-7.61,0-11.43-.13-12.83,0-.28-.14-1.27-.27-2.2-.11-.76-.22-1.48-.22-1.7,.04,0,.08,0,.13,0,1.15,0,6.47,1.1,8.85,1.82,.66,.19,1.34,.63,1.34,1.04,0,.38-.07,.57-1.72,1.46-.99,.7-1.37,1.36-1.37,2.25-.37,2.55-.37,7.08-.37,9.79,0,3.18,0,5.68,4.82,5.68h12.89c3.43,0,3.71,0,4.56-.28,.9-.33,2.25-1.95,4.35-4.58,.87-1.08,1.95-2.43,2.25-2.63,.77,.48,8.29,6.84,8.29,8.38,0,.41-.38,.88-3.36,.88h-26.26c-.66,0-2.21,0-2.21,1.6,0,3.29,10.16,10.81,23.76,15.92,1.43,.57,8.41,2.23,12.32,3.14l-.24,.06c-6.06,1.89-7.59,3.69-9.57,6.47-.13,.24-.39,.53-.5,.58-1.63-.32-19.33-9.96-26.12-24.25-1.14-2.54-1.41-3.14-2.89-3.14-1.97,0-1.97,1.67-1.97,2.22,0,1.85,.13,6.93,.26,11.88,.12,4.68,.24,9.22,.24,10.79,0,2.33,0,5.84-5.96,5.84Zm12.41-36.71c.27-.43,.78-1.15,1.69-2.34,3.83-6.13,6.01-11.05,6.43-12.7,.08-.22,.23-.98,.36-1.64,2.29,.77,8.32,3.99,8.49,5.07,0,1.09-1.93,1.48-3.54,1.62-.8,.07-2.28,1.25-5.99,4.34-2.28,1.9-5.9,4.93-7.43,5.65Zm-27.28-.58c-1.69,0-2.11-.98-3.61-5.13-1.53-4.45-2.82-6.62-3.96-8.54l-.19-.32,.03,.02c6.01,2.83,11.21,5.28,11.21,9.37,0,1.28-.63,4.6-3.48,4.6Z"/>
  </g>
  <g id="_01-o" data-name="01-o">
    <path class="cls-1" d="M88.05,97.8c-5.99,0-12.03-2.88-12.03-9.31,0-5.34,4.62-8.95,5.48-9.06l-.5,.48c-.39,.52-1.24,1.66-1.24,3.75,0,4.24,3.2,6.67,8.78,6.67,9.29,0,19.31-6.15,19.31-16.09,0-8.86-6.55-14.35-12.62-14.35-3.1,0-10.6,1.22-25.99,9.38-7.18,3.84-8.07,4.32-8.07,6.83,0,.7,.1,2.52,.19,4.3,.09,1.66,.18,3.28,.18,3.88,0,5.3-1.78,13.15-5.59,13.15-2.73,0-3.9-1.89-5.05-4.18-3.99-7.74-4.77-8.08-6.85-8.08-1.07,0-2.17,.38-2.97,.66-.68,.27-1.1,.53-1.61,.84-.82,.5-2.75,1.68-3.24,1.72-.98,0-6.94-3.39-6.94-7.08,0-1.94,1.18-4.1,2.86-4.1,.36,0,1.4,.16,2.44,.3,1.13,.16,2.25,.32,2.64,.32,3.42,0,5.69-.59,13.21-4.28,6.33-3.1,7.47-3.66,7.47-7.59,0-2.91-.13-13.44-.25-15.52,0-1.35-.66-3.41-2.46-3.41-1.6,0-5.11,.87-5.93,1.15l-1.19,.4c-5.1,1.7-5.76,1.92-7.38,1.92-3.57,0-8.02-7.79-8.2-8.74,.1-.02,.19-.03,.29-.03,.32,0,.61,.09,.91,.16,.65,.18,1.03,.27,1.3,.27,2.54,.44,4.23,.62,5.7,.62,4.4,0,15.24-2.92,16.25-3.93,.96-1.33,1.45-13.9,1.45-14.03,0-3.96-.66-6.66-4.29-10.41-1.35-1.36-1.56-1.68-1.59-1.73,.06-.04,1.12-.38,2.05-.38,7.9,0,12.03,5.71,12.03,7.69,0,.56-1.09,2.91-1.68,4.17-.44,.95-.8,1.75-.9,2.07-.05,.31-.14,.76-.26,1.35-.38,1.93-1.01,5.16-1.01,6.9,0,1.01,.6,2.09,1.72,2.09,1.01,0,5.06-1.48,5.06-3.83,0-.25-.1-.51-.37-1.14-.11-.27-.23-.54-.26-.68,2.05,.3,6.73,1.92,6.73,4.92,0,3.44-8.7,7.04-11.56,8.22-2.56,.94-2.68,1.89-2.93,6.24-.24,2.6-.25,11.64-.25,13.42,0,.73,0,2.96,1.84,2.96,.28,0,.71-.14,7.85-3.03,2.17-.88,4.15-1.68,4.92-1.97,11.64-4.35,17.23-4.91,20.8-4.91,8.82,0,18.35,6.87,18.35,17.98,0,16.3-17.36,23.06-26.65,23.06Zm-31.59-20.94c-.54,0-9.03,4-9.03,6.43,0,2.2,3.61,6.55,5.93,6.55,2.47,0,4.2-4.22,4.2-10.27,0-1.31-.12-2.2-.69-2.59l-.19-.13h-.22Zm61.14-26.41l.42-.73c.27-.67,.5-1.35,.5-2.23,0-5.1-5.77-7.42-11.13-7.42-2.09,0-3.31,.52-5.01,1.25-.57,.28-.84,.36-1.06,.36,.49-.66,5.39-6.84,12.88-6.84,9.61,0,14.63,5,14.63,9.93,0,2.13-1.2,5.22-3.36,5.22-.38,0-1.32-.07-2.22-.13-.86-.06-1.69-.12-1.99-.12-.37,.06-.86,.19-1.42,.33-.71,.19-2.02,.52-2.29,.54l.06-.15Z"/>
  </g>
</svg>