<svg xmlns="http://www.w3.org/2000/svg" width="686.375" height="145.906" viewBox="0 0 686.375 145.906">
  <defs>
    <style>
      .cls-1 {
        fill: #fff;
        fill-rule: evenodd;
      }
    </style>
  </defs>
  <path id="logo-message.svg" class="cls-1" d="M13.6,86.85q3.485,0,10.5.373V84.405a31.005,31.005,0,0,1-5.393-.373,2.464,2.464,0,0,1-1.411-.746,1.378,1.378,0,0,1-.332-0.953,12.477,12.477,0,0,1,1.2-4.186L22.687,67.5H46.707l5.1,12.682a6.735,6.735,0,0,1,.581,2.363,1.407,1.407,0,0,1-.353.974,2.5,2.5,0,0,1-1.348.6,45.816,45.816,0,0,1-5.642.29v2.818l13.359-.414q2.572,0,9.044.414V84.405a12.224,12.224,0,0,1-4.211-.5A4.289,4.289,0,0,1,61.518,82q-1.411-2.569-5.725-12.682L38.078,27.748h-2.7q-5.56,13.3-7.26,17.159L17.75,68.283Q13.1,78.4,12.356,79.929a13.337,13.337,0,0,1-1.971,3.336,3.59,3.59,0,0,1-1.494.87,21.9,21.9,0,0,1-4.086.269v2.818q4.77-.373,8.8-0.373h0ZM34.676,38.98L45.048,63.972H24.1ZM80.562,86.892q4.272,0,9.915.331v-2.4q-4.315-.083-4.605-0.124a2.577,2.577,0,0,1-1-.435,1.711,1.711,0,0,1-.5-0.642,7.774,7.774,0,0,1-.5-3.023q-0.042-.87-0.249-11.639v-21.5L83.715,41q0.041-5.218.249-12.632L84.005,27a5.883,5.883,0,0,0,.083-0.828,0.754,0.754,0,0,0-.166-0.517,0.581,0.581,0,0,0-.456-0.187,2.195,2.195,0,0,0-.83.249q-3.651,1.74-13.027,2.9V31.06q5.1,0,5.725.29a1.154,1.154,0,0,1,.664.58,27.27,27.27,0,0,1,.456,5.55q0.249,7.373.249,14.289V68.957q-0.249,11.349-.29,11.887a7.253,7.253,0,0,1-.539,2.941,1.927,1.927,0,0,1-.726.684,3.177,3.177,0,0,1-1.39.31l-3.9.041v2.4q6.637-.331,10.7-0.331h0Zm40.484,0.787,1.369-3.813q1-2.528,2.614-6.134l4.688-10.4L133.7,58.75,143.159,82.5l1.991,5.181h3.9a47.9,47.9,0,0,1,1.742-5.222q2.655-7.045,3.195-8.413l1.866-4.642L160.21,59.04a39.529,39.529,0,0,1,3.36-6.631,3.7,3.7,0,0,1,1.452-1.305,9.1,9.1,0,0,1,3.236-.435V48.306q-4.979.29-7.882,0.29-2.408,0-8.713-.29v2.362q4.564,0.084,5.373.6a1.845,1.845,0,0,1,.809,1.679,16.837,16.837,0,0,1-.954,4.269q-1.7,5.555-4.73,13.429L149.05,78.81q-1.245-3.067-3.693-9.118l-4.771-12.019q-0.995-2.445-3.733-10.03H134.82q-1.909,4.933-4.066,9.781l-6.1,13.636L121.5,78.271q-1.37-3.9-2.324-7.253l-3.858-13.346a28.113,28.113,0,0,1-1.2-5.1,1.561,1.561,0,0,1,.353-1.016,1.917,1.917,0,0,1,1.141-.6,32.442,32.442,0,0,1,5.019-.29V48.306q-4.812.29-10.371,0.29-5.228,0-9.791-.29v2.362a18.319,18.319,0,0,1,3.962.622,3.129,3.129,0,0,1,1.369,1.119,37.067,37.067,0,0,1,2.282,5.968q1.721,5.182,3.381,10.735l3.858,12.807,1.742,5.761h3.983Zm61.44-32.742,0.747-1.492a6.627,6.627,0,0,1,2.261-1.119,12.7,12.7,0,0,1,4.294-.663,11.087,11.087,0,0,1,5.767,1.409,8.083,8.083,0,0,1,3.36,3.606,14.85,14.85,0,0,1,.954,6.134,93.582,93.582,0,0,0-10.724,1.906,44.756,44.756,0,0,0-7.82,2.4,9.863,9.863,0,0,0-2.78,2.052,11.555,11.555,0,0,0-2.344,3.751,13.563,13.563,0,0,0-.975,5.222,9.369,9.369,0,0,0,2.8,7.108q2.8,2.673,7.82,2.673a8.691,8.691,0,0,0,3.982-.808q1.576-.808,10.04-7.191l-0.207,7.294q4.147-.289,6.638-0.29,2.571,0,5.974.29V84.861l-2.7-.249a4.474,4.474,0,0,1-1.742-.332,1.716,1.716,0,0,1-.789-0.912,8.8,8.8,0,0,1-.331-2.86V68.158l0.166-7.585a15.313,15.313,0,0,0-1.079-6.341,11.163,11.163,0,0,0-4.813-5.1,16.322,16.322,0,0,0-7.965-1.782,17.924,17.924,0,0,0-5.767.87,44.28,44.28,0,0,0-8.629,4.642q0.041,1.037.042,2.777,0,1.658-.042,2.611l2.2,0.58q0.538-1.409,1.659-3.9h0ZM199.869,76.53a21.635,21.635,0,0,1-5.414,4.787,10.752,10.752,0,0,1-5.5,1.6,6.35,6.35,0,0,1-4.729-1.72,6.507,6.507,0,0,1-1.7-4.787,9.815,9.815,0,0,1,1.078-4.6,5.768,5.768,0,0,1,1.66-2.114,17.514,17.514,0,0,1,5.393-2.321,81.692,81.692,0,0,1,9.21-2.031V76.53Zm23.871,33.924a9.075,9.075,0,0,0,2.468.311,11.292,11.292,0,0,0,5.186-1.2,11.463,11.463,0,0,0,4.066-3.52,42.14,42.14,0,0,0,4.024-7.746l9.583-22.365q6.348-13.916,8.692-18.659t3.506-5.571a6,6,0,0,1,3.277-.911l0.415-2.528q-3.651.29-7.385,0.29-3.693,0-8.5-.29v2.528q4.356,0.415,5,.85a1.4,1.4,0,0,1,.643,1.222,4.9,4.9,0,0,1-.166,1.161q-0.54,1.907-3.776,10.03T246.246,75.08l-2.2,4.891q-1.619-3.606-3.983-9.408L237.451,64.1q-1.452-3.606-3.07-8.7a11.152,11.152,0,0,1-.705-2.736,1.5,1.5,0,0,1,1.079-1.492,29.289,29.289,0,0,1,4.9-.539V48.264q-4.523.29-9.417,0.29-5.021,0-10.165-.29v2.362a11.169,11.169,0,0,1,3.8.849,4.775,4.775,0,0,1,1.6,2.05q1.867,3.893,4.813,11.181l6.6,16.318q1.868,4.639,3.195,8.366-1.743,4.6-3.941,9.029a20.281,20.281,0,0,1-2.51,4.141,6.9,6.9,0,0,1-2.282,1.76,5.979,5.979,0,0,1-2.51.559,6.531,6.531,0,0,1-1.888-.207,4.474,4.474,0,0,1-1.2-.6q-0.559-.394-1.348-1.057h-1l-2.116,6.383A12.245,12.245,0,0,0,223.74,110.454Zm48.268-28.66a26.341,26.341,0,0,1-.5,3.481,3.638,3.638,0,0,0-.083.7,0.483,0.483,0,0,0,.166.414,15.035,15.035,0,0,0,3.526.87,56.013,56.013,0,0,0,9.5,1.078q7.756,0,12.384-4.165a12.762,12.762,0,0,0,4.625-9.76,9.236,9.236,0,0,0-1.2-4.829,7.439,7.439,0,0,0-3.173-2.963,43.559,43.559,0,0,0-7.2-2.279l-6.887-1.7a11.281,11.281,0,0,1-3.029-1.306,5.376,5.376,0,0,1-1.722-1.886,5.643,5.643,0,0,1-.642-2.777,6.826,6.826,0,0,1,2.219-5.056,8.068,8.068,0,0,1,5.87-2.155,12.4,12.4,0,0,1,4.336.663,11.446,11.446,0,0,1,2.883,1.513,6.273,6.273,0,0,1,1.577,1.6,6.827,6.827,0,0,1,.726,1.7,24.56,24.56,0,0,1,.477,3.979h2.364q0.125-4.766.415-9.367a23.634,23.634,0,0,0-5.6-1.8,29.9,29.9,0,0,0-6.058-.725,18.825,18.825,0,0,0-8.048,1.72,12.227,12.227,0,0,0-5.414,4.476,11.164,11.164,0,0,0-1.722,6.03,10.505,10.505,0,0,0,.809,4.145,8.855,8.855,0,0,0,2.179,3.15,11.359,11.359,0,0,0,3.692,2.114q1.534,0.539,6.8,1.741a42.36,42.36,0,0,1,6.866,1.948,5.671,5.671,0,0,1,2.447,2.072,5.557,5.557,0,0,1,.851,3.067,7.521,7.521,0,0,1-2.717,6.134,10.572,10.572,0,0,1-6.95,2.238,32.273,32.273,0,0,1-3.837-.166,9.5,9.5,0,0,1-2.489-.684,8.066,8.066,0,0,1-2.261-1.451,5.64,5.64,0,0,1-1.535-2.279,13.7,13.7,0,0,1-.706-2.756,31.309,31.309,0,0,1-.249-3.813h-2.489Q272.133,80.1,272.008,81.794Zm85.577,5.885,1.369-3.813q1-2.528,2.614-6.134l4.688-10.4,3.982-8.579L379.7,82.5l1.992,5.181h3.9a47.713,47.713,0,0,1,1.743-5.222q2.654-7.045,3.194-8.413l1.867-4.642,4.356-10.362a39.506,39.506,0,0,1,3.361-6.631,3.691,3.691,0,0,1,1.452-1.305,9.1,9.1,0,0,1,3.236-.435V48.306q-4.979.29-7.883,0.29-2.406,0-8.712-.29v2.362q4.563,0.084,5.373.6a1.845,1.845,0,0,1,.809,1.679,16.852,16.852,0,0,1-.955,4.269q-1.7,5.555-4.729,13.429l-3.112,8.165q-1.243-3.067-3.692-9.118l-4.771-12.019q-1-2.445-3.734-10.03h-2.032q-1.909,4.933-4.066,9.781l-6.1,13.636-3.153,7.212q-1.368-3.9-2.323-7.253L351.86,57.672a28.019,28.019,0,0,1-1.2-5.1,1.565,1.565,0,0,1,.352-1.016,1.92,1.92,0,0,1,1.141-.6,32.459,32.459,0,0,1,5.02-.29V48.306q-4.814.29-10.372,0.29-5.226,0-9.791-.29v2.362a18.346,18.346,0,0,1,3.963.622,3.134,3.134,0,0,1,1.369,1.119,37.112,37.112,0,0,1,2.281,5.968q1.722,5.182,3.382,10.735l3.858,12.807,1.742,5.761h3.983Zm61.148-57.444a4.512,4.512,0,0,0-1.369,3.316,4.463,4.463,0,0,0,1.369,3.274,4.521,4.521,0,0,0,3.319,1.368,4.672,4.672,0,0,0,4.646-4.642,4.552,4.552,0,0,0-1.348-3.316,4.455,4.455,0,0,0-3.3-1.368A4.521,4.521,0,0,0,418.733,30.235Zm-1.265,23.231a1.725,1.725,0,0,1,.891.932q0.416,1.161.415,7.336v7.294q-0.249,11.357-.249,11.9a7.6,7.6,0,0,1-.58,2.943,1.933,1.933,0,0,1-.726.684,3.071,3.071,0,0,1-1.349.311l-3.941.041v2.321q7.551-.289,10.869-0.29,3.775,0,10.082.29V84.9q-4.356-.083-4.605-0.124a2.565,2.565,0,0,1-1-.435,2.174,2.174,0,0,1-.539-0.642,8.538,8.538,0,0,1-.457-3.026q-0.042-.87-0.248-11.646V61.485q0-4.683.331-13.511l-0.912-.663a43.433,43.433,0,0,1-13.525,3.481v2.362Q416.824,53.155,417.468,53.466Zm27.274,1.057h1.7v17.2c0,0.525-.015,1.009-0.042,1.451q-0.125,3.357-.166,6.176a11.7,11.7,0,0,0,.913,4.31,7.09,7.09,0,0,0,1.784,2.259,8.412,8.412,0,0,0,2.385,1.389,10.1,10.1,0,0,0,3.506.5,23.6,23.6,0,0,0,3.153-.187,14.122,14.122,0,0,0,2.946-.767q1.824-1.657,3.775-3.191l-0.5-1.616a13.87,13.87,0,0,1-2.676.725,21.057,21.057,0,0,1-2.759.145,9.181,9.181,0,0,1-3.174-.829,4.408,4.408,0,0,1-1.514-1.43,5.478,5.478,0,0,1-.788-2.093,62.1,62.1,0,0,1-.083-7.377l0.249-16.869q3.9-.041,6.1-0.041t4.813,0.041l0.871-3.854-0.29-.29q-1.08.124-3.236,0.166-3.9.084-4.273,0.083-0.664,0-3.983-.041,0.538-11.729,1-15.169l-1-.829a34.37,34.37,0,0,1-7.011,3.191q0.249,2.736.249,12.6a69.954,69.954,0,0,1-6.6,2.818V54.73q2.572-.207,4.647-0.207h0ZM480.5,86.933q2.82,0,10.2.29V84.9q-4.314-.083-4.6-0.124a2.223,2.223,0,0,1-1-.394,1.649,1.649,0,0,1-.5-0.684,9.028,9.028,0,0,1-.5-3.029q-0.042-.871-0.249-11.62V64.194a34.055,34.055,0,0,1,.166-4.253,4.448,4.448,0,0,1,.664-1.806,15.276,15.276,0,0,1,2.531-2.863A10.318,10.318,0,0,1,490.5,53.28a11.6,11.6,0,0,1,4.066-.664,9.231,9.231,0,0,1,5.787,1.678,8.056,8.056,0,0,1,2.883,3.792,24.089,24.089,0,0,1,.706,6.921V75.287q0,5.8-.581,11.936,5.684-.207,7.509-0.207,2.157,0,6.887.207V84.9q-4.067-.083-4.315-0.124a2.219,2.219,0,0,1-1-.394,1.646,1.646,0,0,1-.5-0.685,8.325,8.325,0,0,1-.5-2.9q0-.663-0.125-6.016L511.2,69.053v-7.3q0-5.352-1.328-8.091a10.4,10.4,0,0,0-4.75-4.544,15.3,15.3,0,0,0-7.239-1.8,16.114,16.114,0,0,0-4.191.58,11.825,11.825,0,0,0-2.364.829,6.759,6.759,0,0,0-1.245.995q-0.5.457-3.194,2.818t-3.278,2.818v-12.1l0.083-6.465q0.041-5.222.249-12.641l0.042-1.368a5.912,5.912,0,0,0,.083-0.829,0.756,0.756,0,0,0-.166-0.518,0.581,0.581,0,0,0-.457-0.186,2.191,2.191,0,0,0-.829.249q-3.653,1.743-13.027,2.9V26.84q5.1,0,5.725.291a1.156,1.156,0,0,1,.664.58,27.383,27.383,0,0,1,.456,5.558q0.249,7.383.249,14.308V69.018q-0.249,11.363-.29,11.9a7.276,7.276,0,0,1-.54,2.945,1.933,1.933,0,0,1-.726.684,3.166,3.166,0,0,1-1.39.311l-3.9.041v2.321q8.214-.289,10.662-0.29h0Zm67.226,23.521a9.07,9.07,0,0,0,2.468.311,11.3,11.3,0,0,0,5.186-1.2,11.472,11.472,0,0,0,4.066-3.52A42.266,42.266,0,0,0,563.47,98.3l9.583-22.365q6.348-13.916,8.692-18.659t3.5-5.571a6.007,6.007,0,0,1,3.278-.911l0.415-2.528q-3.652.29-7.385,0.29-3.693,0-8.5-.29v2.528q4.356,0.415,5,.85a1.393,1.393,0,0,1,.643,1.222,4.846,4.846,0,0,1-.166,1.161q-0.539,1.907-3.775,10.03T570.232,75.08l-2.2,4.891q-1.617-3.606-3.982-9.408L561.437,64.1q-1.452-3.606-3.07-8.7a11.152,11.152,0,0,1-.7-2.736,1.5,1.5,0,0,1,1.078-1.492,29.327,29.327,0,0,1,4.9-.539V48.264q-4.523.29-9.418,0.29-5.02,0-10.164-.29v2.362a11.176,11.176,0,0,1,3.8.849,4.783,4.783,0,0,1,1.6,2.05q1.867,3.893,4.813,11.181l6.6,16.318q1.868,4.639,3.2,8.366-1.743,4.6-3.942,9.029a20.191,20.191,0,0,1-2.51,4.141,6.89,6.89,0,0,1-2.281,1.76,5.979,5.979,0,0,1-2.51.559,6.531,6.531,0,0,1-1.888-.207,4.459,4.459,0,0,1-1.2-.6q-0.559-.394-1.348-1.057h-1l-2.116,6.383A12.221,12.221,0,0,0,547.726,110.454Zm51.046-32.639a19.32,19.32,0,0,0,3.153,5.015,16.239,16.239,0,0,0,5.414,4.062,18.6,18.6,0,0,0,8.152,1.616,23.049,23.049,0,0,0,11.325-2.839,20.065,20.065,0,0,0,7.966-7.854A22.186,22.186,0,0,0,637.6,66.749q0-8.662-5.476-14.133t-14.189-5.471q-9.25,0-15.163,5.865t-5.912,15.149a24.544,24.544,0,0,0,1.909,9.657h0Zm9.106-24.2a10.4,10.4,0,0,1,8.277-3.689,11.74,11.74,0,0,1,6.6,1.969q2.986,1.969,4.916,6.756A30.376,30.376,0,0,1,629.6,70.023q0,7.917-3.236,11.729a10.136,10.136,0,0,1-8.048,3.813,11.369,11.369,0,0,1-6.991-2.425q-3.215-2.425-4.916-7.688a33.567,33.567,0,0,1-1.7-10.361Q604.7,57.3,607.878,53.611ZM686.6,84.737a2.572,2.572,0,0,1-1-.435,2.188,2.188,0,0,1-.539-0.642,8.519,8.519,0,0,1-.456-3.026q-0.042-.87-0.166-5.885l-0.083-5.761V63.309q0-2.362.249-9.118,0.165-3.937.29-5.264c0.027-.332.042-0.608,0.042-0.829a0.907,0.907,0,0,0-.187-0.622,0.616,0.616,0,0,0-.477-0.207,2.356,2.356,0,0,0-1.037.373q-4.024,2.2-12.944,3.191V53.2q1.327,0.042,3.609.041a4.211,4.211,0,0,1,2.2.414,1.411,1.411,0,0,1,.539.663,14.84,14.84,0,0,1,.374,3.564q0.125,4.352.124,5.429v3.481q0,3.606-.207,7.253a5.726,5.726,0,0,1-.374,1.886,10.868,10.868,0,0,1-1.2,1.844,14.545,14.545,0,0,1-2.365,2.57,11.562,11.562,0,0,1-3.547,1.969A12.011,12.011,0,0,1,665.48,83a9.077,9.077,0,0,1-4.874-1.223,6.025,6.025,0,0,1-2.655-3.274,25.3,25.3,0,0,1-.685-7.108V63.309q0-2.362.249-9.284,0.125-3.771.29-5.1,0.042-.5.042-0.829a0.9,0.9,0,0,0-.187-0.622,0.614,0.614,0,0,0-.477-0.207,2.356,2.356,0,0,0-1.037.373q-4.024,2.2-12.944,3.191V53.2q1.327,0.042,3.609.041a4.211,4.211,0,0,1,2.2.414,1.413,1.413,0,0,1,.54.663,14.912,14.912,0,0,1,.373,3.564q0.124,4.352.124,5.429V70.4q0,1.243-.1,2.528t-0.1,2.735a18.656,18.656,0,0,0,.643,5.243,9.246,9.246,0,0,0,1.846,3.544,10.035,10.035,0,0,0,3.879,2.777,15.11,15.11,0,0,0,5.622.912A18.252,18.252,0,0,0,666.1,87.7a14.294,14.294,0,0,0,3.568-1.43,6.081,6.081,0,0,0,1.535-1.16,75.184,75.184,0,0,1,5.932-5.429q-0.125,4.187-.373,7.543,3.152-.289,6.223-0.29,2.778,0,8.214.29V84.861q-4.356-.083-4.605-0.124h0Zm-582.83,63.768v-1.3c0-.209-0.251-0.334-0.67-0.334H17.212c-0.418,0-.67.125-0.67,0.334v1.3c0,0.209.251,0.334,0.67,0.334H103.1C103.516,148.839,103.767,148.714,103.767,148.505Zm26.2,16.307c3.725,0,7.408-.544,7.408-2.3,0-1.087-.879-1.672-2.636-1.672-1.968,0-4.1.794-6.571,0.794-4.144,0-5.9-2.174-5.9-4.809,0-5.644,6.7-7.651,10.254-8.237,1.926-.334,3.223-0.627,3.223-1.881,0-.878-1.423-1.757-2.72-1.757-1.256,0-3.809,1.882-5.232,1.882-1.256,0-2.386-2.383-2.386-4.516a11.967,11.967,0,0,1,1.214-4.934,10.472,10.472,0,0,0,1.046-3.638,3.509,3.509,0,0,0-2.637-3.512,5.616,5.616,0,0,0-2.009-.46c-0.46,0-.627.084-0.627,0.293a3.3,3.3,0,0,0,.837.836,4.021,4.021,0,0,1,.962,2.885c0,2.635-1.088,4.6-1.088,8.154a7.081,7.081,0,0,0,3.014,6.4c-2.846,1.84-6.237,4.6-6.237,9.325C119.877,163.516,125.4,164.812,129.964,164.812Zm11.929-28.851a1.472,1.472,0,0,0,1.465-1.464c0-2.383-3.642-3.178-5.776-3.178-0.419,0-1.967,0-2.009.418,0,0.293.628,0.335,1.381,0.67a7.858,7.858,0,0,1,3.39,2.717A2.08,2.08,0,0,0,141.893,135.961Zm-4.186,3.888a1.5,1.5,0,0,0,1.633-1.5c0-3.261-5.232-3.889-6.781-3.889-0.418,0-.921.042-0.921,0.293,0,0.293.5,0.418,1.047,0.711a7.3,7.3,0,0,1,3.39,3.345A1.894,1.894,0,0,0,137.707,139.849Zm54.083,10.37a1.922,1.922,0,0,0-.754,1.171c-3.139,6.983-6.655,9.157-9,9.157-1.968,0-2.805-1.087-2.805-3.262,0-2.425.586-3.888,0.586-6.4,0-3.638-2.3-5.979-5.734-5.979-3.139,0-6.069,1.923-8.412,4.348,0.376-.794.795-1.463,1.172-2.132a28.6,28.6,0,0,1,6.068-7.025c1.382-1.254,3.349-2.76,3.349-5.059,0-2.551-2.637-4.056-4.018-4.056a0.837,0.837,0,0,0-.879.376c0,0.251.418,0.167,1.13,1.129a1.62,1.62,0,0,1,.418,1.087,5.6,5.6,0,0,1-1.172,2.76c-5.315,8.028-10.756,14.467-13.184,22.2a6.4,6.4,0,0,0-.293,1.965c0,1.84.879,3.345,2.344,3.345,1,0,1.3-1.129,1.674-3.387,0.252-1.589.545-6.606,4.144-10.328,2.3-2.341,4.981-3.763,7.032-3.763,2.553,0,3.18,2.216,3.18,4.391,0,1.212-.585,5.561-0.585,7.4,0,2.55,1.381,5.393,5.148,5.393,3.515,0,7.826-3.177,10.547-11.916a3.355,3.355,0,0,0,.209-1.088C191.957,150.47,191.957,150.219,191.79,150.219Zm31.158-14.008A2.474,2.474,0,0,0,224,134.372a1.2,1.2,0,0,0-1.089-1.255,5.63,5.63,0,0,0-1.464.042l-1.884.042a1.346,1.346,0,0,0-.67.084c-0.167-1-.879-1.631-2.343-2.133a3.8,3.8,0,0,0-1.424-.251c-0.711,0-1.171.209-1.171,0.46,0,0.293.8,0.376,1.506,1.171a3.479,3.479,0,0,1,.712,2.342,7.786,7.786,0,0,1-.168,1.672,13.772,13.772,0,0,1-2.929.5,5.193,5.193,0,0,1-3.307-1,1.135,1.135,0,0,0-.586-0.418,0.192,0.192,0,0,0-.167.209,1.731,1.731,0,0,0,.251.795,5.336,5.336,0,0,0,4.813,3.094,5.794,5.794,0,0,0,1.13-.126c-1.465,4.474-3.767,8.279-5.692,11.834-1.088,1.965-1.381,1.756-1.381,2.926,0,1.422.293,2.593,1.255,2.593a2.327,2.327,0,0,0,2.009-1.464c0.838-1.965,4.772-12.293,6.321-16.641A25.488,25.488,0,0,0,222.948,136.211Zm-3.976-2.257v-0.377a2.662,2.662,0,0,0,.795.46,0.777,0.777,0,0,1,.461.46,1.384,1.384,0,0,1-.837.795,5.024,5.024,0,0,1-.67.334A6.506,6.506,0,0,0,218.972,133.954Zm12.012,8.111a3.686,3.686,0,0,1,2.177.878,3.293,3.293,0,0,0,2.05.92,2.044,2.044,0,0,0,2.009-2.048c0-1.966-2.762-3.931-4.813-4.6a5.78,5.78,0,0,0-1.758-.376c-0.251,0-.376.042-0.376,0.125a0.606,0.606,0,0,0,.334.335c0.587,0.5,1.968,1.672,1.968,2.508a0.861,0.861,0,0,1-.754.753c-5.483,1.714-6.445,4.056-6.571,9.074-0.042,1.8.084,4.1,0.126,6.1-0.544-.041-1.047-0.083-1.465-0.083-4.018,0-7.743,1.63-7.743,4.85,0,3.094,3.306,4.767,6.152,4.767,3.181,0,6.153-1.84,6.153-5.1V159.46a16.024,16.024,0,0,1,3.139,1.63,5.663,5.663,0,0,0,2.637,1.255,1.36,1.36,0,0,0,1.3-1.422,2.786,2.786,0,0,0-1.213-2.007,16.5,16.5,0,0,0-6.153-2.634,75.339,75.339,0,0,1-1-9.2C227.176,143.738,228.766,142.065,230.984,142.065Zm-9.375,20.74c-1.842,0-3.767-.753-3.767-2.425,0-1.631,2.176-2.216,4.353-2.216a15.588,15.588,0,0,1,3.223.376C225.376,160.714,224.957,162.805,221.609,162.805Zm46.2,2.007c3.725,0,7.408-.544,7.408-2.3,0-1.087-.879-1.672-2.637-1.672-1.967,0-4.1.794-6.571,0.794-4.143,0-5.9-2.174-5.9-4.809,0-5.644,6.7-7.651,10.254-8.237,1.925-.334,3.223-0.627,3.223-1.881,0-.878-1.423-1.757-2.721-1.757-1.255,0-3.808,1.882-5.232,1.882-1.255,0-2.385-2.383-2.385-4.516a11.951,11.951,0,0,1,1.214-4.934,10.472,10.472,0,0,0,1.046-3.638,3.51,3.51,0,0,0-2.637-3.512,5.621,5.621,0,0,0-2.009-.46c-0.46,0-.628.084-0.628,0.293a3.3,3.3,0,0,0,.837.836,4.017,4.017,0,0,1,.963,2.885c0,2.635-1.088,4.6-1.088,8.154a7.082,7.082,0,0,0,3.013,6.4c-2.846,1.84-6.236,4.6-6.236,9.325C257.719,163.516,263.244,164.812,267.806,164.812Zm36.583-20.656a1.282,1.282,0,0,0,.628-0.293,15.955,15.955,0,0,1,7.869-3.554c1.967-.251,2.553-0.543,2.553-1.421a3.067,3.067,0,0,0-2.135-2.551,2.74,2.74,0,0,0-1.046-.167c-1.3,0-3.139.376-4.646,0.376a13.981,13.981,0,0,1-5.441-1.087c-0.419-.209-0.712-0.335-0.921-0.46a1.8,1.8,0,0,0-.377-0.209h0a0.2,0.2,0,0,0-.083.209,2.23,2.23,0,0,0,.5,1.087,9.649,9.649,0,0,0,5.022,3.262c1.172,0.25,1.884.459,1.884,0.71,0,0.377-2.637,2.342-3.767,3.471a0.726,0.726,0,0,0-.251.46A0.169,0.169,0,0,0,304.389,144.156Zm4.562,19.4a29.581,29.581,0,0,0,7.743-.878c1.214-.376,2.26-1,2.26-2.049,0-1.129-1.088-1.881-2.678-1.881a23.613,23.613,0,0,0-2.637.334,39.708,39.708,0,0,1-6.99.753,15.938,15.938,0,0,1-5.064-.711c-2.344-.836-3.1-2.132-3.1-3.554,0-.334.083-0.669,0.083-1,0-.209,0-0.627-0.293-0.627a1.748,1.748,0,0,0-.8,1.213,7.324,7.324,0,0,0-.251,2.007,4.872,4.872,0,0,0,1.8,4.014C301.166,163.014,305.226,163.557,308.951,163.557Zm49.4-18.272a15.905,15.905,0,0,0-11.091,3.889l0.669-1.129a80.287,80.287,0,0,1,7.66-10.495c1.172-1.129,1.716-1.8,1.716-2.718,0-1.464-1.716-2.676-3.474-2.676-1.8,0-4.395,2.55-6.613,3.345a7.105,7.105,0,0,1-1.591.418,11.552,11.552,0,0,1-1.716.042c-0.46,0-.669.083-0.669,0.418a1.159,1.159,0,0,0,.209.5,5.8,5.8,0,0,0,3.851,2.257c1.925,0,2.636-2.174,4.6-3.6a1.191,1.191,0,0,1,.586-0.25,0.452,0.452,0,0,1,.46.46,2,2,0,0,1-.335.836,111.355,111.355,0,0,1-9.459,14.3,52.1,52.1,0,0,0-3.6,5.352,4.038,4.038,0,0,0-.335,1.631c0,1.212.627,2.132,1.548,2.132a3.2,3.2,0,0,0,2.637-1.547c0.67-1.3.921-5.645,5.692-8.864a13.908,13.908,0,0,1,7.743-2.342c4.144,0,6.864,2.467,6.864,5.854,0,6.23-7.826,10.161-11.049,10.871-0.712.168-1.13,0.335-1.13,0.544s0.251,0.251.628,0.251a7.487,7.487,0,0,0,1.506-.209c4.353-.962,13.6-4.307,13.6-11.415C367.265,148.63,363.875,145.285,358.35,145.285Zm59.444,10.83a1.806,1.806,0,0,0,2.051-1.757c0-.961-0.628-2.048-2.6-2.634a46.551,46.551,0,0,1-16.449-9.7,3.9,3.9,0,0,0-2.386-1,3.525,3.525,0,0,0-2.3,1c-2.092,1.756-4.98,3.972-6.4,4.975a5.658,5.658,0,0,1-3.642,1.38c-0.795,0-1.381-.125-1.716-0.125a0.428,0.428,0,0,0-.46.418c0,0.962,1.8,3.219,3.976,3.219,1.591,0,2.846-1.128,4.52-3.261,1-1.3,2.846-3.136,4.269-4.641a2.814,2.814,0,0,1,1.842-1.046,2.743,2.743,0,0,1,1.8,1c5.985,6.063,9.208,8.613,14.942,11.457A6.231,6.231,0,0,0,417.794,156.115Zm31.426-10.579a3.192,3.192,0,0,0-.711-0.209c-0.126,0-.209.042-0.209,0.125a0.878,0.878,0,0,0,.5.544c3.892,2.8,6.7,6.774,6.7,10.5,0,4.181-2.805,6.774-6.4,6.774-4.939,0-6.069-4.014-6.069-8.823v-0.293a18.711,18.711,0,0,0,4.06.544c0.879,0,2.553-.126,2.553-1.422,0-1.421-1.381-1.756-2.721-1.756a31.267,31.267,0,0,1-3.264-.083c-0.168,0-.335-0.042-0.5-0.042,0.209-2.467.585-4.892,1-7.15a10.479,10.479,0,0,1,4.353-1.422,1.535,1.535,0,0,0,1.507-1.547,2.585,2.585,0,0,0-1.758-2.342,15.842,15.842,0,0,0-2.595-.669c0.376-1.045.753-1.881,1.046-2.592a7.452,7.452,0,0,0,.712-2.76,3.8,3.8,0,0,0-1.633-2.968,5.411,5.411,0,0,0-2.762-1.088c-0.377,0-.586.126-0.586,0.293a0.579,0.579,0,0,0,.209.376,4.745,4.745,0,0,1,1.256,1.715,7.016,7.016,0,0,1,.418,2.508,24.417,24.417,0,0,1-.5,4.182,22.118,22.118,0,0,1-4.562-1.129,1.635,1.635,0,0,0-.586-0.209,0.237,0.237,0,0,0-.251.251,1.134,1.134,0,0,0,.418.585,16.059,16.059,0,0,0,4.521,2.843q-0.376,1.882-.754,4.14c-1.883,1.589-4.185,3.93-4.185,5.979,0,1.589,1.465,2.676,3.265,3.345-0.042.8-.042,1.589-0.042,2.425,0,5.394,2.009,9.659,7.826,9.659,4.6,0,9.418-2.968,9.418-8.321C458.889,152.77,455.373,148.128,449.22,145.536Zm-3.139-4.014c0,0.334-.837.92-1.632,1.463,0.126-.711.293-1.421,0.46-2.09C445.537,141.1,446.081,141.187,446.081,141.522Zm-6.236,7.9c0-1.045,1-2.592,2.595-3.93-0.251,1.714-.46,3.554-0.628,5.6C440.682,150.8,439.845,150.3,439.845,149.424Zm47.042,15.931a2.4,2.4,0,0,0,1.967,1.506,2.054,2.054,0,0,0,1.926-2.3c0-3.471-6.823-6.439-9.041-6.983a3.075,3.075,0,0,0-.753-0.125,0.287,0.287,0,0,0-.335.209,2.037,2.037,0,0,0,.753.669A26.145,26.145,0,0,1,486.887,165.355ZM520.2,131.4c-1.716-.042-3.39-0.125-5.064-0.293-0.293,0-.377.168-0.251,0.377l0.753,1.421a0.345,0.345,0,0,0,.419.209,38.769,38.769,0,0,1,5.482-.543h3.14c-0.168,1.965-.461,3.847-0.8,5.686h-7.994c-1.716-.041-3.39-0.125-5.106-0.292-0.251,0-.377.167-0.251,0.376l0.753,1.463a0.313,0.313,0,0,0,.419.21,46.1,46.1,0,0,1,5.985-.544h5.9a41.908,41.908,0,0,1-1.758,5.77h-2.469c-1.59-.042-3.1-0.125-4.646-0.293-0.251,0-.376.168-0.251,0.377l0.753,1.5c0.084,0.209.21,0.209,0.419,0.167a15.816,15.816,0,0,1,3.474-.5h2.176a30.053,30.053,0,0,1-11.007,13.171,0.315,0.315,0,0,0-.084.5l0.042,0.041a0.381,0.381,0,0,0,.46.084,35.582,35.582,0,0,0,9.166-6.816v4.558c-0.083,4.14-.167,5.519-0.376,8.279a0.887,0.887,0,0,0,.92.836c1.591,0,2.6-.794,2.6-1.045v-1.965H539v0.878c-0.084.334-.084,0.543-0.126,0.711a1.416,1.416,0,0,0-.042.418,0.682,0.682,0,0,0,.67.627,5.259,5.259,0,0,0,2.846-1,0.533,0.533,0,0,0,.167-0.418c-0.125-2.09-.167-3.387-0.251-6.982v-3.722a3.139,3.139,0,0,0,1.549-.711,0.28,0.28,0,0,0,.084-0.376,10.217,10.217,0,0,0-3.516-2.676,2.355,2.355,0,0,0-1.047.962l-0.753.961H523.509l-2.261-.961a27.526,27.526,0,0,0,3.391-5.352H537.32v0.794a2.791,2.791,0,0,0-.083.46,1.479,1.479,0,0,0-.084.418,0.692,0.692,0,0,0,.712.627,5.964,5.964,0,0,0,2.72-.836,0.461,0.461,0,0,0,.209-0.418c-0.125-1.5-.167-2.509-0.251-5.227v-2.843h5.483a1.009,1.009,0,0,0,.921-0.46,0.493,0.493,0,0,0,.042-0.418,10.551,10.551,0,0,0-3.39-3.011c-0.335,0-.712.669-1.172,1.338l-0.879,1.338h-1v-4.975a3.9,3.9,0,0,0,1.674-.711,0.323,0.323,0,0,0,.084-0.418,12.056,12.056,0,0,0-3.641-3.011,2.266,2.266,0,0,0-1,1.129l-0.711,1.129H520.2Zm7.241,6.857c0.418-1.839.669-3.721,0.921-5.686h8.956v5.686h-9.877Zm-2.218,6.983a37.342,37.342,0,0,0,1.925-5.77h10.17v5.77h-12.1ZM539,162.93H523.006v-8.906H539v8.906Zm35.892,1.882c3.725,0,7.408-.544,7.408-2.3,0-1.087-.879-1.672-2.637-1.672-1.967,0-4.1.794-6.571,0.794-4.143,0-5.9-2.174-5.9-4.809,0-5.644,6.7-7.651,10.254-8.237,1.925-.334,3.223-0.627,3.223-1.881,0-.878-1.423-1.757-2.721-1.757-1.255,0-3.808,1.882-5.231,1.882-1.256,0-2.386-2.383-2.386-4.516a11.951,11.951,0,0,1,1.214-4.934,10.472,10.472,0,0,0,1.046-3.638,3.509,3.509,0,0,0-2.637-3.512,5.621,5.621,0,0,0-2.009-.46c-0.46,0-.628.084-0.628,0.293a3.3,3.3,0,0,0,.837.836,4.017,4.017,0,0,1,.963,2.885c0,2.635-1.088,4.6-1.088,8.154a7.082,7.082,0,0,0,3.013,6.4c-2.846,1.84-6.236,4.6-6.236,9.325C564.8,163.516,570.325,164.812,574.887,164.812Zm106.576-16.307v-1.3c0-.209-0.251-0.334-0.67-0.334H594.908c-0.418,0-.669.125-0.669,0.334v1.3c0,0.209.251,0.334,0.669,0.334h85.885C681.212,148.839,681.463,148.714,681.463,148.505Z" transform="translate(-4.813 -21.25)"/>
</svg>
